<svg xmlns="http://www.w3.org/2000/svg" id="Layer_1" data-name="Layer 1" viewBox="0 0.06 478.47 476.67"><defs><style>.cls-1{fill:#009da2;}.cls-2{fill:#009499;}.cls-3{fill:#00898d;}.cls-4{fill:#eef2f2;}.cls-5{fill:#009296;}.cls-6{fill:#f9fafa;}.cls-7{fill:#017679;}.cls-8{fill:#d3e2e2;}.cls-9{fill:#81c2c4;}.cls-10{fill:#96c9cb;}.cls-11{fill:#008f93;}.cls-12{fill:#008e93;}.cls-13{fill:#d2e3e4;}.cls-14{fill:#017b7f;}.cls-15{fill:#7ac1c3;}.cls-16{fill:#048083;}.cls-17{fill:#a4d4d5;}.cls-18{fill:#cce1e2;}.cls-19{fill:#1d8c8f;}.cls-20{fill:#068084;}.cls-21{fill:#e3eded;}.cls-22{fill:#cde1e2;}.cls-23{fill:#a0d0d1;}.cls-24{fill:#acd7d8;}.cls-25{fill:#66bbbd;}</style></defs><path class="cls-1" d="M59.08,182.42C58.39,158.25,57.21,134,62,110.13c10.13-50.28,48.43-82.55,104.32-83.52q131.17-2.28,262.41,0C493.6,27.82,531.94,68.1,535.89,134c1.47,15.84.47,31.72.54,47.57-1.67,3.17-4.79,3.86-7.85,3.92-23.85.5-47.75,2.28-70.87-6.32-19.94-7.42-40.4-12.21-62-11.9-19.09.27-37.75,3-55.42,9.69-28.74,10.92-56.71,10.88-85.66.23-37-13.61-74.91-14.08-111.91.14-24.23,9.3-49,8.91-74,8.42C65.16,185.63,61.75,185,59.08,182.42Z" transform="translate(-58.43 -25.41)"/><path class="cls-2" d="M59.26,182.36c36.59,3.5,71.42-4.26,106.26-14.61,28.3-8.4,57.56-5.65,84.76,4.52,31.91,11.92,62,11.84,94,0,30.74-11.43,63.86-13.51,94.78-2.38,31.68,11.4,63.49,13.55,96.25,12.5,2.87,13,.9,26.24,1.24,39.37.39,14.73.07,29.49.1,44.22-3.86,9.72-13.52,11.69-21.25,4.21-3.64-3.52-5.51-8.2-7.81-12.58-6.72-12.81-12.08-26.38-21.5-37.68-3.71-4.45-7.39-8.78-13.39-10.18-15.06-14.31-30.74-27.55-51.8-32.6-35.44-8.49-67-1.22-94.23,22.92-6.3,5.57-12.14,11.67-17.92,17.8-1.22,1.38-2.47,2.75-3.68,4.15-7.78,9-8.39,9-17.12.39-25.38-36.95-68.54-55-111.08-46.35-29.16,6-49.51,23.14-62.42,49.43-1.69,3.42-2.76,7.16-6.21,9.42-5.32,3.28-7.36,8.68-9,14.17-5.26,18.05-9,36.26-5.31,55.19.81,4.12.7,8.34.72,12.53.08,18.46-.42,19.31-18.8,23.11C68,341.5,65,346.27,64.74,353.56c-.32,9.14,0,18.28-.18,27.43-.08,4.91.54,10-2.21,14.48a2.1,2.1,0,0,1-3.33.34q-.1-100.43-.18-200.86C58.84,190.75,59.11,186.56,59.26,182.36Z" transform="translate(-58.43 -25.41)"/><path class="cls-3" d="M535.26,359.87c.86,20,1.26,40.08-3,59.77-10.17,46.81-48.1,79.73-97.2,80.88q-137.92,3.23-275.9,0C100.84,499.05,59.67,455,59,397.45q.2-21.87.4-43.73c.15-12.44,4-16.93,16.33-16.81,10.27.1,14.58-3.45,14-14.21-1.15-22.35-5.35-44.83,2-67,2.18-6.56,4-13.23,7.63-19.13,1.29-2.08,2.24-6.27,6.53-3.63,1.19,2.34.74,4.78.46,7.21-3.2,13.16-2.54,26.31.23,39.43.51,5.9,3,11.46,3,17.45-1.71,16.25,7.7,28,17.33,38.86,34.69,39.18,96.11,42.63,135.64,8,7.25-6.36,14.79-12.38,21.95-18.87,9.24-8.36,14.73-8.54,24.51-.62,10.78,8.73,20.12,19.11,31.77,26.92C388.42,383.18,453.88,367,479.4,316.86c3.15-6.2,6.32-12.47,3.85-19.8-.24-6.08,2.82-11.51,3.42-17.44a83.1,83.1,0,0,0,.12-33.25c-.46-3.32-.49-6.56,1.87-9.31,10.32.37,11.76,8.89,13.73,15.95,6.75,24.1,4.66,48.07-2.53,71.78-1.56,5.17-3.31,10.27-5.05,15.38-2.87,8.46-.13,13.26,8.82,14.88a109.07,109.07,0,0,0,18.46,1.61C526.71,356.7,531.47,356.38,535.26,359.87Z" transform="translate(-58.43 -25.41)"/><path class="cls-4" d="M105.78,237.83c.57-1.48,1.14-3,1.72-4.43,8.21-19.87,19.85-37.51,38.79-48.33,36.08-20.61,72.53-19.07,107.88,2.13,14.38,8.62,27.57,19.08,35.68,34.45-4.22,4.4-4.53,9.41-2.6,14.93a60.61,60.61,0,0,1,3.66,19.13c.07,4.21-1.7,10.27,5.32,10.72,6.4.42,6.77-4.94,7.46-9.58,2.2-14.59,7.65-28.06,14.15-41-3.6,1.34-6.81,9.76-11.54,1,17.19-18.37,34.65-36.12,60.62-42.23,42.06-9.89,77.47.36,105.8,33.32,8.16,3.65,10.69,10.93,12.3,18.83.25,18,2,36.13-4.56,53.54C458.29,339.57,392,358.18,340.11,319.7A159.54,159.54,0,0,1,315,296c-12.61-14.47-19.33-14.56-31.49,0-13,15.64-27.72,29-46.73,36.56-41.16,16.35-79.81,5-109.35-30.77C112,283.11,105.79,261.59,105.78,237.83Z" transform="translate(-58.43 -25.41)"/><path class="cls-5" d="M480.86,222.92c-1.52-7.25-6.17-12.83-9.86-18.93,14.9,1.18,18.56,14.75,25.11,24.36,6.44,9.44,10.5,20.52,15.69,30.83,3.57,7.12,5.32,10,8.86,11.24C527,272.7,534,267.93,536.6,266q-.66,48-1.34,96c-12.13-.27-24.25.66-36.36-2.15-9.53-2.21-12.69-6.46-9.32-15.89,8.15-22.82,15.17-46.06,12.37-70.64-1.56-13.66-.37-29-14.4-38.19C480.57,233.7,484.11,226.41,480.86,222.92Z" transform="translate(-58.43 -25.41)"/><path class="cls-6" d="M306.3,216.8c7.1,4.89,8.68-5.94,15.1-3.7-3.39,11.34-10.76,22.42-12.89,35.25-.67,4.1-2,8.2-2,12.28.09,7.91-4.18,9.38-11,9.52-7.42.16-8.33-4.09-7.6-9.54,1.41-10.63-2.63-20.31-5.34-30.1-2.07-7.51,1.2-8.85,7.24-8.86C299.83,235.15,301.07,219.27,306.3,216.8Z" transform="translate(-58.43 -25.41)"/><path class="cls-7" d="M485.15,297.74c4.07.65,3.26,2.94,2.42,5.9-8.49,30-28.55,49.78-56.9,60.52-40.89,15.49-76.7,4.14-108.25-24.06-4-3.58-7.51-7.74-11.52-11.33-11.48-10.28-14.52-9.77-26,.55-13.67,12.25-27.1,24.69-44.33,32.49-51.23,23.2-111-.25-131.21-51.09-1.76-4.42-3.3-8.63-.11-13,3.53,1.2,5.16,4.34,7.28,7,40.61,61.62,120.51,63.79,167.8,4.51,1.19-1.49,2.19-3.14,3.44-4.61,8.26-9.72,11.33-10,19.59,0,19.36,23.5,42.2,40.75,73.29,46.17,37.31,6.52,76.82-10.8,95.74-43.28C478.58,303.71,479.62,298.7,485.15,297.74Z" transform="translate(-58.43 -25.41)"/><path class="cls-8" d="M482.32,226.1c4.49,2.63,3.3,8.4,6.52,11.74l.39,9.08c6.43,31.75-19,80.55-58.91,94.55-22.85,8-45.5,7.79-67.7-1.29a125.43,125.43,0,0,1-52.13-39c-7.54-9.62-12.61-9.78-21.83-1.2-13.74,12.78-26.21,26.59-43,36.35-29,16.83-73.8,13.24-103.28-9.88-15.83-12.42-27.64-27.54-36.94-45-3.22-14.57-3.77-29.13.33-43.64,5.63,8.41,3.51,18.5,6.09,27.65,15.53,55,85.63,100.81,149.09,49.17,8.81-7.18,15.37-15.91,23-23.9,11.26-11.84,18.52-13,29.54-.68,14.18,15.86,29.34,29.83,48.89,39.1,53.9,25.55,119.18-14.69,119.88-74.28C482.35,245.29,482.3,235.7,482.32,226.1Z" transform="translate(-58.43 -25.41)"/><path class="cls-9" d="M485.15,297.74c-11.55,23-27.9,41-52.53,50.51-42.79,16.55-87.39,2-118.25-31-5.48-5.87-9.69-16.17-15.83-17.31-7.39-1.39-10.71,10.18-16.06,15.84-23.81,25.14-51.88,41.11-87.43,39-35.73-2.09-63.64-18.18-81.35-50,5.27-2.2,7.48,2.09,10.45,4.85,15.87,14.73,32.5,28.45,54.13,33.78,34.55,8.51,64.6-.58,90.45-24.39,6.49-6,12.38-12.58,18.31-19.13,8.81-9.73,15.31-9.52,23.86.46,17.9,20.89,38.92,36.88,66.29,43.53,40.1,9.75,80.86-8.79,100.27-45.37,3.18-6,3.75-14.09,11.66-17C489.68,287.41,486.09,292.25,485.15,297.74Z" transform="translate(-58.43 -25.41)"/><path class="cls-10" d="M489.12,281.56c-9.3,13.91-15.62,29.49-28.38,41.48-25.67,24.12-54.75,30.45-88.22,21.55-24.82-6.6-43.49-22-60.62-40.1-12.87-13.63-15.35-12.7-27.55,1.93-41.37,49.59-103,57.28-150.9,13.9-6.19-5.61-13.15-10.38-19.75-15.53a9.15,9.15,0,0,1-4.5-7.07l-3.75-16.25c9.27,5.69,12.86,16,19.22,24,24.21,30.46,64.23,45.6,101.48,35.66,17.27-4.61,32.15-14.22,44.53-27.37,5.54-5.87,11.3-11.53,17.08-17.16,9.44-9.2,16.66-8.46,24.9,2.13,17,21.9,38.85,36.66,66,43.23,35.83,8.67,74.82-7.21,93.62-38.69,10.31-17.28,17.54-35.73,16.92-56.39C493.47,258.48,492.33,270,489.12,281.56Z" transform="translate(-58.43 -25.41)"/><path class="cls-11" d="M277.93,263.78c-11.67,23.81-28.43,42.8-53.22,53.44-30.56,13.13-68.89,1.6-85.26-33.36-15.21-27.26-2-61.58,29.27-75.91a46.15,46.15,0,0,1,7.62-2.66c40.36-10.77,69.12,6.78,92.45,37.61C272.22,249.69,279.31,254.9,277.93,263.78Z" transform="translate(-58.43 -25.41)"/><path class="cls-12" d="M459,258.58c-.48,49.35-49.32,78.81-94.07,56.42-19.79-9.91-34.34-25.48-44.72-44.92,8.37-15.23,18.21-29.22,32.44-39.75,35.91-26.58,79.7-18.61,99.21,21.21,1.12,2.28,1.47,5.33,4.74,6A2.67,2.67,0,0,1,459,258.58Z" transform="translate(-58.43 -25.41)"/><path class="cls-13" d="M277.93,263.78c-1.82-7.3-7.11-12.68-10.59-19.07-15.69-27.81-49.77-52.12-91.4-37.27-27.32,9-50,37-36.49,76.42-13.68-13.81-12.17-30.29-7.36-46.71,13.69-46.8,67.73-65,111.31-37.37,16.78,10.64,30.36,24.83,37.79,43.62C283.88,250.21,287.3,258.33,277.93,263.78Z" transform="translate(-58.43 -25.41)"/><path class="cls-14" d="M457,258.18c-.45,1.8-.5,4.84-1.45,5.15-2.19.71-2.75-1.71-3.37-3.51-5.43-15.9-15.17-28.34-30.36-36-23.58-11.85-45.65-6.42-66,7.65-12.61,8.73-23,20-29.16,34.54-1.19,2.81-3.57,3.87-6.46,4L318,267.7c-3-6.8-.51-13.17,3.08-18.41,16.7-24.4,36.64-44.39,68.18-48.5,29.21-3.81,63.15,18.38,68.06,45C458.08,250,458.45,254.09,457,258.18Z" transform="translate(-58.43 -25.41)"/><path class="cls-15" d="M457,258.18c-2.22-38.82-41.91-63.87-81.81-51-26.47,8.52-43.17,28.32-56.38,51.57-1.64,2.89-1,5.94-.82,9-5.94-8.36-2.29-16.95,1.87-23.62,18.82-30.21,44-51.27,82.19-50,32.16,1.09,64.16,28.17,57,64.48A9.3,9.3,0,0,1,457,258.18Z" transform="translate(-58.43 -25.41)"/><path class="cls-16" d="M216.17,272.88a29.68,29.68,0,0,0,3,1.57c3.47,1.34,9.72-2.43,10.18,4,.37,5.22-4.88,7.53-9.19,9a59.38,59.38,0,0,1-38.1,0c-4.31-1.43-9.56-3.74-9.21-8.95.44-6.46,6.69-2.68,10.16-4a33.07,33.07,0,0,0,3-1.53C196.08,266.68,206.12,266.56,216.17,272.88Z" transform="translate(-58.43 -25.41)"/><path class="cls-17" d="M216.17,272.88l-30.12.05c-13.42-1-16.85-5.18-13.59-16.56.69-2.38,2.55-2.28,4.46-2.06,6.15,7.75,14.12,9.69,23.33,6.87,8.32-2.54,18.72,2.42,25.13-6.93,9.81,1.6,3.32,8.84,4.32,13.3,1.08,4.86-3.32,4.75-6.79,4.83C220.66,272.44,218.42,272.71,216.17,272.88Z" transform="translate(-58.43 -25.41)"/><path class="cls-18" d="M225.38,254.25c2.91,6.94-2.42,8.57-6.85,8.61-8.87.1-17.53,1.84-26.29,2.33-7.41.42-15.22-.31-15.32-10.88Z" transform="translate(-58.43 -25.41)"/><path class="cls-19" d="M175.94,207.44c35.15-20.42,84.37,9.59,91.4,37.27-8.34-8.32-16-17.51-25.17-24.8-17.8-14.14-38.33-17.93-60.54-12.58C179.83,207.77,177.84,207.42,175.94,207.44Z" transform="translate(-58.43 -25.41)"/><path class="cls-20" d="M408.23,273.1c17.44,4,17.41,4,5.21,18.31-1.71,2-2.93,4.45-4.58,6.52-9.56,12-22.14,11.9-31.65-.3-1.4-1.79-2.49-3.82-3.79-5.69-3.27-4.71-12-7.78-8.07-14.63,3.31-5.77,11.19-1.83,17-2.61l1.33.92a12.29,12.29,0,0,1,1.92,6.39c.31,3.44.42,7.15,5,7.57,4.83.44,7.87-2.25,9.35-6.59,1.29-3.81.21-8.42,3.91-11.43C405.67,271.09,407.27,271.2,408.23,273.1Z" transform="translate(-58.43 -25.41)"/><path class="cls-21" d="M378.18,254.27c7.51-.71,5-6.64,4.87-10.49-.31-7.17,2.67-9.15,9.45-9,6.18.15,10.33.72,9.84,8.51-.24,3.72-1.83,8.67,3.5,11,2,10.11-5,12.7-12.51,13.54C384.39,268.79,378.59,263.11,378.18,254.27Z" transform="translate(-58.43 -25.41)"/><path class="cls-22" d="M378.18,254.27c1.78,8.14,8,10.8,15.16,11,6.92.14,10.84-4.45,12.5-11l13.79.05C418.84,265.5,395,280,385,275.34c-1.66-4.88-6.59-5.87-10.15-8.51-4.15-3.08-9.45-5.8-5.91-12.55Z" transform="translate(-58.43 -25.41)"/><path class="cls-23" d="M385.17,274.43c5.34,2.34,9.88,2.14,13.77-3.07A23.52,23.52,0,0,1,412,263c4.3-1.18,7.24-3.89,7.64-8.65,5.89,13.74,3.81,17.18-11.4,18.79l-4.13-.4c-2.93,1.55-1.37,4.71-2.49,7-2.49,5-6.5,7-11.86,6.45-6.48-.68-6-5.44-5.66-10Z" transform="translate(-58.43 -25.41)"/><path class="cls-24" d="M369,254.28c.47,5,3.07,8.35,7.63,10.43,4.27,1.94,8,4.49,8.59,9.72l-.35.57c-.83.69-1.46.51-1.94-.41l-.54.11c-2.92-3.85-7.1-1.59-10.69-2.08-3.33-.46-8.19.38-7.15-4.73C365.43,263.32,359,255.92,369,254.28Z" transform="translate(-58.43 -25.41)"/><path class="cls-25" d="M382.88,274.59a14.23,14.23,0,0,1,1.94.41c.69,3.36-1,8,4.65,8.72A10.2,10.2,0,0,0,400,278.88c1.36-2.05.67-5.45,4.06-6.18-.4,3.77-.73,7.56-1.21,11.32-1,8.09-6.64,8.77-13.38,8.82-8.33.07-6.38-5.67-6.65-10.26C382.71,279.92,382.87,277.25,382.88,274.59Z" transform="translate(-58.43 -25.41)"/><path class="cls-2" d="M532.76,185.94s1.34-2.75,2.5-3.58,1.29-8.11,1.17-.84l-.12,7.28" transform="translate(-58.43 -25.41)"/></svg>