<svg id="Layer_1" data-name="Layer 1" xmlns="http://www.w3.org/2000/svg" viewBox="0 0 426.3 426.3"><defs><style>.cls-1{fill:#2a64e0;}.cls-2{fill:#1047bc;}.cls-3{fill:#2d66e0;}.cls-4{fill:#2862df;}.cls-5{fill:#2963e0;}.cls-6{fill:#154bbe;}.cls-7{fill:#144abd;}.cls-8{fill:#4f81ef;}.cls-9{fill:#2c65e0;}.cls-10{fill:#1349bd;}.cls-11{fill:#2b65e0;}.cls-12{fill:#739af1;}.cls-13{fill:#88a8f0;}.cls-14{fill:#1a58dd;}.cls-15{fill:#1c59dd;}.cls-16{fill:#0038b7;}.cls-17{fill:#033db9;}.cls-18{fill:#0036b6;}.cls-19{fill:#013bb9;}.cls-20{fill:#8bacf0;}.cls-21{fill:#8aabf0;}.cls-22{fill:#0b42bb;}.cls-23{fill:#2b64e0;}.cls-24{fill:#0840bb;}.cls-25{fill:#93b1f1;}.cls-26{fill:#5082ef;}.cls-27{fill:#98b4f2;}.cls-28{fill:#9bb7f3;}.cls-29{fill:#1248bd;}.cls-30{fill:#154abe;}.cls-31{fill:#94b2f1;}.cls-32{fill:#1a4fbf;}.cls-33{fill:#90aff1;}.cls-34{fill:#91b0f1;}</style></defs><path class="cls-1" d="M509.1,287c0,3.3-2,6-2.6,9.2-1.8,1.1-1.9,3.2-3,4.7s-1.2.8-1.3.6c-3.5-4.7-8.1-2.9-12.7-2.6-9.9.5-19.9-1-29.8-.5-2.9.1-5.7-.1-8,2s-3.8,1-5.7.5c-7.5-1.9-15.3-.8-22.7-1.7-10-1.2-19.7.7-29.6.3s-19.4-1.2-29.2-.5-18.6-1.2-27.9-.6c-1.1.1-2.3-.4-3.4.2s.1,1,.3,1.4,2.2,3.3.2,4.9-3.7,0-5.2-1.3c-3-2.9-5.8-5.9-8.8-8.8s-6.3-6.9-10.1-9.6c-1.5-.7-2.9-.9-4,.7-6.4,7.2-14,13.2-20.9,19.9-1,1-2,1.9-3.4,1.9s-3.4-2.8-2.2-5-.1-3.2-2.4-3.3c-13.9-.4-27.7-2.4-41.6-.2-2.7.4-5.3-.4-7.9-.8-10.5-1.3-20.9-.1-31.3,0-3.5,0-5.8-.8-6.4-4.5s1.5-4.4,2.9-6.3c13.6-19.8,26.6-40,39.9-60.1,1.3-2,2.2-5.1,5.7-4.6,4.8,3.2,10.5,1.7,15.6,2s11.9-1.1,17.8-.7c8.2.6,16.5,0,24.7.2,10.4.3,20.8,1.7,31.2.6,4.4-.5,8.8-.3,12,3.5-3.3-3.6-2.4-7.9-1.5-12.1.1-.7.1-1.3.2-2s.3-3.1,1.6-3.2,1.7,2,2,3.3c-.1,5.3-.7,10.6.8,15.8q5.1,27.9,30.7,39.9c1.9.9,4.2,1.2,5.4,3.3.3.3-.9.9.2,1.1a170.7,170.7,0,0,0,22.5,1.9c.7,0,.9,0,.2-.1s-.4-.5-.4-.9a2.8,2.8,0,0,1,2.8-1.4h1.4c7.6.3,13.7-3.1,19.1-8,2.4-2.6,5-4.9,8.5-6.1,9.9-2.6,20-4.2,30.3-2.3a4.6,4.6,0,0,0,2,.1c11.9-3.2,23.7.3,35.6-.1,2.6-.1,5.4,0,7.2,2.6.8,7.5,0,15.1.4,22.6C508.8,284.3,508.5,285.8,509.1,287Z" transform="translate(-83.2 -106.9)"/><path class="cls-2" d="M402.1,520c-1.7,6.8-5.8,11.3-12.9,12.8-1.8-.6-3.6-.3-5.4-.3H292.4c-1.8,0-3.7.4-5.5-.3l-59.4-59c-1.9-1.9-1.3-3.4.3-5L246.3,450c2.8-.6,4,1.9,5.6,3.4,8.9,8.4,14.1,9,24.3,2.2,7.2-4.8,14.3-9.7,21.6-14.3,1.7-1.1,3.6-3.5,5.7-.5-1.4,3.3-4.9,4.3-7,6.1,11-.1,22.3-1,33.7-.4a299.1,299.1,0,0,0,32.8,0,51.8,51.8,0,0,1,7.9.2c5.6.5,11.2,1,16.9.2s9.2-.5,13.2,2.6a8.2,8.2,0,0,1,.6,3.4c0,21.5.3,43-.1,64.4A5.3,5.3,0,0,0,402.1,520Z" transform="translate(-83.2 -106.9)"/><path class="cls-3" d="M277.4,162.2c8.8-13.4,17-27,26.4-39.9,6.1-8.4,14.5-14.3,25.5-15,1.3.6,2.7.3,4,.3q78.9.2,158,0c1.3,0,2.6.3,3.9-.3,7.4,1.8,12,6.5,13.9,13.9-.7,1.6-.4,3.3-.4,4.9v94c-.3,1.5-1.1,1.4-1.9.3s-1-4.1-1-6.3V172.2c0-6.4-2.3-8.6-8.6-7.7-8.9,1.3-17.9-.5-26.8.4-11.8,1.1-23.5.3-35.2.3-5.3.1-10.6.6-15.9-.2a12.6,12.6,0,0,0-6.6.6c1.4,2,5.5,2.9,3.1,6.6-4.6,2-8.4-1.2-12.6-2-1.8-.9-3.6-.7-5.5-.7-5.1-.5-10,1.6-15.1.6-2.4-.9-6.3-.9-4-5.2-10.4.1-21,.6-31.5-.1a33.3,33.3,0,0,0-5.5.2,124.2,124.2,0,0,1-19.3.8c-12-.7-24.1-.7-36.2-.4C282.8,165.5,279.3,165.9,277.4,162.2Z" transform="translate(-83.2 -106.9)"/><path class="cls-4" d="M303.3,440c-6.1,2-10.7,6.5-16.1,9.8s-9.3,6.4-14.1,9.3c-7,4.1-13.4,3.1-19.9-2.8l-6.9-6.3a9.2,9.2,0,0,0-3-4.5l-22.9-22.7c-1.4-2.2.5-3.4,1.6-4.6q31.6-31.8,63.4-63.4c1.3-1.2,2.5-2.8,4.7-1.9,1.2,2.5-1.6,3.4-2,5.5a17.6,17.6,0,0,0,9.1,0c4.7-1,9.5-1.9,14.3-.2a12.4,12.4,0,0,0,6.9.1,30.2,30.2,0,0,1,8.5-.6c9.4.7,18.8-.5,28.2.8a4.4,4.4,0,0,0,2,.1c13-2.9,26.1.4,39.2-.5,5.3-.4,10.6.7,16,.7,1.6.1,3.5.5,3.9,2.4s-1.4,2.4-2.5,3.3c-3.4,2.7-7.5,4.3-10.4,7.7q0,30.3-.2,60.8v79.3c0,1.9.5,4-.7,5.8a3.3,3.3,0,0,1-1.1-2.7v-4.9c.2-44.2-.7-88.4-.5-132.5-.1-.9-.4-1.6-1.5-1.2s-2.5,1.6-4,1.9A69.1,69.1,0,0,0,379.9,389c-11.4,8.5-23.6,15.9-35.2,24.1s-25.6,16.6-37.8,25.8C305.9,439.7,304.8,440.6,303.3,440Z" transform="translate(-83.2 -106.9)"/><path class="cls-5" d="M403.3,372.2c.6-4,4.7-4.3,7-6.5a27.5,27.5,0,0,1,3.3-2.3c.8-.6,2.5-.7,1.8-2.4s-1.6-.9-2.6-1l-21.2-.5c-7.2-.2-14.3.3-21.4-1.2-2.5-.5-5.3.3-7.8,1-5.5,1.5-10.8-.3-16.1,0-9,.6-18-1.2-26.9.2-3.7.6-7.1.8-10.7-.6s-7.6-.6-10.6.7c-4.6,1.9-8.6-.3-12.9.3.2-3.2,4.5-3.5,4.1-6.9s1.5-3.5,2.7-4.8l15.7-15.8c7-6.8,13.7-14,20.9-20.6,2.9-2.8,2.4-4.2-.2-6.6-5.6-5.2-10.9-10.7-16.3-16.2-1.3-1.4-3.3-2.4-2.8-4.9,2.1-1.1,2.5,1.1,3.3,1.9,5.6,5.3,10.9,10.8,16.4,16.2,1.1,1.1,2.2,3.8,4.3,2s-.8-3-1.7-4.3a30,30,0,0,0-2.1-2.6c8.7,0,17-.6,25.1.3,3.8.4,8.1.9,11.1,0,7.5-2.2,14.6,1.9,22-.1,3.6-1,8.1.2,12.2.2a84.7,84.7,0,0,0,12.3-.4c2.9-.5,6.5-2.6,9.1,1.1a1.4,1.4,0,0,0,1.4.3c5.3-3.3,11.1.8,16.5-1,1.5-.5,2.8,1.4,4.2,1.3,2.9-.3,6.5,3.7,8.9-1.2.3-.5,1.5-.7,2.3-.7,8.8.4,17.6-.7,26.4.6,4,.6,8.4,0,12.5-.7s6.9-1.7,8.2,3.3c.1.7,1.1.4,1.5-.2s1.6,0,1.1,1.1l-.9.9a12.7,12.7,0,0,0-4.1,5.1l-2,1.9a12.4,12.4,0,0,0-5,4.1c-5.8,5.2-12.6,9-19,13.3-22.6,15.2-45.4,30.1-68.1,45.2A8.7,8.7,0,0,1,403.3,372.2Z" transform="translate(-83.2 -106.9)"/><path class="cls-6" d="M237.3,223c-7.2,8.7-12.6,18.7-18.9,28q-12.6,18.5-25,37.1c-8.6-2.7-17.5-1.4-26.2-2.2s-19.6,1.2-29.2-1c-4.7-1.1-9.1,1-13.9.7-10-.7-20,.2-30.1,0-6.4-.1-7.1.7-7.1,7.2-.1,9.6,0,19.3-.1,28.9,0,1.8.2,3.7-.8,5.4s-1.1,1.8-2.1.3V233.6c0-1.9.3-3.7-.4-5.5,1.7-7.6,6.5-12,13.9-13.9a2.7,2.7,0,0,0,1.8.5H233.6c2.1,0,4.3-.3,6.3.9C242.1,219.1,239.7,221.1,237.3,223Z" transform="translate(-83.2 -106.9)"/><path class="cls-7" d="M84.4,328.1c1.6-1.5,1-3.5,1-5.2,0-11.2.1-22.3-.1-33.5,0-4,1.7-5.5,5.3-5.3,5.5.3,11-.8,16.4.7,1.5.4,2.6-.4,3.8-.9s4.7-1.4,7.1.2c.5.3,1.5.9,1.7.8,3.8-3.2,8.5,1.3,12.5-1.5a5.3,5.3,0,0,1,4.3-.2c8.7,3.3,17.8.8,26.5,1.3s16.2,1.5,24.2.6c2.7-.3,5,.3,6.3,3l-3.1,4.9c-.8,1-.4,2.3-1,3.3-7.6,11.1-14.4,22.7-22.8,33.3-1.8,2.5-4.1,2.7-7.3,2.7-10.7-.2-21.4-1.2-32.2-.2-6.9.7-13.8.1-20.8-.3-5.5-.3-11-.9-14.8,4.4-3.2-1.5-5-4.3-7.1-6.8A.9.9,0,0,1,84.4,328.1Z" transform="translate(-83.2 -106.9)"/><path class="cls-8" d="M308.3,333.1c-6.3,6.6-12.6,13.3-19,19.9-3.7,3.6-7.5,7.1-11.1,10.7l-54.4,54.4c-1.4,1.4-3.3,2.4-3.4,4.7l-1.1-.7c-1.1-.7-2.5-.6-3.5-1.6q-10.5-10.2-20.7-20.7a3.5,3.5,0,0,1-1.2-3.6c.5-2.8,2.7-4.5,4.5-6.4,9.8-9.8,19.6-19.5,29.3-29.3,16.3-16.2,32.5-32.6,48.8-48.8a21.4,21.4,0,0,1,5.8-4.6c7-8.1,15.5-14.5,23-22,2-.9,2.4.1,1.8,1.7s-2.2,2.9-3.5,4.2L273,321.7c-1.3,1.2-2.9,2.3-3.7,4.4,6.7.5,13.3-.8,19.9.1s10.2-.2,15.4,0c3.4.1,5.9-1.7,8.6-3.4,1.1-.8,2.7-2.2,3.9-.5s-.9,2.2-1.7,3.1C313.1,328.1,310.2,330,308.3,333.1Z" transform="translate(-83.2 -106.9)"/><path class="cls-9" d="M277.4,162.2c2.3,1.3,4.8,2.3,7.6,1.9,8-1.3,16.1,1,24,.2,11.6-1.2,23.1,1.9,34.7-.9a25.8,25.8,0,0,1,12.6.5c4,1.1,8.2,0,12.1-.3s8.8,1.7,13.5-.4c-4.1,2.8-3.5,4.7.4,6.1-.1,2-1.9,2-3.2,2.3a68.2,68.2,0,0,0-13.8,6.1l-1.3.3a2.3,2.3,0,0,0-2.4,1.4,5.8,5.8,0,0,1-1.1,1.5c-2.2,2.2-4.7,4.2-6.5,6.7a19.4,19.4,0,0,0-2.3,2.6c-5.2,6.5-7.8,14.2-9.2,22.3-.3,1.2-.4,2.6-2.1,2.8-.1-1.1-.2-2.1-.3-3.8-1.3,2.2-.6,3.9-.8,5.6-2.3,0-2.1-1.9-2.3-3.2-.5-3.9-3.1-5.7-6.6-5.3-5.7.6-11.4-.8-17.2,1.2s-11.1-1.4-16.8-.6-12.4-.1-18.6.7-10.8-1.1-16.3-.5-10.7-.4-15,3.9a1.7,1.7,0,0,1-2.3-.2,8.7,8.7,0,0,1,.5-1.9Z" transform="translate(-83.2 -106.9)"/><path class="cls-10" d="M91.4,336.2c-.3-3.4.9-4.7,4.6-5.3,7.9-1.3,15.6.1,23.4.1,5.8,0,11.7-.3,17.5-.7,4-.2,7.9-.7,11.9.4s7-1.2,9.6-.3,5.9.2,8-2.3c1.4,1.9-.1,3.4-.9,4.9s-2.9,4.4-4.4,6.6c-7.3,11-6.7,16.1,2.7,25.6,1.1,1.7,3.7,2.3,3.5,4.9l-17.9,18.1c-1.6.4-2.3,1.7-2.9,3.1s-.8.7-1.1.3c-7.1-7.7-15.4-14.2-22.1-22.2a41.9,41.9,0,0,0-11-11.2Z" transform="translate(-83.2 -106.9)"/><path class="cls-11" d="M244.2,213.1c.5-.1,1.3,0,1.4-.3,3.3-5.7,9-4.4,13.9-4.6s11.1-1.6,16.5.8c1.4.6,2.9-.2,4.3-.9s2.4-1.1,3.3-.9c8.5,2.4,17.4-1.2,25.9,1.8a4.1,4.1,0,0,0,2.9-.1c5.5-3.2,11.5-1.1,17.2-1.6s8.1,1.1,8.7,7.6a8.8,8.8,0,0,0,1,2.2c-2.3,4.2,0,8.6,0,13.5-2.5-5.1-7.3-4.9-10.5-4.5-7.8,1.1-15.4-.4-22.9.1s-13.7-1.5-20.7-.4-13.6,0-20.4-.5c-2.3-.2-4.3.5-6.3.9-5.6,1.1-11-1.1-16.5-.2-2.3.4-3.7-1.1-4.7-3l3-5.9c.5-.5.3-1.1.4-1.6a3,3,0,0,1,1-1.4l1.6-.8Z" transform="translate(-83.2 -106.9)"/><path class="cls-4" d="M167.3,370.1c-1.1-1.6-3.2-2.1-3.9-4.1a13.9,13.9,0,0,0-1.5-1.9c-.9-1.3-3.2-2.1-2.4-3.9s3.4-2.6,5.2-2.2c5,1,9.9-.3,14.8-.8a11,11,0,0,1,5.3,1.1,8.3,8.3,0,0,0,5.8.4c6.5-2,13.1-.7,19.7-.5s10.5-.8,15.5,1.5c.9.5,2,.5,2.6,1.4l-28.6,29.1c-1.9,1.9-3.6,3.9-5.4,5.8s-.8.6-1.2.1A276.3,276.3,0,0,0,167.3,370.1Z" transform="translate(-83.2 -106.9)"/><path class="cls-12" d="M193.2,396.1h1.2c-.1,1.5.9,2.4,1.8,3.4l23.1,22.7c-7.1,5.3-12.8,12.1-19,18.3-2.8,2.9-4.4,2.8-7.1,0-6.3-6.7-12.8-13.1-19.4-19.5-2.2-2-2.5-3.3-.2-5.5C180.3,409.1,186.7,402.6,193.2,396.1Z" transform="translate(-83.2 -106.9)"/><path class="cls-13" d="M188.4,498c1.2.5,1.1,1.6,1.1,2.6,0,9.6-.1,19.3,0,28.9.1,3-1.2,3.6-3.8,3.6H87.2c-3,0-4-1-4-4,.1-32.8.1-65.7.1-98.5,0-2.2,0-3.9,3-3.8,10,.1,20,0,30,0,.9,0,1.7.2,2,1.1a5.4,5.4,0,0,1-1.6,1c-7.6,1.2-15.2.4-22.8.6s-7.9.1-7.9,7.6c-.1,16.6,0,33.2-.1,49.8.2,12.2,0,24.3.1,36.5,0,6.5.3,6.9,6.6,6.9H180c6.3,0,6.6-.4,6.8-6.8.2-8-.7-16,.5-23.9A6.2,6.2,0,0,1,188.4,498Z" transform="translate(-83.2 -106.9)"/><path class="cls-14" d="M508.2,221.1q0-47.1.1-94.2c0-1.9-.7-4,.8-5.7.1,1.6.3,3.3.3,5V281.6c0,1.8-.2,3.6-.3,5.4-1.1-.7-.8-1.9-.9-2.9a3.1,3.1,0,0,1-.4-1.9c.3-18.4-1.7-36.7-1-55C506.9,225.1,506.4,222.8,508.2,221.1Z" transform="translate(-83.2 -106.9)"/><path class="cls-15" d="M495.2,107.3c-1.6,1.4-3.5.8-5.3.8H334.6c-1.8,0-3.7.6-5.3-.8,1.9-.1,3.7-.4,5.5-.4H490.2C491.9,106.9,493.5,107.2,495.2,107.3Z" transform="translate(-83.2 -106.9)"/><path class="cls-16" d="M401.3,374.1c1.7,1.6.9,3.7.9,5.6V512.6c0,1.9.1,3.7.2,5.5l-.3,1.9-.8-1a5.8,5.8,0,0,1-.5-3.4c.7-43.6-1.5-87.2-.9-130.8C399.9,381.2,399.2,377.4,401.3,374.1Z" transform="translate(-83.2 -106.9)"/><path class="cls-17" d="M242.2,214.2l-.8,1c-1.2.7-2.6.4-3.9.4H101.8c-1.5,0-3,.3-4.4-.5v-.9a1,1,0,0,1,.9-.2,8.7,8.7,0,0,1,3.9-.4H237.9C239.3,213.6,240.9,213.2,242.2,214.2Z" transform="translate(-83.2 -106.9)"/><path class="cls-9" d="M242.2,214.2H103.3l-5-.2a6.6,6.6,0,0,1,3.9-.8H243.3Z" transform="translate(-83.2 -106.9)"/><path class="cls-18" d="M286.9,532.1H386c1.1,0,2.3-.2,3.2.8-1.3.1-2.6.4-3.9.4H291C289.6,533.2,288,533.7,286.9,532.1Z" transform="translate(-83.2 -106.9)"/><path class="cls-19" d="M84.4,328.1v1.3c-1.3-.7-1.1-1.9-1.1-3.1,0-32.2,0-64.5.1-96.7a7.7,7.7,0,0,1,.2-1.5c1.6,1.8.9,3.8.9,5.8Z" transform="translate(-83.2 -106.9)"/><path class="cls-20" d="M117.4,428h.9c.1,23.3.2,46.5.2,69.8l-.9.2c-3.3-4.5-1.2-9.7-1.7-14.5-.3-16.6-.1-33.2-.1-49.9C115.8,431.6,115.9,429.6,117.4,428Z" transform="translate(-83.2 -106.9)"/><path class="cls-21" d="M188.4,498a3.1,3.1,0,0,1-.1,1c-1.9,1.7-4.2,1.6-6.5,1.6H125.1c-2.4-.1-5.5.8-6.7-2.6v-.2Z" transform="translate(-83.2 -106.9)"/><path class="cls-22" d="M112.3,358.2a20.2,20.2,0,0,1,11,11.2Z" transform="translate(-83.2 -106.9)"/><path class="cls-23" d="M499.3,307.2c-.2-2.9,1-4.8,4.1-5.1C503.1,304.7,501.2,305.9,499.3,307.2Z" transform="translate(-83.2 -106.9)"/><path class="cls-23" d="M492.3,313.2c.3-3.1,2.1-4.3,5-4.1C496.1,311,495,313.1,492.3,313.2Z" transform="translate(-83.2 -106.9)"/><path class="cls-23" d="M504.3,301.2l-1.1-1.1c.4-1.9.7-3.9,3.3-3.9C506.2,298,505.8,299.9,504.3,301.2Z" transform="translate(-83.2 -106.9)"/><path class="cls-24" d="M146.5,391.3c.3-1.7,0-3.9,2.9-3.1A7.2,7.2,0,0,1,146.5,391.3Z" transform="translate(-83.2 -106.9)"/><path class="cls-25" d="M341.4,212.2a47.3,47.3,0,0,1,9.9-23.2c5.4,5.1,12.3,2.8,18.4,3.5a125.8,125.8,0,0,0,25.3,0c8.4-.8,16.8,1.5,25-1.1a3.6,3.6,0,0,1,2.5-.1c5.4,2.2,10.7,1.2,15.9-.7,3.6,1.1,4.1,4.6,5.6,7.3a50.9,50.9,0,0,1,4.2,10.6c3.6,17.5.8,33.6-10.4,47.9-1.6,1.9-3.2,3.8-5.7,4.6l-6.9,5.7c-5.9,4.7-12.3,7.9-19.9,8.4l-1.1-.2c-6.2.9-12.4.2-18.6.9-2.4-.3-5-.3-7.1-1.8-15.4-5.8-27.3-15.5-33.8-31a35.8,35.8,0,0,1-3.3-11.9C341.2,224.8,341.3,218.5,341.4,212.2Z" transform="translate(-83.2 -106.9)"/><path class="cls-5" d="M228.4,361.1c-3.8,1-7-2.6-10.4-1.9-5.2,1-10.2-.3-15.3-.2-3.5.1-6.9-.5-10.5.8s-6.2,1.6-8.9-.8a1.8,1.8,0,0,0-.9-.4L160.1,360c.2,3,3.9,3.2,3.3,6-9.8-7.7-10.9-15.3-4.3-25.7,2.6-4,6.1-7.4,7.3-12.2L190.3,293c.7,3.1,1.7,4,5.6,4,12.4-.2,25-2,37.3,1,2.2.5,4.2-.7,6.3-.9,13.8-1,27.5.7,41.3,1,3.8.1,1.8,2.1.6,3.4s-3.6,4.4.9,5.6c-4.4,5.6-9.9,10.3-14.9,15.3C254.5,335.4,241.4,348.2,228.4,361.1Z" transform="translate(-83.2 -106.9)"/><path class="cls-9" d="M447.1,208.4c-2.6-6-4.2-12.4-8.8-17.4a5,5,0,0,1-2.2-1.6c-3-3.4-5.9-6.8-9.7-9.4s-5.6-3.3-8.5-4.8c-1.2-.6-2.9-1.1-2.6-3,1.6-3.9-1.7-4-3.8-4.9s-2.5-.8-2.4-2.1,1.9-.7,2.8-1.1c4.1-1.8,8.1,0,12.2-.1,7.7,0,15.9-2.2,23-.2,9.3,2.5,17.8-1.3,26.9-.4,7.2.7,14.9,1.6,22.5-.3s10.7,1.2,10.7,8.8c0,14.7,0,29.4.1,44,0,1.8-.7,3.7.9,5.2v63c-2.1-4.1-.6-8.4-.9-12.6s-.1-7.6-.1-11.4c-1.5-1.6-1.3-3.7-1.3-5.7-.1-5.8-.4-11.6,0-17.4s-1.5-11.8-3.5-17.4c-.7-1.7-1.6-3.1-3.6-2.8s-6.8-.8-9.8,0a30.2,30.2,0,0,1-17.1-.8c-4.4-1.4-8.9.7-13.4.4a2,2,0,0,0-2,1.8,14,14,0,0,1-.9,2.9c-1,2.2-2,5.4-4.9,4.8s-1.3-3.7-1.4-5.7C449.2,216.1,448.9,212.1,447.1,208.4Z" transform="translate(-83.2 -106.9)"/><path class="cls-23" d="M447.1,208.4c.1-.3.1-.8.3-1s.8.4.9.8a51.4,51.4,0,0,1,1.9,17.9c3.4-2.8,5.3-5.5,4.8-8.9s-.3-3.3,2.6-2.6c5.6,1.5,11.5-2.2,17.1.5s9.3.5,14.1.2,8.3-.2,12.5-.1a2.3,2.3,0,0,1,1.6.9c.3,5.2,4.4,9.3,4.4,14.6-.1,9.8-.1,19.6-.1,29.4a143.8,143.8,0,0,0-25.4-1.4c-3.1,0-6.4-1.7-9.2-1-10.5,2.6-21.2,0-31.7,1.3-3,.4-5.5,3.1-8.8,2,11.6-12.3,17.5-26.7,16.1-43.8C448,214.3,447.5,211.3,447.1,208.4Z" transform="translate(-83.2 -106.9)"/><path class="cls-26" d="M308.3,333.1c-.1-3.4,3.2-4.1,4.8-6.2s2.9-2.2,3.8-3.9a7.2,7.2,0,0,0-5.5,2.5c-1.8,1.8-4.2,2.1-6.5,2.1-12,.4-24-1.3-36,.3a2.5,2.5,0,0,1-1.9-.4c-.7-.7-.1-1.5.5-2.1l2.8-2.9q17.3-17.1,34.2-34.3c.5-.5,4.1-1.3.8-3.1.6-3.3,2.5-1.5,4-1,6.9,7.1,13.8,14.3,20.9,21.3,2.4,2.3,3,3.6.2,6.2C322.9,318.6,315.7,325.9,308.3,333.1Z" transform="translate(-83.2 -106.9)"/><path class="cls-5" d="M378.5,274l6.8,1c5.3.3,10.6-.7,15.7.9l2.1.3c-5.3,1.9-22.1,1.2-25.7-1.4C376.8,274.4,378,274.2,378.5,274Z" transform="translate(-83.2 -106.9)"/><path class="cls-27" d="M341.4,212.2a40.3,40.3,0,0,1,0,18.9c-1.8-5.2-1.4-10.5-1-15.8C340.8,214.3,341.1,213.2,341.4,212.2Z" transform="translate(-83.2 -106.9)"/><path class="cls-5" d="M405.3,275.1a72.6,72.6,0,0,0,19.9-8.4C421.1,272,410.1,276.6,405.3,275.1Z" transform="translate(-83.2 -106.9)"/><path class="cls-28" d="M401,275.9c-5.2,0-10.5.6-15.7-.9a41.6,41.6,0,0,1,18.9-.1Z" transform="translate(-83.2 -106.9)"/><path class="cls-29" d="M303.3,440l76-51.9c5.4-3.2,10.3-7.3,16-10.1,1.4-.5,2.2-2.1,4-2s1.4,1,1.4,2c0,23.4.1,46.7,0,70.1,0,.3-.3.6-.4.9-9.7-1.6-19.4.6-29-.4-11.1-1.1-22.1-.2-33.1.2-2.2,0-4.3-.7-6.4-.8-10.1,0-20.1.1-30.2-.1-3.1,0-6.1,1.9-9.5.8C295.3,445,300.3,443.8,303.3,440Z" transform="translate(-83.2 -106.9)"/><path class="cls-30" d="M400.3,449c0-22.4,0-44.9-.1-67.3,0-1.9.8-4-.9-5.7a3.1,3.1,0,0,1,2-1.9V519c-1.7-1.5-1-3.5-1-5.2Z" transform="translate(-83.2 -106.9)"/><path class="cls-31" d="M437.1,189.1l1.2,1.9c-4.6,4-9.6,3.9-14.9,1.6-1.4-.5-2.5,0-3.8.2-5.8,1.2-11.5,1.7-17.3-.1-.3-.1-.7-.4-.9-.3-10.2,4-20.8.2-31.2,1.5-4.2.6-8.6-1.1-13.2,0-2.9.7-4.2-2.7-5.7-4.9l1.9-1.9a14.2,14.2,0,0,0,7.1-7l.9-1.2a3,3,0,0,1,1.1-.6c.8-.1,1.6-.2,2-1,5.2-4.5,11.8-5.8,18-8,5.4,0,10.6-2,16-1.1,1.6,1,3.5-.1,5.1.9l11.9,3.1,11.9,7A33.4,33.4,0,0,0,437.1,189.1Z" transform="translate(-83.2 -106.9)"/><path class="cls-25" d="M403.4,169.1c-1.7-.2-3.6.6-5.1-.9C400.1,168.2,401.9,167.8,403.4,169.1Z" transform="translate(-83.2 -106.9)"/><path class="cls-5" d="M395.3,378c-5.2,3.7-10,7.8-16,10.1C384.2,384,388.9,379.7,395.3,378Z" transform="translate(-83.2 -106.9)"/><path class="cls-32" d="M97.4,215.1h144l-1.1,1.9c-1.6-1.7-3.7-1-5.6-1H103.1C101.2,216.1,99,216.8,97.4,215.1Z" transform="translate(-83.2 -106.9)"/><path class="cls-25" d="M360.3,180.1a7.4,7.4,0,0,1-7.1,7C355,184.1,357.6,182.1,360.3,180.1Z" transform="translate(-83.2 -106.9)"/><path class="cls-25" d="M364.3,177.3c.3.7,1,1.6,0,2s-1.5-.1-2.2-.3.5-1.5,1.4-1.8Z" transform="translate(-83.2 -106.9)"/><path class="cls-3" d="M363.5,177.2l-1.4,1.8h-.9c-.2-.7-.9-1.6.1-2S362.8,177.1,363.5,177.2Z" transform="translate(-83.2 -106.9)"/><path class="cls-33" d="M118.4,498c1.6,1.7,3.7,1,5.6,1h64.3c0,9.5-.1,18.9.1,28.4.1,3.4-.8,4.7-4.4,4.7-31.8-.2-63.5-.2-95.3,0-3.6,0-4.4-1.4-4.4-4.7.2-13.5.1-26.9.1-40.4,3.4-5.5,5-6.2,11.4-4.9,3.8.8,7.6.4,11.4-.1s7.3-1.2,10.2,2C117.9,488.7,116.3,493.5,118.4,498Z" transform="translate(-83.2 -106.9)"/><path class="cls-34" d="M117.4,484a23.2,23.2,0,0,0-11.7-.4c-2.8.6-6.3,1.2-8.7.1-5.5-2.5-8.9.2-12.6,3.3,0-18.1.1-36.1-.1-54.2,0-3.6.9-5,4.7-4.9,9.5.3,18.9.1,28.4.1Z" transform="translate(-83.2 -106.9)"/><path class="cls-25" d="M437.1,189.1c-3.7-.3-9.5-6.1-9.9-9.9A42.3,42.3,0,0,1,437.1,189.1Z" transform="translate(-83.2 -106.9)"/></svg>