<svg xmlns="http://www.w3.org/2000/svg" id="Layer_1" data-name="Layer 1" viewBox="0 0 595.2 508.8"><defs><style>.cls-1{fill:#2495ec;}.cls-2{fill:#6ab7f2;}.cls-3{fill:#67b6f2;}.cls-4{fill:#64b4f1;}.cls-5{fill:#63b4f1;}.cls-6{fill:#62b4f1;}.cls-7{fill:#62b3f1;}.cls-8{fill:#6db8f2;}.cls-9{fill:#a8d5f7;}.cls-10{fill:#69b7f2;}</style></defs><path class="cls-1" d="M325.68,509.29c-.4-.67-1.18-.58-1.76-.88-3.31-1.73-5.38-4.29-5.56-8.14V375.81c0-5.64,2.46-9.17,7.16-10.35a9.23,9.23,0,0,1,11.21,6.69A9.72,9.72,0,0,1,337,374c.14,3.84.06,7.68.06,11.52v58.9a4.43,4.43,0,0,0,2.37-1.14q25.4-16.47,50.76-33c6.65-4.31,14.51-.84,15.23,6.75a8.74,8.74,0,0,1-4.38,8.75c-11.54,7.39-23,14.89-34.5,22.35-2.41,1.56-2.39,1.54-.41,3.76q18.33,20.58,36.65,41.19c2.54,2.86,3.51,6.14,2.09,9.81-1.27,3.29-3.51,5.57-7.23,6-1.05.44-2.23-.2-3.26.38H394a9,9,0,0,1-5.85-3.43c-6.67-7.66-13.52-15.14-20.23-22.76-5.41-6.15-10.93-12.21-16.37-18.33-.35-.39-.77-.73-1.09-1.15-2.54-3.34-2.36-2.85-5.69-.66-1.64,1.07-3.21,2.26-4.91,3.23a4.31,4.31,0,0,0-2.3,4.24c.08,9.78,0,19.56.06,29.33a9.54,9.54,0,0,1-2.94,7.06,6.45,6.45,0,0,1-5.42,2.23c-1,.12-2.1-.26-3.1.24Z" transform="translate(-0.06 -0.49)"/><path class="cls-1" d="M266,509.29c-1.5-1-3.29-.76-4.93-1.12A50.29,50.29,0,0,1,221.55,465c-3-24.11,11.57-47.34,34.75-54.23,17.27-5.13,33.39-2.41,47.53,9.3,4.48,3.71,5.23,9.78,1.84,13.82s-9.17,4.53-13.57,1a34.2,34.2,0,0,0-14.65-7.16c-17.87-3.58-35.85,9.75-37.3,27.87-1.1,13.76,4.4,24.39,16.5,30.87s23.94,5.24,34.84-3.31c4.5-3.53,10.49-3.27,13.83.65,3.51,4.11,2.85,10-1.64,13.84a47.55,47.55,0,0,1-25.47,11.17c-.48.07-1.09-.18-1.38.48h-2.71a15.31,15.31,0,0,0-5.88,0Z" transform="translate(-0.06 -0.49)"/><path class="cls-1" d="M595.22,423.43c-.51.19-.51.71-.7,1.1-2.55,5.26-7,7-12.54,5-10.74-3.94-21.07-3.24-30.57,3.35-8.9,6.16-13.43,14.9-13.56,25.7-.16,13.7,0,27.4-.05,41.1a8.92,8.92,0,0,1-7.63,9.19c-1.19.48-2.51-.19-3.69.4H526c-.44-.83-1.38-.8-2.08-1.19-3.58-2.05-5-5.21-5-9.2V418.47c0-5.93,3.86-10,9.32-10.05s9.37,3.77,9.57,9.71c0,.29.05.58.07.89.91,0,1.38-.65,2-1.06,13.29-9.58,28-11.49,43.66-8,5,1.12,9.42,3.43,11.72,8.47Z" transform="translate(-0.06 -0.49)"/><path class="cls-2" d="M157.86,508.88c2.27.19,4.59-.58,6.82.41h-6.79c-.14-.08-.19-.17-.15-.26S157.82,508.88,157.86,508.88Z" transform="translate(-0.06 -0.49)"/><path class="cls-3" d="M47.09,509.29a9.42,9.42,0,0,1,6.33,0Z" transform="translate(-0.06 -0.49)"/><path class="cls-4" d="M268.24,509.29a8.06,8.06,0,0,1,5.88,0Z" transform="translate(-0.06 -0.49)"/><path class="cls-5" d="M526.48,509.29c1.14-.93,2.46-.28,3.69-.4a.83.83,0,0,1-.07.4Z" transform="translate(-0.06 -0.49)"/><path class="cls-6" d="M329.39,508.9a2.74,2.74,0,0,1-.09.39h-3.17C327.13,508.43,328.29,509,329.39,508.9Z" transform="translate(-0.06 -0.49)"/><path class="cls-7" d="M394.42,509.29c1-.86,2.16-.33,3.26-.38a2.34,2.34,0,0,1-.09.38Z" transform="translate(-0.06 -0.49)"/><path class="cls-8" d="M.06,461.84a2,2,0,0,1,0,2.71Z" transform="translate(-0.06 -0.49)"/><path class="cls-9" d="M157.86,508.88a2.81,2.81,0,0,1,0,.41H155.6a1.34,1.34,0,0,0,0-.4Z" transform="translate(-0.06 -0.49)"/><path class="cls-10" d="M461.35,509.29a1.53,1.53,0,0,1,2.16-.1l.1.1Z" transform="translate(-0.06 -0.49)"/><path class="cls-1" d="M259.62,154.49c49.37,0,98.73.08,148.09-.06A81.17,81.17,0,0,0,440,147.7c1.62-.7,2.31-1.22,1.15-3.2-9.43-16.13-10.49-33.27-5.72-51a85.81,85.81,0,0,1,14.13-29c.65-.88,1.07-1.37,2.3-.7,17.64,9.65,30,23.68,35.83,43.09a58.14,58.14,0,0,1,1.61,7c.21,1.24.65,1.37,1.78,1.2A104.62,104.62,0,0,1,516.51,114a70.6,70.6,0,0,1,21.24,4.93,46.45,46.45,0,0,1,11.41,7.19c1.11.91.63,1.67.34,2.57-4.93,15.34-15,26.4-28.93,34.05-11.86,6.5-24.75,8.73-38.13,8.49a3,3,0,0,0-3.4,2.31c-9.18,23.15-20.21,45.33-35,65.49-28.23,38.47-65.75,63.41-111.45,76.46a276,276,0,0,1-65.43,10.11c-24.42.94-48.62-.58-72.49-6-16.17-3.71-31.7-9.06-45.36-18.82-16.51-11.81-27.84-27.73-36.14-46-7.88-17.31-12.53-35.53-15-54.35A289.44,289.44,0,0,1,96.06,170c-.27-9.68,7.06-15.6,15.47-15.57C160.9,154.58,210.26,154.49,259.62,154.49Z" transform="translate(-0.06 -0.49)"/><path class="cls-1" d="M269.49,103.07h18.74c3.48,0,4.72,1.14,4.73,4.53v33.62c0,3.33-1.19,4.45-4.52,4.46H250.26c-3.29,0-4.5-1.18-4.5-4.49v-33.4c0-3.57,1.21-4.72,4.77-4.72Z" transform="translate(-0.06 -0.49)"/><path class="cls-1" d="M213.29,145.68H194.52c-3.67,0-4.81-1.06-4.81-4.63V107.61c0-3.4,1.23-4.54,4.71-4.54h37.77c3.47,0,4.68,1.13,4.69,4.55v33.67c0,3.2-1.19,4.37-4.37,4.39C226.11,145.7,219.7,145.68,213.29,145.68Z" transform="translate(-0.06 -0.49)"/><path class="cls-1" d="M269.46,51.83h19c3.34,0,4.51,1.1,4.52,4.45q.06,16.92,0,33.84c0,3.1-1.34,4.33-4.48,4.33H250.33c-3.23,0-4.53-1.26-4.54-4.52V56.31c0-3.32,1.2-4.47,4.5-4.48Z" transform="translate(-0.06 -0.49)"/><path class="cls-1" d="M213.45,51.83h18.77c3.53,0,4.66,1.08,4.66,4.55V89.81c0,3.43-1.24,4.65-4.63,4.65h-38c-3.26,0-4.54-1.23-4.55-4.5V56.3c0-3.37,1.17-4.45,4.52-4.46C200.64,51.82,207,51.83,213.45,51.83Z" transform="translate(-0.06 -0.49)"/><path class="cls-1" d="M380.79,103.07h19c3.13,0,4.44,1.22,4.45,4.35v34.12c0,2.89-1.27,4.13-4.16,4.13h-38.9c-2.78,0-4.08-1.17-4.1-4q-.1-17.28,0-34.57c0-2.82,1.43-4,4.29-4.06Q371.06,103.06,380.79,103.07Z" transform="translate(-0.06 -0.49)"/><path class="cls-1" d="M324.76,51.83h19c3.49,0,4.57,1.1,4.57,4.6V89.82c0,3.46-1.16,4.64-4.57,4.64H305.82c-3.4,0-4.56-1.18-4.56-4.64V56.43c0-3.52,1.06-4.59,4.56-4.6Z" transform="translate(-0.06 -0.49)"/><path class="cls-1" d="M324.61,145.68H305.87c-3.55,0-4.64-1.07-4.64-4.52V107.54c0-3.31,1.18-4.47,4.49-4.47h38.16c3.18,0,4.41,1.19,4.42,4.32v34.07c0,3-1.21,4.2-4.27,4.22C337.56,145.7,331.08,145.68,324.61,145.68Z" transform="translate(-0.06 -0.49)"/><path class="cls-1" d="M324.88.5h19c3.2,0,4.42,1.18,4.43,4.31V38.93c0,2.9-1.22,4.16-4.1,4.17H305.32c-2.89,0-4.07-1.25-4.08-4.18V4.81c0-3.14,1.23-4.3,4.43-4.31Q315.26.49,324.88.5Z" transform="translate(-0.06 -0.49)"/><path class="cls-1" d="M157.89,145.69H139.13c-3.5,0-4.63-1.12-4.63-4.58V107.67c0-3.41,1.21-4.59,4.65-4.59H176.9c3.54,0,4.67,1.07,4.68,4.5v33.66c0,3.4-1.06,4.44-4.47,4.45Z" transform="translate(-0.06 -0.49)"/><path class="cls-1" d="M101,387.77V374.22a8.39,8.39,0,0,0-3.12-6.73,9.37,9.37,0,0,0-10.37-1.42c-3.68,1.64-5.27,4.7-5.27,8.7v41.78c0,.79.3,1.65-.38,2.44a7.52,7.52,0,0,1-1-.56c-9.57-7.26-20.33-10.31-32.33-10-22.32.6-42.37,17-47.22,38.78-.38,1.72-.3,3.56-1.23,5.14v9.49a3.45,3.45,0,0,1,0,2.71v.91c.62,1.86.33,3.85.82,5.74,3.83,14.8,12.77,25.5,26,32.87a43.43,43.43,0,0,0,18,5.22h2.26a17.27,17.27,0,0,1,6.33,0h2.33c3-.65,6-1.18,8.89-2A50,50,0,0,0,101,459.82C101.08,435.77,101,411.77,101,387.77ZM82.07,458.89a31.69,31.69,0,1,1,0-.06Z" transform="translate(-0.06 -0.49)"/><path class="cls-1" d="M507.67,447.81c-6.33-28-34.69-44.95-62.52-37.73-17.92,4.65-37.79,23.09-37.27,49.39.45,22.69,15.65,42.54,37.51,48.28,2.14.54,4.47.54,6.47,1.54h9.49a2.44,2.44,0,0,1,2.26,0h.91c.3-.64.9-.41,1.39-.48a48,48,0,0,0,26.28-12.53,9.75,9.75,0,0,0,.79-13.94c-3.64-3.89-9.24-3.87-13.56,0-9.16,8.2-19.73,10-31.16,6.39-9.17-2.86-15.62-9.09-19.36-18-1-2.39-.92-2.5,1.59-2.5h67.83c7,0,10.58-3.58,10.51-10.58A46.58,46.58,0,0,0,507.67,447.81Zm-21.52,1.74-27.77,0h-28c-2.42,0-2.52-.08-1.56-2.38,4.82-11.48,13.63-18.07,25.81-19.57A31.59,31.59,0,0,1,487.8,447C488.8,449.55,488.8,449.55,486.15,449.55Z" transform="translate(-0.06 -0.49)"/><path class="cls-1" d="M211.14,451.15c-.19-1.21-.42-2.42-.7-3.62a50.66,50.66,0,0,0-60.77-38c-20.55,4.58-42.56,25.56-38.46,56.15,3.07,22.78,22,41.23,44.39,43.18a7.28,7.28,0,0,0,2.37.16c2.23.14,4.49-.28,6.71.24H166c.25-.53.75-.4,1.18-.45C195.3,505.82,215.61,479.15,211.14,451.15Zm-50,39.3a31.62,31.62,0,0,1-31.56-31.66c-.11-17.23,14.32-31.63,31.68-31.62a31.64,31.64,0,0,1-.12,63.28Z" transform="translate(-0.06 -0.49)"/></svg>