<svg id="Layer_1" data-name="Layer 1" xmlns="http://www.w3.org/2000/svg" viewBox="0 0 329.05 378.45"><defs><style>.cls-1{fill:#d04d33;}.cls-2{fill:#c22b1a;}.cls-3{fill:#e7402a;}.cls-4{fill:#ec694b;}.cls-5{fill:#9a0b01;}.cls-6{fill:#e2000f;}.cls-7{fill:#200000;}</style></defs><path class="cls-1" d="M176,379.9c-.41-.61-.81-1.22-1.22-1.82a22.33,22.33,0,0,1-.43-5c.08-22.65,0-45.3.06-67.95,0-2.78-.52-5.72,1.58-8.12h1c2.08,2.4,1.53,5.33,1.56,8.1.21,24.24-.34,48.49.32,72.73-.34.95-1.88.78-1.9,2Z" transform="translate(-11.98 -1.46)"/><path class="cls-2" d="M178.9,377.87c-3-.72-1.84-3.19-1.85-4.93q-.11-37.95,0-75.9c15.67-1,31-3.5,45.19-10.68,34.45-17.47,54.72-45.19,59.87-83.64,3.13-23.38-2.24-45.13-13.09-65.75-.08-2.07,1.57-2.85,2.94-3.66q31.41-18.5,63.12-36.48c4.47-2.53,5.34-1.84,5.34,3.42q0,90.41,0,180.8c0,1.31.31,2.67-.43,3.9q-54.87,31.77-109.74,63.52Q204.6,363.23,178.9,377.87Z" transform="translate(-11.98 -1.46)"/><path class="cls-3" d="M176,297.05q0,37.72,0,75.44c0,1.9.74,4.06-1.19,5.59-20.88-11.94-41.8-23.81-62.63-35.83q-49.56-28.59-99-57.34c-.91-1.37-.48-2.92-.48-4.37q0-89.87,0-179.74c0-5.51,1.07-6.33,5.92-3.55,21.2,12.2,42.42,24.37,63.54,36.72a4.93,4.93,0,0,1,2.09,2.08c-3.67,8.85-8.08,17.34-10.55,26.73a106.25,106.25,0,0,0,93,133.37Q171.29,296.59,176,297.05Z" transform="translate(-11.98 -1.46)"/><path class="cls-4" d="M84.15,136.05c-9.23-3.45-17.11-9.36-25.62-14.12-13.59-7.61-27-15.6-40.49-23.36-1.37-.79-2.72-2-4.94-1.6V284.91c-1.78-1.22-.9-3.05-.9-4.56Q12.13,190,12.07,99.63c0-3.11,1-4.68,3.62-6.18Q94.44,48.14,173.07,2.61c2.48-1.44,4.51-1.53,6.85-.27l47.6,27.88c1.86,1.09,3.73,2.15,6.12,3.53-12.91,7.53-25.44,14.87-38,22.16C171.11,70.14,146.5,84.26,122,98.6a105.89,105.89,0,0,0-34.38,32.68C86.55,132.9,85.32,134.45,84.15,136.05Z" transform="translate(-11.98 -1.46)"/><path class="cls-5" d="M177,269.92c-34.65,1.64-69.25-24.69-77.82-59.31-5-20.12-2.91-39.47,6.82-57.87A24.74,24.74,0,0,1,108,150c1.78-.18,3.18.76,4.6,1.6,20.42,12,41,23.67,61.51,35.59,1.9,1.11,3.7,2.25,4.16,4.64.79,10.93.26,21.85.35,32.78.1,12.75,0,25.5,0,38.25C178.58,265.29,178.85,267.85,177,269.92Z" transform="translate(-11.98 -1.46)"/><path class="cls-6" d="M177.08,190.05C153.89,177,130.64,164,108,150c10.46-18.84,26.57-30.75,46.93-36.55,35.46-10.11,72.24,5.28,90.8,37.32-3.09,3.92-7.72,5.62-11.82,8q-25.63,14.84-51.29,29.66C180.9,189.36,179.29,190.75,177.08,190.05Z" transform="translate(-11.98 -1.46)"/><path class="cls-7" d="M177.08,190.05q31.24-18,62.49-36c2-1.16,4.09-2.18,6.13-3.27,14.71,26.66,14.91,53.7-.37,79.76-15,25.64-38.12,39.15-68.32,39.42Q177,230,177.08,190.05Z" transform="translate(-11.98 -1.46)"/><path class="cls-4" d="M340,284.94V101.73c0-5.91-.1-6.06-5.16-3.12-22,12.76-44.23,25-65.81,38.35-16.27-26.74-39.47-44-71-51.23,6.53-3.87,12.4-7.38,18.3-10.83,13.47-7.89,27-15.72,40.41-23.69,2.55-1.51,4.6-1.7,7.27-.14Q301,72.65,338.18,94c2.26,1.3,2.8,2.7,2.8,5.08q-.09,91.17-.08,182.35C340.89,282.6,341.58,284.12,340,284.94Z" transform="translate(-11.98 -1.46)"/></svg>