<svg id="Calque_1" data-name="Calque 1" xmlns="http://www.w3.org/2000/svg" viewBox="0 0 518.6 687.56"><defs><style>.cls-1{fill:#dcf0fe;}.cls-2{fill:#fff6d8;}.cls-3{fill:#ffdec0;}.cls-4{fill:#3f2717;}.cls-5{fill:#f3ba8e;}.cls-6{fill:#288c17;}.cls-7{fill:#dbeffc;}.cls-8{fill:#425e2b;}.cls-9{fill:#354926;}.cls-10{fill:#030202;}.cls-11{fill:#e8c785;}.cls-12{fill:#d2b170;}.cls-13{fill:#b19050;}.cls-14{fill:#fff;}</style></defs><path class="cls-1" d="M165.12,210.54a171.57,171.57,0,0,1,23.5-12.77,199.31,199.31,0,0,1,20.24-7.94,180.47,180.47,0,0,1,27-6.71c4.46-.71,8.92-1.37,13.41-1.92a163.5,163.5,0,0,1,20.51-.89c2.79,0,5.59,0,8.39,0,4,0,7.91.52,11.87.86s7.72.91,11.56,1.51a183.27,183.27,0,0,1,19.55,4.2A205.65,205.65,0,0,1,348,196.2a197.68,197.68,0,0,1,35.75,20.1,155.5,155.5,0,0,1,15.33,12.13c3.72,3.37,7.65,6.53,11.06,10.21,3.72,4,7.5,8,11,12.27a209.57,209.57,0,0,1,13.76,18.6,195.59,195.59,0,0,1,13.16,23.58,186.17,186.17,0,0,1,10.11,26.31A202.58,202.58,0,0,1,464,344c.85,5.17,1.39,10.37,2,15.57.3,2.8,0,5.6.45,8.34a75.56,75.56,0,0,1,.33,13.61c-.13,4-.35,8.09-.77,12.12-.32,3.16-.65,6.31-1,9.47-.69,5.84-1.83,11.6-3.07,17.34-1.47,6.77-3.59,13.36-5.58,20a3.59,3.59,0,0,1-1.68.85A131.81,131.81,0,0,0,435.69,448a4,4,0,0,1-2.53.29,19.11,19.11,0,0,0-7.11.08A34.08,34.08,0,0,0,416.5,452a12.17,12.17,0,0,1-5.28,1.29c-6.61.31-13.19-.39-19.8-.15a105.45,105.45,0,0,0-16.37,1.51c-6.88,1.34-13.74,2.73-20.24,5.42a2.17,2.17,0,0,1-2.79-.46,19.18,19.18,0,0,0-2.75-2.66c-6.79-4.93-13.75-9.53-21.7-12.49-5.5-2-10.2-5.25-13.14-10.58a21.78,21.78,0,0,0-5.44-6c-2.45-2-4.69-4.25-5.88-7.4a56.16,56.16,0,0,0-3.13-7.23,45.65,45.65,0,0,0-9.13-11,50.45,50.45,0,0,1-9.67-12.1,49.46,49.46,0,0,1-4.52-9.49,30.38,30.38,0,0,0-1.19-6.61c-.14-3.53-1.11-6.92-1.77-10.36-1.08-5.67-3.45-10.94-5.25-16.39a111.81,111.81,0,0,0-6.27-14.22c-3.83-7.73-8.28-15.12-12.75-22.49a142.94,142.94,0,0,0-10-14.64c-4.5-5.7-9.33-11.14-14-16.73-5.16-6.22-11.06-11.74-16.73-17.46a72.19,72.19,0,0,0-7.29-6.57c-1.23-.94-2.18-1-3.29-.05-1.71-2.37-3.4-4.75-5.14-7.09-.6-.81-1.2-1.72-2.43-1.65a35,35,0,0,0-7.83-8.6,24,24,0,0,1-6.55-7.83c-1.79-3.64-3.91-7.12-5.76-10.73C168.91,216.23,166.81,213.52,165.12,210.54Z" transform="translate(-45.63 -104.92)"/><path class="cls-2" d="M274,664.85c4.23-.32,8.45.24,12.63.61,5.35.47,10.68.31,16,.28a22.38,22.38,0,0,0,9.06-1.77c1.82-.81,3.62-1.9,3.45-4.11-.17-2.38-2.27-3.51-4.61-3.9-.73-.12-1.43-.33-2.14-.52-4.41-1.21-9-1.87-12.86-4.51-4.2-2.86-4.16-8.92-1.16-12.13,4-4.23,8.88-6,14.27-7,4.52-.86,9.11-1.14,13.7-1.55,8.16-.72,16.31-.4,24.44-.23,4.62.1,9.24.33,13.85.55,2.85.13,5.7,0,8.51.32,3.94.43,7.93.39,11.82,1.27a17.75,17.75,0,0,0,3.1.15c1.64,7,1.81,13.84-2,20.43.52,0,.82.11,1.12.11H408.3c.16,0,.32,0,.48,0,1.42-.1,1.55-.25,1.26-1.56-.1-.46-.26-.91-.37-1.38C408.51,645,391.2,638.13,392,633.19c16.68,2.54,17.69,3.24,18.64,3.39,3.85.63,7.66,1.49,11.52,2.08,5.21.8,10.38,1.82,15.51,3s10.2,2,15.19,3.51c7.14,2.14,14,4.78,20.15,9.14a19.21,19.21,0,0,1,8.22,14.24c.22,2.12.63,4.17,0,6.37-2.15,8.11-6.5,14.13-15,16.26a27.07,27.07,0,0,1-8.26,1,52.44,52.44,0,0,0-9.29.51,10.69,10.69,0,0,0-6.6,3.57c-1.65,1.79-1.67,4.91,0,7.17a28.29,28.29,0,0,0,11.92,10,71.69,71.69,0,0,1,13.41,6.82,21.34,21.34,0,0,1,8.87,13.26,13.41,13.41,0,0,1,.13,4.81c-1.26,8.76-4.84,16.16-11.1,21.82a32.53,32.53,0,0,1-9.51,5.9c-2.8,1.16-5.49,2.53-8.34,3.61-4,1.52-8.12,2-12.28,2.74-4.56.77-9.17.71-13.75,1.26a21.67,21.67,0,0,1-7.61-.21,6,6,0,0,0-1.93-.16c-5.23.43-10.42-.61-15.57-.81-2.33-.09-4.64-.37-6.94-.67-4.88-.65-9.86-.89-14.75-1.48-6.06-.73-12.16-1.14-18.18-2.21-5-.88-10.06-1.38-15.09-2l-14.39-1.87-.59,0a111.37,111.37,0,0,1-12.53-.6c-11.18-.74-22.37.11-33.52-.49-5.9-.32-11.82.08-17.68-.44-7.91-.72-15.8-.32-23.69-.34a22.08,22.08,0,0,0-8.67,1.33,14,14,0,0,0-1.32.54c-2.78,1.54-2.9,2.6-.69,4.84,1.86,1.88,4.32,2.68,6.62,3.75,1.49.69,3,1.23,4.53,1.94a5.79,5.79,0,0,1,2,8.92c-2.67,3.14-6.16,4.75-10,5.83a67.12,67.12,0,0,1-10.09,1.62c-7,.9-14,.56-21,1-6.55.43-13.09.48-19.61.27s-13.23-.29-19.85-.44c-1.81,0-3.64-.7-5.45-.39-4.85.83-9.72.33-14.58.41-3.81.06-7.6-.61-11.4-.85a74.81,74.81,0,0,1-12.2-2,35.61,35.61,0,0,1-12-5.24c-5.83-4-4.63-10.9,0-14a55.21,55.21,0,0,1,6.12-3.26,8.11,8.11,0,0,0,4.38-5.06,5.07,5.07,0,0,0-.53-4.32c-1.74-3.09-4.74-4.47-7.86-5.43-7.76-2.39-15.8-3.45-23.76-5-7.18-1.37-14.38-3.11-20.45-7.53a25.43,25.43,0,0,1-10.08-15,27.18,27.18,0,0,1-.37-8.25,41.34,41.34,0,0,1,4.51-15.23A48.85,48.85,0,0,1,69.8,684.7a51,51,0,0,1,13.87-7.86,187.21,187.21,0,0,1,24.19-7.79,170.45,170.45,0,0,1,17.59-3.37c2.53-.3,5-.9,7.55-1.21,1.89-.23,3.79-.3,5.69-.53,5.23-.64,10.54-.2,15.76-.65,4.76-.42,9.53-.22,14.29-.73,5.61-.59,11.3-.46,16.95-.69,8.54-.35,17.08-.58,25.6-.29,5.42.19,10.87,0,16.25.5,4.55.42,9.08.27,13.62.34,2.31,0,4.56.82,6.89.49.16,1.58.4,3.16.47,4.74a100.65,100.65,0,0,0,1.75,13c.93,5.31,2,10.59,3.09,15.88a4.11,4.11,0,0,0,.13,1.18c.72,1.56.13,2.64-1,3.82A27.67,27.67,0,0,1,243,707.7c-.73.32-1.5.55-2.21.91s-1.46.86-1.22,1.82,1.14,1,2,.91a7.87,7.87,0,0,0,1.37-.4,46.89,46.89,0,0,0,4.77-2.22,6.38,6.38,0,0,1,2.49-1A1.16,1.16,0,0,1,250,709a20.3,20.3,0,0,0-1.58,4.49,2,2,0,0,0,.86,2.47c1,.64,1.84,0,2.47-.81a15.25,15.25,0,0,0,1.13-1.81c.73-1.24,1.41-2.51,2.15-3.73a2,2,0,0,1,2.46-1c1.12.4.56,1.28.37,2a17.25,17.25,0,0,0-.15,4.06,1.32,1.32,0,0,0,1.26,1.47,1.48,1.48,0,0,0,1.78-.84c.39-1,.81-1.91,1.15-2.89.24-.67.31-1.4.55-2.07.75-2.08,1.72-2.3,3.25-.79a17.13,17.13,0,0,1,2.45,3.51c1,1.69,2.28,3.11,4.48,3.1,1.59,0,1.95-.53,1.54-2.08a24.17,24.17,0,0,0-1.73-3.93c-.28-.6-.58-1.24-.11-1.8s1.18-.35,1.8-.22c1,.21,2,.54,3,.68a1.71,1.71,0,0,1,1.73,1.78,8.62,8.62,0,0,0,1.34,4,1.66,1.66,0,0,0,1.59.87,1.94,1.94,0,0,0,1.66-1.21,2.71,2.71,0,0,0-.08-1.88,5.42,5.42,0,0,1-.17-3.06c.51-2.72-.06-3.58-2.51-4.81-2.72-1.36-5.68-2.07-8.4-3.38-2.5-1.2-3.11-2.35-2.43-5a23.05,23.05,0,0,0,.29-4.15,27.77,27.77,0,0,0,.05-3.65c-.12-2.21.54-4.4.57-6.61a45.24,45.24,0,0,1,1.35-9.15C272.71,670.05,272.76,667.3,274,664.85Zm-91.49,33.56a.72.72,0,0,0-.63-.38l-9.91-5.68a4.58,4.58,0,0,0-2-.74,5.94,5.94,0,0,1,.57-3.5,4.37,4.37,0,0,0-.41-4.1c-1.21-2-2.33-4-3.47-6-.29-.49-.54-1-1.16-1.11-1.11-.1-2.14-.74-3.3-.39-2-.24-4,0-5.94-.51a1.85,1.85,0,0,0-2.22,1c-1.64,2.45-3.38,4.84-5.09,7.24a3.25,3.25,0,0,0-.63,1.52c-.33,2.77.36,9.73,0,12.49-1,.18-2.24-4.8-2.58-5.4a2.9,2.9,0,0,0-2.9-1.59c-3.51.11-7,0-10.53,0-.63,0-1.29-.15-1.81.38-1.15,1.07-1.5,2.6-2.28,3.88-.71,3.25-2.5,5.34-2,8.56a74.75,74.75,0,0,1,.2,8.35c0,1.5.39,2.86,2.23,3.13l2.62.14c5.18.23,10.33-.52,15.51-.43,2.57,0,2.57,0,2.56-2.64,0-.08,0-.16,0-.24,1.83,0,3.31,1,5,1.55.7.22.85.87.85,1.56,0,2.71.5,5.39.38,8.11-.09,2.07,0,4.15,0,6.23,0,.81.52.78,1.19,1.39,1.47,1.33,2.56,1.62,4.36,2.56,2,.22,4.55.23,4.55.23l5,1c6.43-.21,12.93,1.15,19.34.38,1.33-.15,3,.54,3.93-.34s.29-2.71.43-4.1a7.36,7.36,0,0,1,.93.21,179.23,179.23,0,0,0,21.89,6.64c.73.18,1.48.72,2.23,0,1.14-.41,1.32-1.54,1.69-2.45,2-4.92,4-9.86,6-14.79.87-2.13,1.59-4.16-.92-6.56a7.93,7.93,0,0,1-2.11-3.82c-1-3.69-3.25-5.05-6.21-5.58-3.85-1.49-7.93-2-11.93-2.8a1.37,1.37,0,0,0-1.49.47c-1.45,1.88-3.49,3.22-4.84,5.19-1.05.08-.64,12.46-1.47,12-2.05-1.07-1.22,4.3-3.25,3.21-.3-.37-6-20-6.35-20.29m226-21.45c2.21,4.79,1.91,9.59.1,14.43a10.81,10.81,0,0,0,3.74.25c3.35,0,6.71-.21,10.05-.12s2.6-.26,2.32-2.7c0-.23-.09-.47-.12-.7a25.8,25.8,0,0,1,.77-12.52c.76-2.13,1.41-4.3,2.2-6.72-1.83,1-2.66,2.42-3.62,3.78s-1.27,3-2.6,4.23c0-6.16,0-6.16-1-7.26-.39,4.73-1.19,7-3.12,8.42a22.38,22.38,0,0,1-2.38-12.4c-1.82,2.13-2,4.7-2.12,7.29a17.24,17.24,0,0,0,1.35,8C417.36,684.48,416.37,682.38,414.52,681ZM159.33,745.28c-3.2,2.28-4.39,5.05-4.28,8.92a26.39,26.39,0,0,0-5.12-5.27c1.18,3,2.38,5.45,2.19,8.23s-1.92,5.11-3.14,7.67c5.6.44,17.63.25,19.24-.3-5-6.72-3.54-14-1.72-21.75-3.58,2.76-5.86,5.76-5.75,10.37C158.88,750.68,158.71,749.76,159.33,745.28Z" transform="translate(-45.63 -104.92)"/><path class="cls-1" d="M239,570.81c-3.61,0-7.08-.94-10.57-1.68a195.88,195.88,0,0,1-24.31-7,171.94,171.94,0,0,1-17.68-7.28,198.45,198.45,0,0,1-27.19-15.51c-5.63-3.9-11-8.07-16.31-12.44a227.4,227.4,0,0,1-17.81-17c-3.15-3.25-6-6.84-8.84-10.34-3.69-4.49-7-9.24-10.27-14.07-2.61-3.9-5-8-7.34-12s-4.37-8-6.29-12.11c-2.62-5.64-5.1-11.33-7.2-17.19a203.65,203.65,0,0,1-7.08-24.28C77,414.77,76,409.63,75.35,404.42c-.6-4.73-1-9.46-1.46-14.21-.73-8.06-.44-16.12-.27-24.17.09-4.24.68-8.53,1.19-12.79a203.78,203.78,0,0,1,5.38-27.81,188.21,188.21,0,0,1,6.46-19.75,169.6,169.6,0,0,1,8.07-18.13,224.68,224.68,0,0,1,14.38-24,2.18,2.18,0,0,1,.89-.76,33.64,33.64,0,0,1,3.92,5.07,74.83,74.83,0,0,1,9,18.14c.71,2,1.21,4.13,2.57,5.86a1.84,1.84,0,0,0,.08,1.6c1.69,3.05,3.36,6.12,5,9.18-.8.79-.61,1.68-.33,2.63a156.91,156.91,0,0,0,8.46,22.09,213,213,0,0,0,17.44,30.78c8.17,11.92,16.94,23.41,25.73,34.87a232.27,232.27,0,0,0,20.68,24.18c1.17,1.15,2.24,1.66,3.76,1a8.91,8.91,0,0,0,.94,3.19,140.64,140.64,0,0,0,9.9,20.17c1.85,3.26,3.48,6.68,5.91,9.56a11.07,11.07,0,0,1,2.45,6.81,64,64,0,0,0,.72,7.85,98.9,98.9,0,0,1,1.14,10,57,57,0,0,0,4.13,17.84,9.83,9.83,0,0,1,1.07,5.34,26.48,26.48,0,0,0,2.85,17.37,18.86,18.86,0,0,1,2.07,5.34A80.77,80.77,0,0,1,239,536.38c0,2.25-.49,4.44-.48,6.68C238.58,552.31,238,561.58,239,570.81Z" transform="translate(-45.63 -104.92)"/><path class="cls-3" d="M562.24,423.53c2.1.5,2.58,1.73,1.24,3.32a13,13,0,0,1-3.94,3.06c-.77.41-1.55.82-2.35,1.19a9.45,9.45,0,0,0-5.12,4.62c-2.51,5.27-7.4,7.73-12.7,9.37-4.42,1.37-8.9,1.05-13.47.64-7-.63-13.86,0-20.18,3.44A135.19,135.19,0,0,1,490,456.41c-7.8,3-15.42,6.54-23.44,9.07A186.59,186.59,0,0,1,446,470.57a10.88,10.88,0,0,0-3.64.9c-3.12,0-6.16.81-9.25.95a16.33,16.33,0,0,0-8.69,2.83,71.31,71.31,0,0,1-14.46,7.36,94.33,94.33,0,0,1-13.56,3.76c-5,1.11-9.93,2.25-15,2.36a4.69,4.69,0,0,0-4.36,2.32,51.45,51.45,0,0,1-4.7,6.62,26.17,26.17,0,0,1-13.35,8.44c-4.81,1.22-9.64,1.94-14.57.51-3.37-1-6.8-1.69-10.16-2.68a4.67,4.67,0,0,0-4.49.78c-1.2.92-2.49,1.72-3.74,2.58-6.27-3.39-12.77-3.61-19.43-1.37a32.17,32.17,0,0,0-17.46,14.2c-3.67,6-5.61,12.49-4.78,19.63.17,1.5.22,3,.32,4.53-2.68,5-6.34,9.16-10.13,13.26a3,3,0,0,0-.72,3.25,96.8,96.8,0,0,1,2.19,12.43c.37,3.63.61,7.28,1.18,10.87.29,1.82.31,3.64.53,5.45a73.41,73.41,0,0,1,.58,15.25,135.74,135.74,0,0,1-3,16.62,31.23,31.23,0,0,0-.83,6.61c0,9.73,0,19.47,0,29.21,0,1.79-.38,3.54-.52,5.31a21.9,21.9,0,0,1-.72,4.27c-.53,1.91-.67,3.91-1.11,5.83a45.24,45.24,0,0,0-1.35,9.15c0,2.23-.7,4.45-.57,6.68a22.34,22.34,0,0,1,0,3.47,25.36,25.36,0,0,1-.3,4.26c-.68,2.62-.07,3.77,2.43,5,2.72,1.31,5.68,2,8.4,3.38,2.45,1.23,3,2.09,2.51,4.81a5.42,5.42,0,0,0,.17,3.06,2.71,2.71,0,0,1,.08,1.88,1.94,1.94,0,0,1-1.66,1.21,1.66,1.66,0,0,1-1.59-.87,8.62,8.62,0,0,1-1.34-4,1.71,1.71,0,0,0-1.73-1.78c-1-.14-2-.47-3-.68-.62-.13-1.33-.33-1.8.22s-.17,1.2.11,1.8a24.17,24.17,0,0,1,1.73,3.93c.41,1.55.05,2.08-1.54,2.08-2.2,0-3.46-1.41-4.48-3.1a17.13,17.13,0,0,0-2.45-3.51c-1.53-1.51-2.5-1.29-3.25.79-.24.67-.31,1.4-.55,2.07-.34,1-.76,1.93-1.15,2.89a1.48,1.48,0,0,1-1.78.84,1.32,1.32,0,0,1-1.26-1.47,17.25,17.25,0,0,1,.15-4.06c.19-.74.75-1.62-.37-2a2,2,0,0,0-2.46,1c-.74,1.22-1.42,2.49-2.15,3.73a15.25,15.25,0,0,1-1.13,1.81c-.63.79-1.45,1.45-2.47.81a2,2,0,0,1-.86-2.47A20.3,20.3,0,0,1,250,709a1.16,1.16,0,0,0,.17-1.26,6.38,6.38,0,0,0-2.49,1,46.89,46.89,0,0,1-4.77,2.22,7.87,7.87,0,0,1-1.37.4c-.81.09-1.71.11-2-.91s.5-1.45,1.22-1.82,1.48-.59,2.21-.91a27.67,27.67,0,0,0,9.52-6.21c1.1-1.18,1.69-2.26,1-3.82a4.11,4.11,0,0,1-.13-1.18c.43-1.24.48-1.14.48-1.76,0-2.07-.35-4.15-.38-6.18-.06-4.44-1.4-8.63-1.89-13-.36-3.15-1-6.3-1-9.47-.17-5.75,0-11.51,0-17.26a14.55,14.55,0,0,1,.06-2.88c1-5.09.83-10.29,1.27-15.44.4-4.68,1-9.31,1.84-13.93a20.66,20.66,0,0,0-.63-11.24,76.57,76.57,0,0,1-4.48-26.94c0-2.79.31-5.57.4-8.34.1-3.12.53-6.2.7-9.3a49.73,49.73,0,0,1,.45-5.7c.56-3.22.52-6.49.8-9.74a61.57,61.57,0,0,0,0-8.15c-.13-2.61-.4-5.23-.77-7.82-.59-4.13-2.37-7.93-3.62-11.87a37.62,37.62,0,0,1-1-19.32c.47-2.26,1-4.5,1.43-6.77.4-2.09.44-4.1-1.25-5.81a8.14,8.14,0,0,1-1.51-3,39,39,0,0,1-2.33-13.81q-.06-7.08,0-14.16a10.89,10.89,0,0,0-1.5-5.46c-1.91-3.41-3.86-6.79-5.91-10.12a117.2,117.2,0,0,1-10.33-21.8,52.56,52.56,0,0,0-3-7.29c.32-.23.62-.5,1-.7,6.92-4,13.81-8,20.77-11.85,9-5,17.91-10.14,27.45-14.06,2.13-.87,4.25-1.78,6.37-2.67a47.2,47.2,0,0,0,4.33,9.14,50.94,50.94,0,0,0,9.65,12.26,45.75,45.75,0,0,1,9.34,11.2,56.16,56.16,0,0,1,3.13,7.23,17.76,17.76,0,0,0,5.73,7.28,32,32,0,0,1,6,6.73c3,4.95,7.51,8,12.78,9.94,7.95,3,14.91,7.56,21.7,12.49a19.18,19.18,0,0,1,2.75,2.66,2.17,2.17,0,0,0,2.79.46c6.5-2.69,13.36-4.08,20.24-5.42a105.45,105.45,0,0,1,16.37-1.51c6.74-.25,13.45.49,20.18.13a12.73,12.73,0,0,0,5.19-1.42,33.09,33.09,0,0,1,9.26-3.53,19.11,19.11,0,0,1,7.11-.08,4,4,0,0,0,2.53-.29,131.81,131.81,0,0,1,18.89-6.73,3.59,3.59,0,0,0,1.68-.85c2.25,0,4.38-.76,6.57-1.13,6-1,12-2.13,18-3.27,5.23-1,10.43-2.11,15.66-3.09,3.35-.63,6.76-.89,10.09-1.67a9.36,9.36,0,0,0,4.9-2.77c3.55-3.84,8.17-5.38,13.22-5.89,3.95-.41,7.88-.72,11.56-2.54,2.78-1.36,5.77-2.29,8.66-3.43a7.11,7.11,0,0,1,3.54-.23c1.22.16,1.52,1.08.78,2.1s-1.8,1.58-2.39,2.65l-.54.52c-.19.09-.22.16-.08.18s.07-.1.1-.16l.52-.54c2.49-.22,4.62-1.54,6.93-2.31,1.75-.59,3.35-1.18,4.57.81a.77.77,0,0,0,1,.3,3.08,3.08,0,0,1,.92-.22c.91,0,2-.39,2.6.64s.1,2-.74,2.71a.88.88,0,0,0-.91,1m-304.84-2.32a.77.77,0,0,0-.65.69,3,3,0,0,0,.3,2.09c1.85,2.73,2.76,5.92,4.31,8.8,3.42,6.31,6.88,12.6,10.17,19,3.58,6.94,6.54,14.19,10.31,21,.35.64.54,1.77,1.62,1.26.9-.43.65-1.34.32-2.11-.09-.22-.2-.44-.31-.65q-3.48-7-6.79-14c-5.56-11.85-12.44-23-18.09-34.82a4.79,4.79,0,0,0-.62-1C256.87,421.81,256.59,421.78,256.43,421.71Zm18.13,92a9.54,9.54,0,0,1,4.49.64,3.82,3.82,0,0,0,.91.28c.4.06.84.05,1.05-.36a1,1,0,0,0-.39-1.25,2.83,2.83,0,0,0-.83-.46c-2.51-.74-5-1.71-7.68-.91-1.05.31-2.16.5-3.24.79a24.57,24.57,0,0,1-10.14.49c-2.63-.38-5.09-1.25-7.65-1.82a6,6,0,0,0-1.63-.26,1.17,1.17,0,0,0-1.15.72c-.18.55.22.91.66,1.13a8,8,0,0,0,1.34.5c1.45.41,2.91.8,4.37,1.17,5.16,1.29,10.33,1.67,15.46-.13A11.4,11.4,0,0,1,274.56,513.73Zm43-24.17c0,.64,0,1,.08,1.28a.81.81,0,0,0,.77.77.86.86,0,0,0,1.05-.73c0-.23,0-.48.06-.71.45-2.33,1.52-4.16,3.87-5a31.25,31.25,0,0,1,3.31-1.37,16,16,0,0,0,10.74-8.8c.47-.92,1.06-1.78,1.53-2.7a1.09,1.09,0,0,0-.22-1.52,1.25,1.25,0,0,0-1.7.39,5.35,5.35,0,0,0-.59,1,23.35,23.35,0,0,1-2.65,4.26c-1.72,2.36-3.83,4.34-6.81,5a22.29,22.29,0,0,0-5.9,2.55C318.81,485.19,318.11,487.49,317.6,489.56Zm-44.94-.29h3.23c.54,0,1.23.07,1.33-.66s-.49-1.07-1.17-1.25a10.84,10.84,0,0,0-4.23-.46c-3.29.47-6.6.7-9.9,1l-4.48.44a1.09,1.09,0,0,0-1.12,1.26,1,1,0,0,0,1.36,1c1.71-.51,3.48-.22,5.19-.5A47.86,47.86,0,0,1,272.66,489.27Zm40.58-33.41a.9.9,0,0,0-1.33-.82,3.6,3.6,0,0,0-1.06,1c-1.94,2.75-4.64,4.83-6.59,7.56-1.43,2-3,4-3.34,6.52-.11.75-.12,1.54.81,1.71.7.13.9-.52,1-1.08.84-3.39,3-5.91,5.43-8.28a42.64,42.64,0,0,0,4.44-5.31C312.92,456.74,313.28,456.39,313.24,455.86Z" transform="translate(-45.63 -104.92)"/><path class="cls-3" d="M87,159.14c.58,3.53,1,7.17,2.94,10.25s2.56,6.44,3.29,9.86A23.67,23.67,0,0,0,97,188.7c5.1,6.91,10.09,13.9,15.13,20.85A208.44,208.44,0,0,1,125.72,230c1.51,2.7,3.51,6.71,6,10.55.74,1.09-.51-.79,0,0a72,72,0,0,1,7.87,16.86,18.32,18.32,0,0,0,6.32,9.38,23.78,23.78,0,0,1,5.47,5.94l-6.88,5.56c-6.06,4.93-12.52,9.31-19,13.63-1.36-1.73-1.86-3.84-2.57-5.86a74.83,74.83,0,0,0-9-18.14c-1.21-1.75-2.06-2.52-3.92-5.07-1.38-2.34-1.91-3.44-2.86-5.11a132.83,132.83,0,0,1-8-16.52c-3.35-8.33-7-16.55-10.26-24.89-1.68-4.22-2.87-8.62-4.44-12.88a137,137,0,0,0-7.2-16.66,28.36,28.36,0,0,0-3-3.73,31.13,31.13,0,0,1-4.48-8.66c-1.18-3.38-2.31-6.79-3.69-10.09a55.05,55.05,0,0,0-6.33-10.4,83.58,83.58,0,0,1-5-7.62c-.2-.36-.5-.59-.46-1,0-.06-.15-.32-.15-.32l-1.36-2.23h0c-1-1.54-.34-2-1.48-2.68a11.58,11.58,0,0,1-5.16-4.7c-1-1.71-.8-2.67.74-4.1a3.36,3.36,0,0,0,.78-1.43c.24-.67.47-1.43,1.25-1.65s.69-.64.58-1.25A2.14,2.14,0,0,1,51,124.23a1.23,1.23,0,0,0,.91-.94c.7-2.49,1.11-2.77,3.8-2.91.11.18-.51.23,0,0,.12,0,.22.11,0,0a10.83,10.83,0,0,1-1-4.84A6,6,0,0,1,58.23,111a2.14,2.14,0,0,1,1.61.14,14.2,14.2,0,0,1,2.63,1.62c.1.22.19.25.23.08s-.11-.09-.17-.13c-.1-.47-.18-.94-.29-1.4a4.71,4.71,0,0,1,2-5.4c1.33-.86,3.8-.51,5.32.77.36.3.7.64,1,.94.21-.12.4-.17.44-.27,1.18-2.91,2.58-3.18,4.62-.87.42.48.76,1,1.14,1.52.73,0,.5-.69.77-1,1.08-1.32,2.63-1.47,3.64-.1.85,1.16,1.44,2.18,3.16,1.24.64-.35,1.5.37,2,1.08.35.53.62,1.11.91,1.64.22,0,.43.06.49,0,2-2.11,3.28-1.92,4.31.69.7,1.77,1.17,3.63,2.66,5a2,2,0,0,1,.46,1.08c.64,2.84,2.13,5.32,3.42,7.87a90.06,90.06,0,0,1,5.16,13.85c.63,2.05,1.3,4.1,2,6.14a4,4,0,0,0,1.61,2,10.23,10.23,0,0,1,4.23,5.89c1.06,4.3,3.61,7.77,6.33,11.13a70.48,70.48,0,0,0,8.42,9.43c4.65,4,9,8.36,13.81,12.12,2.76,2.14,5.25,4.64,8,6.82a131.41,131.41,0,0,1,11.69,11.31c1.93,2,3.56,4.27,5.32,6.42,1.69,3,3.79,5.69,5.36,8.76,1.85,3.61,4,7.09,5.76,10.73a24,24,0,0,0,6.55,7.83,35,35,0,0,1,7.83,8.6,5.44,5.44,0,0,1-1.59,1.75,121.48,121.48,0,0,1-19.44,12.87c-1.49.75-2.92,1.61-4.38,2.41a2.35,2.35,0,0,1-.62-1,47.34,47.34,0,0,0-14.06-20.06c-1-.85-2-1.71-2.91-2.64-3-3.12-5.93-6.37-8.89-9.57-1.82-2.51-3.68-5-5.45-7.54-6.08-8.74-10.64-18.34-15.71-27.65-4.58-8.42-8.95-17-15.22-24.29A58.5,58.5,0,0,0,93,162.42,18.41,18.41,0,0,1,87,156.27m17.65-6.65a.48.48,0,0,0-.08-.16s-.08,0-.12,0l.21.2c.06,1.4.55,2.74.52,4.18a4.84,4.84,0,0,1-2.36,4.29c-1.76,1.21-3.5,1.06-5.36.65a.67.67,0,0,0-.07-.17s-.09,0-.13,0l.2.2a5.48,5.48,0,0,0,7.26.17C107.35,156.62,107.31,152.34,104.67,149.62ZM69.54,121.79c-1-.66-1.28-1.8-2-2.65-.38-.45-.67-1.09-1.59-.89.48,2.21,2,3.73,3.19,5.48-.37,0-.8-.11-1.17.35a24.77,24.77,0,0,1,3.88,5c1,2,.54,4.13.74,6.29,1.06-.3.7-1.45,1.49-1.66a9.5,9.5,0,0,1,.71,1.64c1.48,5.85,5.37,10.39,8.63,15.26,1.69,3.07,2.3,5.85,3.3,7.34.45.68.11-1.66.27-1.73-2.65-6.14-6.41-17.73-10.61-23a4.43,4.43,0,0,0,2.94-.77c-.53-.13-1-.26-1.45-.34A7.31,7.31,0,0,1,72.5,128a21.54,21.54,0,0,1-1.87-5.14C70.47,122.16,70.2,121.82,69.54,121.79Z" transform="translate(-45.63 -104.92)"/><path class="cls-1" d="M325.94,507.3c1.25-.86,2.54-1.66,3.74-2.58a4.67,4.67,0,0,1,4.49-.78c3.36,1,6.79,1.7,10.16,2.68,4.93,1.43,9.76.71,14.57-.51a26.17,26.17,0,0,0,13.35-8.44,51.45,51.45,0,0,0,4.7-6.62,4.69,4.69,0,0,1,4.36-2.32c5.11-.11,10.08-1.25,15-2.36a94.33,94.33,0,0,0,13.56-3.76,71.31,71.31,0,0,0,14.46-7.36,16.33,16.33,0,0,1,8.69-2.83c3.09-.14,6.13-1,9.25-.95-3.32,7-7.84,13.29-12.19,19.67q-2.89,4.23-6.19,8.17c-2.12,2.57-4.16,5.22-6.37,7.72a164.85,164.85,0,0,1-12.44,12.91,221.84,221.84,0,0,1-21.46,17.43A200,200,0,0,1,354,554.74a195,195,0,0,1-18.76,7.72,6.87,6.87,0,0,1-3.25.68,10.08,10.08,0,0,0,2.58-6,9.46,9.46,0,0,1,1-3.68,51.57,51.57,0,0,0,5.65-17.17,2,2,0,0,0,2.58-1.54,12.46,12.46,0,0,0-.28-8.13,3.19,3.19,0,0,0-3.26-2.28c-.21-.43-.4-.86-.61-1.29C336.53,516.51,332.5,510.8,325.94,507.3Z" transform="translate(-45.63 -104.92)"/><path class="cls-4" d="M325.94,507.3c6.56,3.5,10.59,9.21,13.68,15.73.21.43.4.86.6,1.29,1.22,3.91,1.18,7.93,1,11.95a51.57,51.57,0,0,1-5.65,17.17,9.46,9.46,0,0,0-1,3.68,10.08,10.08,0,0,1-2.58,6h0c-.17.1-.4.33-.6.44-.36.15-.74.27-1.09.45-3.6,1.9-4.81,4.48-4,8.45.12.61.65,1.14.32,1.82-2-.51-3.16-2.62-4.45-8.11-.75.78-.4,1.8-.64,2.69-.4,1.5-.58,3.16-2.41,3.75a3.3,3.3,0,0,0,.12-.38c0-.15,0-.16.08-.31l.05-.18c.21-.89.3-1.21.45-1.9.44-1.5-.21-2.65-1.07-4-1.54,1.85-2.4,3.9-4.11,5.2a10.69,10.69,0,0,1-5.33,2.52c-.57.13-1.32-.09-1.22-.21a5.79,5.79,0,0,0,.79-.9,6.49,6.49,0,0,0,1.58-3.27,1.36,1.36,0,0,0-1.15-1.76,4.37,4.37,0,0,0-5.13,2.72l-.08.17-.16.37a1.87,1.87,0,0,0,.26,1.47s0,0,0,0-.06-.08,0,0c.3,1,1.09,1.59,1.95,2.75a8,8,0,0,1-5.31-3.36,3.12,3.12,0,0,1-.42-.81,3.61,3.61,0,0,0-1.78-1.87,6.93,6.93,0,0,1-3.45-4.41,10.24,10.24,0,0,0-1.75-3.25,48.56,48.56,0,0,1-8.84-17c-.1-1.51-.15-3-.32-4.53-.83-7.14,1.11-13.64,4.78-19.63a32.17,32.17,0,0,1,17.46-14.2C313.17,503.69,319.67,503.91,325.94,507.3Z" transform="translate(-45.63 -104.92)"/><path class="cls-5" d="M221.11,410a52.56,52.56,0,0,1,3,7.29,117.2,117.2,0,0,0,10.33,21.8c2,3.33,4,6.71,5.91,10.12a10.89,10.89,0,0,1,1.5,5.46q-.08,7.08,0,14.16a39,39,0,0,0,2.33,13.81,8.14,8.14,0,0,0,1.51,3c1.69,1.71,1.65,3.72,1.25,5.81-.42,2.27-1,4.51-1.43,6.77a37.62,37.62,0,0,0,1,19.32c1.25,3.94,3,7.74,3.62,11.87.37,2.59.64,5.21.77,7.82a61.57,61.57,0,0,1,0,8.15c-.28,3.25-.24,6.52-.8,9.74a49.73,49.73,0,0,0-.45,5.7c-.17,3.1-.6,6.18-.7,9.3-.09,2.77-.39,5.55-.4,8.34A76.57,76.57,0,0,0,253,605.36a20.66,20.66,0,0,1,.63,11.24c-.83,4.62-1.44,9.25-1.84,13.93-.44,5.15-.24,10.35-1.27,15.44a14.55,14.55,0,0,0-.06,2.88c0,5.75-.14,11.51,0,17.26.09,3.17.69,6.32,1,9.47.49,4.34,1.83,8.53,1.89,13,0,2,.37,4.11.38,6.18,0,.62.15,1.3-.48,1.76-1-5.29-2.16-10.57-3.09-15.88a100.65,100.65,0,0,1-1.75-13c-.07-1.58-.31-3.16-.47-4.74,0-5.18,0-10.36.1-15.55.06-7.39.5-14.77,1-22.13.21-2.76.48-5.55.64-8.31a49.13,49.13,0,0,0-.87-10.38c-.78-5.11-2.7-9.79-4.46-14.57A94.37,94.37,0,0,1,239,570.81a24,24,0,0,0-.22-2.4c-1-9.24-.23-16.1-.29-25.35,0-2.24.49-4.43.48-6.68a80.77,80.77,0,0,0-1.51-14.72,18.86,18.86,0,0,0-2.07-5.34A26.48,26.48,0,0,1,232.57,499a9.83,9.83,0,0,0-1.07-5.34,57,57,0,0,1-4.13-17.84,98.9,98.9,0,0,0-1.14-10,64,64,0,0,1-.72-7.85,11.07,11.07,0,0,0-2.45-6.81c-2.43-2.88-4.06-6.3-5.91-9.56a140.64,140.64,0,0,1-9.9-20.17,8.91,8.91,0,0,1-.94-3.19C211.1,415.24,216.07,412.55,221.11,410Z" transform="translate(-45.63 -104.92)"/><path class="cls-6" d="M408.92,635.18a38.07,38.07,0,0,0,.75,14.69c.11.47.27.92.37,1.38.29,1.31.16,1.46-1.26,1.56-.16,0-.32,0-.48,0H383.19c-.3,0-.6-.06-1.12-.11,3.62-6.3,3.62-12.85,2.18-19.51a14.45,14.45,0,0,1-.26-1.85,15.13,15.13,0,0,0-2.21-7,3.18,3.18,0,0,1,1.59.55l.15.16a1.82,1.82,0,0,1,.32.4,16.48,16.48,0,0,1,2.38,4.83c.32.8.68,1.59,1,2.39a8.07,8.07,0,0,0,1.95,3.37c1.51,1.6,1.7,1.29,3.44,1.36a4.91,4.91,0,0,1-.59-2.89,9.53,9.53,0,0,1,.55-3.39,3.92,3.92,0,0,1,1.39-1.89c.55,2.44,1.09,4.79,3.43,6.75-1-6.64-.19-12.42,4.64-17a42.49,42.49,0,0,0-.85,13.05,14.94,14.94,0,0,0,1.05,5.09c4.62-2,5.53-6.63,7.54-10.51C410.15,629.58,408.93,632.33,408.92,635.18Z" transform="translate(-45.63 -104.92)"/><path class="cls-7" d="M284.59,544.29a48.74,48.74,0,0,0,9,17.14,9.65,9.65,0,0,1,1.63,3.15,7,7,0,0,0,3.44,4.35,3.72,3.72,0,0,1,1.95,2.28c-3.69.49-7.39,1.15-11.09,1.48a104,104,0,0,1-13.56.54,96.8,96.8,0,0,0-2.19-12.43,3,3,0,0,1,.72-3.25C278.25,553.45,281.91,549.24,284.59,544.29Z" transform="translate(-45.63 -104.92)"/><path class="cls-3" d="M318.77,572.29a2,2,0,0,1-.14.29l-1.08,1.69c-1.85,2.85-4.26,3.22-6.75.92a5.38,5.38,0,0,1-1.26-1.61,9.86,9.86,0,0,0,5.09-2.47c1.71-1.3,2.57-3.35,4.11-5.2.86,1.31,1.51,2.46,1.07,4a5.69,5.69,0,0,0-.8,1.79l-.08.29A1,1,0,0,1,318.77,572.29Z" transform="translate(-45.63 -104.92)"/><path class="cls-3" d="M304.17,570.21a4.37,4.37,0,0,1,5.13-2.72,1.36,1.36,0,0,1,1.15,1.76,4,4,0,0,1-1.31,2.9C308.67,569.24,307.61,569.5,304.17,570.21Z" transform="translate(-45.63 -104.92)"/><path class="cls-2" d="M392,633.19c.23,1.4-.23,2.86.67,4.23-1.74-.07-1.93.24-3.44-1.36a8.07,8.07,0,0,1-1.95-3.37A16.67,16.67,0,0,0,392,633.19Z" transform="translate(-45.63 -104.92)"/><path class="cls-5" d="M52.72,142.58c2.64,2.17,3.27,2.87,5.22,3.24a4.46,4.46,0,0,1-2.85,0,1.72,1.72,0,0,1-1-.61A9.15,9.15,0,0,1,52.72,142.58Z" transform="translate(-45.63 -104.92)"/><path class="cls-5" d="M51.39,140c.26.15.66.21.85.7a10.59,10.59,0,0,0,1.89,3.07c.22.23-1.06-.82-1.06-.46C52.52,142.28,51.49,141.19,51.39,140Z" transform="translate(-45.63 -104.92)"/><path class="cls-5" d="M561.27,424a.88.88,0,0,1,.91-1l.06.46a1.07,1.07,0,0,1-1,.49Z" transform="translate(-45.63 -104.92)"/><path class="cls-8" d="M198.19,255.2c1.11-.94,2.06-.89,3.29.05a72.19,72.19,0,0,1,7.29,6.57c5.67,5.72,11.57,11.24,16.73,17.46,4.63,5.59,9.46,11,14,16.73a142.94,142.94,0,0,1,10,14.64c4.47,7.37,8.92,14.76,12.75,22.49a111.81,111.81,0,0,1,6.27,14.22c1.8,5.45,4.17,10.72,5.25,16.39.66,3.44,1.63,6.83,1.77,10.36a7.63,7.63,0,0,0-2.11.3,118.11,118.11,0,0,0-19.8,8.36c-6.58,3.59-13.3,6.91-19.88,10.5-4.62,2.53-9.37,4.8-13.91,7.48-2.77,1.63-3.1,1.55-5.52-.73l-.85-.85c-5-5-10-10.07-14.62-15.46-3-3.5-5.94-7.06-8.9-10.6-5-6-9.79-12.31-14.75-18.42-4.85-6-8.68-12.57-12.52-19.18-2.56-4.41-5-8.86-7.49-13.33-3.15-5.75-6-11.62-8.79-17.56-1.17-2.5-3-4.58-4.27-7.09,2.53-1.78,3.63-2.66,5.25-3.95,4.16-3.32,8.5-6.43,12-10.5,1.62-1.35,1.65-1.37,2.93.09,1.47,1.68,2.94,3.37,4.33,5.12q12.81,16.15,25.57,32.34a16.35,16.35,0,0,0,3.34,3.22,7.4,7.4,0,0,0-1.16-3c-3.79-7-7.55-14.08-11.45-21-4.48-8-9.06-16-12.75-24.4a2.08,2.08,0,0,1,.17-2.4c2.8-.46,5.25-1.85,7.68-3.16a102.29,102.29,0,0,0,14.47-9.69C194.44,258.61,196.74,257.39,198.19,255.2Zm57.49,90.94c0-.64-.45-1.15-.91-1.1a6.68,6.68,0,0,0-1.38.36,100.83,100.83,0,0,0-22.92,11.67,7.31,7.31,0,0,0-1.2,1.16.9.9,0,0,0-.21,1.09,1,1,0,0,0,1.27.32,5,5,0,0,0,1.42-.86,24.64,24.64,0,0,1,3.77-2.5,114.51,114.51,0,0,1,11.15-5.95,76.38,76.38,0,0,1,7.73-3.16C255,347,255.67,346.81,255.68,346.14Z" transform="translate(-45.63 -104.92)"/><path class="cls-9" d="M142.39,297.31c1.16,2.28,2.77,4.81,3.94,7.31,2.76,5.94,5.64,11.81,8.79,17.56,2.45,4.47,4.93,8.92,7.49,13.33,3.84,6.61,7.67,13.22,12.52,19.18,5,6.11,9.7,12.39,14.75,18.42,3,3.54,5.89,7.1,8.9,10.6,4.64,5.39,9.61,10.44,14.62,15.46l.85.85c2.42,2.28,2.75,2.36,5.52.73,4.54-2.68,9.29-4.95,13.91-7.48,6.58-3.59,13.3-6.91,19.88-10.5a118.11,118.11,0,0,1,19.8-8.36,7.63,7.63,0,0,1,2.11-.3,30.38,30.38,0,0,1,1.19,6.61c-2.12.89-4.24,1.8-6.37,2.67-9.54,3.92-18.46,9.06-27.45,14.06-7,3.88-15.66,9.34-22.58,13.3-.34.19.31-.24,0,0-5,2.54-9.16,4.49-13.95,7.48-1.52.65-2.59.14-3.76-1A232.27,232.27,0,0,1,181.87,393c-8.79-11.46-17.56-23-25.73-34.87a213,213,0,0,1-17.44-30.78,156.91,156.91,0,0,1-8.46-22.09c-.28-.95-.47-1.84.33-2.63,2.3,0,4-1.41,5.89-2.38A42.15,42.15,0,0,1,142.39,297.31Z" transform="translate(-45.63 -104.92)"/><path class="cls-10" d="M198.19,255.2c-1.45,2.19-3.75,3.41-5.75,5A102.29,102.29,0,0,1,178,269.85c-2.43,1.31-4.88,2.7-7.68,3.16-1.63-2.64-3.25-5.28-4.9-7.91a2.21,2.21,0,0,1-.18-1.61c1.46-.8,2.89-1.66,4.38-2.41A121.48,121.48,0,0,0,189,248.21a5.44,5.44,0,0,0,1.59-1.75c1.23-.07,1.83.84,2.43,1.65C194.79,250.45,196.48,252.83,198.19,255.2Z" transform="translate(-45.63 -104.92)"/><path class="cls-11" d="M160.79,735.85s-.25-7.49-.36-10.83c-.14-4.07-.1-7.33-.12-11.4a12,12,0,0,1,2.24-7.62,54,54,0,0,1,3.16-5.06c.8-1.59,1.81-2.49,3.55-2.44s5,0,5,0l7.61-.11h.61a27.34,27.34,0,0,1,4.71.12l2.05,3a11.76,11.76,0,0,1,1.11,1.53s2,4.08,3,6c.49.94,1.11,2.63,1.11,2.63a39.63,39.63,0,0,0-.23,4.47s.15,3.74.16,5.84c0,2.38,0,4.76,0,7.14l0,1.8.11,4.48" transform="translate(-45.63 -104.92)"/><path class="cls-12" d="M169.48,698.46a4,4,0,0,0-3.77,2.48,33.47,33.47,0,0,1-3.16,5.06,12,12,0,0,0-2.24,7.62c0,4.07,0,6.34.12,10.41.11,3.33.36,11.82.36,11.82s-3.29-2.92-4.76-4.26l-.49-.57c0-2.07-.13-5.36,0-7.43.12-2.72-.41-5.4-.38-8.11,0-.69-.15-1.34-.85-1.56-1.67-.5-7-2.65-7-2.65h0q-4.57-1.74-9.13-3.55a2.64,2.64,0,0,1-1.69-3,15.37,15.37,0,0,1,.41-1.62c.63-2.41,1.84-3.05,4.24-2.36s7.64,1.85,7.64,1.85,5.36,1.14,8,2a2.12,2.12,0,0,0,.94,0,1.33,1.33,0,0,0,1.18-1c.19-.76-.49-.92-1-1.1a76.32,76.32,0,0,0-9-3c-.17-1.94-1.48-3.55-1.54-5.51.34-2.77.69-5.53,1-8.3a3.25,3.25,0,0,1,.63-1.52c1.71-2.4,3.45-4.79,5.09-7.24a1.85,1.85,0,0,1,2.22-1c1.95.56,4,.27,5.94.5.15.37.26.76.44,1.1,1.11,2.1,2.25,4.19,3.37,6.29a5.67,5.67,0,0,1,.53,4.76c-.65,1.86-1.17,3.77-1.73,5.66a12.28,12.28,0,0,0-.86,3.94,15,15,0,0,0,3.58.19" transform="translate(-45.63 -104.92)"/><path class="cls-12" d="M221.29,713.51c.41,1,1.08,2,.65,3.18-1.23,3.53-2.3,7.12-3.83,10.55a23,23,0,0,0-2.24,6.28c-1.54-.31-3.08-.64-4.62-.93-3.1-.58-6-1.81-9.18-2.24-2.56-.36-5-1.54-7.67-1.18,0-2.38,0-4.76,0-7.14,0-2.1.89-4,1.51-5.92,3.24,1.13,6,3.16,9.07,4.7,1.75.88,3,.91,4.77-1.11a4.44,4.44,0,0,0-1.26-6.79c-1.59-.9-3.24-1.69-4.78-2.65s-3.23-.89-4.23-2.32c1.36-2,3.56-3.76,5-5.64a1.37,1.37,0,0,1,1.49-.47c4,.81,8.08,1.31,11.93,2.8" transform="translate(-45.63 -104.92)"/><path class="cls-11" d="M148.7,702.59s-5.12-1.13-7.64-1.85-3.61,0-4.24,2.36a15.37,15.37,0,0,0-.41,1.62,2.64,2.64,0,0,0,1.69,3q4.54,1.81,9.13,3.55c-.14,0,2.08.83,2.08.83s0,.43,0,.51c0,2.63,0,2.68-2.56,2.64-5.18-.09-10.33.66-15.51.43l-2.62-.14c-.51-3.38-.29-6.79-.48-10.17-.24-4.22-.7-6.85,2.49-11.87.16-.27-.13-.53-.06-.83s.44-.71.1-.95a1.93,1.93,0,0,1,1.64-.48c3.51,0,7,.07,10.53,0a2.9,2.9,0,0,1,2.9,1.59c.34.6,1.17,2.39,1.17,2.38a11.14,11.14,0,0,1,1.92,4.33C148.8,700.43,148.72,701.66,148.7,702.59Z" transform="translate(-45.63 -104.92)"/><path class="cls-6" d="M414.52,681c1.85,1.39,2.84,3.49,5.54,4a17.24,17.24,0,0,1-1.35-8c.14-2.59.3-5.16,2.12-7.29a22.38,22.38,0,0,0,2.38,12.4c1.93-1.46,2.73-3.69,3.12-8.42,1,1.1,1,1.1,1,7.26,1.33-1.27,1.68-2.93,2.6-4.23s1.79-2.82,3.62-3.78c-.79,2.42-1.44,4.59-2.2,6.72a25.8,25.8,0,0,0-.77,12.52c0,.23.1.47.12.7.2,1.38.34,2.68.34,2.68s-1,.07-2.66,0c-3.34-.09-6.7.1-10.05.12a10.81,10.81,0,0,1-3.74-.25C416.43,690.58,416.73,685.78,414.52,681Z" transform="translate(-45.63 -104.92)"/><path class="cls-6" d="M159.33,745.28c-.62,4.48-.45,5.4,1.42,7.87-.11-4.61,2.17-7.61,5.75-10.37-1.82,7.72-3.3,15,1.72,21.75-1.61.55-13.64.74-19.24.3,1.22-2.56,3-4.83,3.14-7.67s-1-5.23-2.19-8.23a26.39,26.39,0,0,1,5.12,5.27C154.94,750.33,156.13,747.56,159.33,745.28Z" transform="translate(-45.63 -104.92)"/><path class="cls-11" d="M215.87,733.52a23,23,0,0,1,2.24-6.28c1.53-3.43,2.6-7,3.83-10.55.43-1.23-.24-2.18-.65-3.18-1-2.36-2.39-6.54-3.41-8.88h0c2.45.44,4.43,1.45,5.59,3.87a77.93,77.93,0,0,0,3.83,6.86c1.13,1.85.52,3.51-.18,5.23-2,4.93-4,9.87-6,14.79-.37.91-.55,2-1.69,2.45C218.26,736.37,216.75,735.21,215.87,733.52Z" transform="translate(-45.63 -104.92)"/><path class="cls-13" d="M199.45,707.94s2.84,1.45,4.23,2.32,3.19,1.75,4.78,2.65a4.44,4.44,0,0,1,1.26,6.79c-1.74,2-3,2-4.77,1.11-3-1.54-7.57-4.25-10.82-5.38a39,39,0,0,1,0-4.13s.15-.38-1.22-2.52c-1-2-2.79-5.85-2.79-5.85,2,1.1,4.79,2.44,6.83,3.51C197.83,706.87,199.45,707.94,199.45,707.94Z" transform="translate(-45.63 -104.92)"/><path class="cls-11" d="M167.51,698.43a15,15,0,0,1-3.58-.19,12.28,12.28,0,0,1,.86-3.94c.56-1.89,1.08-3.8,1.73-5.66a5.67,5.67,0,0,0-.53-4.76c-1.12-2.1-2.26-4.19-3.37-6.29-.18-.34-.29-.73-.44-1.1,1.16-.34,2.19.3,3.3.4.62.06.87.62,1.16,1.11,1.14,2,2.26,4,3.47,6a4.37,4.37,0,0,1,.41,4.1,5.94,5.94,0,0,0-.57,3.5C168.3,693.58,167.89,696,167.51,698.43Z" transform="translate(-45.63 -104.92)"/><path class="cls-13" d="M215.87,733.52c.88,1.69,2.39,2.85,3.55,4.31-.75.71-1.5.17-2.23,0a179.23,179.23,0,0,1-21.89-6.64,7.36,7.36,0,0,0-.93-.21l0-1.8c2.67-.36,5.11.82,7.67,1.18,3.14.43,6.08,1.66,9.18,2.24C212.79,732.88,214.33,733.21,215.87,733.52Z" transform="translate(-45.63 -104.92)"/><path class="cls-13" d="M167.51,698.43c.38-2.43.79-4.85,2.44-6.82a4.58,4.58,0,0,1,2,.74l9.91,5.68c0,.13,0,.25,0,.38l-7.61.11Z" transform="translate(-45.63 -104.92)"/><path class="cls-12" d="M130.66,691.62c.34.24.68-.67.57-.23a6.07,6.07,0,0,1-.61,2.11c-1,1.71-1.6,4.2-2.29,6-.5,1.27-.2,5.92-.2,5.92.19,3.38,0,6.79.48,10.17l-2.12-1.49c-.08-2.78-.38-10.39-.38-10.39-.11-3.57.34-4.17.34-4.17a42.47,42.47,0,0,1,1.76-4C129,694.22,129.51,692.68,130.66,691.62Z" transform="translate(-45.63 -104.92)"/><path class="cls-12" d="M181.87,698.41c0-.13,0-.25,0-.38a.72.72,0,0,1,.63.38Z" transform="translate(-45.63 -104.92)"/><path class="cls-10" d="M142.39,297.31c-2.22,1.25-4,2-5.93,3s-3.59,2.42-5.89,2.38c-1.67-3.06-3.34-6.13-5-9.18a1.84,1.84,0,0,1-.08-1.6c6.5-4.32,13-8.7,19-13.63l6.87-5.56c1,.12,1.4.91,1.89,1.63,2,2.93,4,5.83,6.07,8.75-3.5,4.07-7.84,7.18-12,10.5A55.86,55.86,0,0,1,142.39,297.31Z" transform="translate(-45.63 -104.92)"/><path class="cls-5" d="M256.43,421.71c.16.07.44.1.57.25a4.79,4.79,0,0,1,.62,1c5.65,11.81,12.53,23,18.09,34.82q3.32,7.05,6.79,14c.11.21.22.43.31.65.33.77.58,1.68-.32,2.11-1.08.51-1.27-.62-1.62-1.26-3.77-6.85-6.73-14.1-10.31-21-3.29-6.37-6.75-12.66-10.17-19-1.55-2.88-2.46-6.07-4.31-8.8a3,3,0,0,1-.3-2.09A.77.77,0,0,1,256.43,421.71Z" transform="translate(-45.63 -104.92)"/><path class="cls-5" d="M274.56,513.73a11.4,11.4,0,0,0-4.43.53c-5.13,1.8-10.3,1.42-15.46.13-1.46-.37-2.92-.76-4.37-1.17a8,8,0,0,1-1.34-.5c-.44-.22-.84-.58-.66-1.13a1.17,1.17,0,0,1,1.15-.72,6,6,0,0,1,1.63.26c2.56.57,5,1.44,7.65,1.82a24.57,24.57,0,0,0,10.14-.49c1.08-.29,2.19-.48,3.24-.79,2.73-.8,5.17.17,7.68.91a2.83,2.83,0,0,1,.83.46,1,1,0,0,1,.39,1.25c-.21.41-.65.42-1.05.36a3.82,3.82,0,0,1-.91-.28A9.54,9.54,0,0,0,274.56,513.73Z" transform="translate(-45.63 -104.92)"/><path class="cls-5" d="M317.6,489.56c.51-2.07,1.21-4.37,3.54-5.61a22.29,22.29,0,0,1,5.9-2.55c3-.63,5.09-2.61,6.81-5a23.35,23.35,0,0,0,2.65-4.26,5.35,5.35,0,0,1,.59-1,1.25,1.25,0,0,1,1.7-.39,1.09,1.09,0,0,1,.22,1.52c-.47.92-1.06,1.78-1.53,2.7a16,16,0,0,1-10.74,8.8,31.25,31.25,0,0,0-3.31,1.37c-2.35.88-3.42,2.71-3.87,5,0,.23,0,.48-.06.71a.86.86,0,0,1-1.05.73.81.81,0,0,1-.77-.77C317.63,490.53,317.64,490.2,317.6,489.56Z" transform="translate(-45.63 -104.92)"/><path class="cls-5" d="M272.66,489.27a47.86,47.86,0,0,0-9.79.85c-1.71.28-3.48,0-5.19.5a1,1,0,0,1-1.36-1,1.09,1.09,0,0,1,1.12-1.26l4.48-.44c3.3-.33,6.61-.56,9.9-1a10.84,10.84,0,0,1,4.23.46c.68.18,1.27.48,1.17,1.25s-.79.65-1.33.66Z" transform="translate(-45.63 -104.92)"/><path class="cls-5" d="M313.24,455.86c0,.53-.32.88-.6,1.26a42.64,42.64,0,0,1-4.44,5.31c-2.41,2.37-4.59,4.89-5.43,8.28-.14.56-.34,1.21-1,1.08-.93-.17-.92-1-.81-1.71.37-2.55,1.91-4.51,3.34-6.52,1.95-2.73,4.65-4.81,6.59-7.56a3.6,3.6,0,0,1,1.06-1A.9.9,0,0,1,313.24,455.86Z" transform="translate(-45.63 -104.92)"/><path class="cls-5" d="M530,427.1a105.76,105.76,0,0,1,14.6-4.29C539.9,425.16,534.49,426.19,530,427.1Z" transform="translate(-45.63 -104.92)"/><path class="cls-5" d="M552.57,424.39c-2.58,1.52-16,6.56-16.14,5.42C539.44,428.55,549.76,425.13,552.57,424.39Z" transform="translate(-45.63 -104.92)"/><path class="cls-5" d="M537.15,434.19a95.09,95.09,0,0,1,10.17-3C545.64,432.52,539.86,434.12,537.15,434.19Z" transform="translate(-45.63 -104.92)"/><path class="cls-5" d="M539.2,429a13.82,13.82,0,0,1-5.93,1.78A16.55,16.55,0,0,1,539.2,429Z" transform="translate(-45.63 -104.92)"/><path class="cls-5" d="M544.83,432c1-1,6.71-2.3,7.82-2.81C548.78,431.61,544.74,432.36,544.83,432Z" transform="translate(-45.63 -104.92)"/><path class="cls-5" d="M559.83,425a3,3,0,0,1-2.56,1.63,2.6,2.6,0,0,1,2.55-1.64Z" transform="translate(-45.63 -104.92)"/><path class="cls-5" d="M554.07,428.34c.43-.85,2.84-2,4.2-2.29-.82,1.21-5.8,3.59-6.73,3.56Z" transform="translate(-45.63 -104.92)"/><path class="cls-5" d="M554.08,428.34c-.23,1.18-4.07,2.37-5.3,2.41.67-1,6-3.2,6.85-3.35Z" transform="translate(-45.63 -104.92)"/><path class="cls-5" d="M548.38,425.91c.14-.19,4-1.81,4.18-2s2-1.28,2.19-.91-1.57,1.38-1.9,1.43-3.89,1.63-4.12,1.64Z" transform="translate(-45.63 -104.92)"/><path class="cls-5" d="M561.26,424a1.47,1.47,0,0,1-1.43,1h0c.06-1,.75-1,1.45-1Z" transform="translate(-45.63 -104.92)"/><path class="cls-5" d="M555.51,422.58a3.36,3.36,0,0,1-.41.56c-.23.22-.57.43-.76.06s.14-.54.47-.58.47,0,.7,0Z" transform="translate(-45.63 -104.92)"/><path class="cls-5" d="M554.69,422.87c0-.63,1.17-1.21,1.78-1.24h0c0,.63-1.36,1.65-2,1.68Z" transform="translate(-45.63 -104.92)"/><path class="cls-5" d="M545.34,422.56a21.67,21.67,0,0,1-3.92,1.46c-.21-.56,4.67-2.06,4.84-2.18Z" transform="translate(-45.63 -104.92)"/><path class="cls-5" d="M555.43,422.07a3.63,3.63,0,0,1,2-.92h0a6.08,6.08,0,0,1-2.3,1.67Z" transform="translate(-45.63 -104.92)"/><path class="cls-5" d="M552.15,424.5l-.2.21s0-.11,0-.13a.89.89,0,0,1,.17-.08Z" transform="translate(-45.63 -104.92)"/><path class="cls-5" d="M545,422.59c0-.07.09-.2.11-.2s.12.11-.12.19Z" transform="translate(-45.63 -104.92)"/><path class="cls-5" d="M546.36,421.68c0,.06-.07.16-.1.16s-.11-.09.08-.18Z" transform="translate(-45.63 -104.92)"/><path class="cls-14" d="M546.88,421.14l-.52.54,0,0Z" transform="translate(-45.63 -104.92)"/><path class="cls-5" d="M557.43,421.15l.19-.2s0,.09,0,.12a.59.59,0,0,1-.16.07Z" transform="translate(-45.63 -104.92)"/><path class="cls-7" d="M159.31,283.08c-2-2.92-4.06-5.82-6.07-8.75-.49-.72-.89-1.51-1.89-1.63a23.55,23.55,0,0,0-5.46-5.94,18.32,18.32,0,0,1-6.32-9.38,72,72,0,0,0-7.87-16.86,6.43,6.43,0,0,1-1.16-2.61,8.88,8.88,0,0,0,2.1-1.86c2-1.94,3.89-4.06,6.09-5.83,2.75,3,5.45,6,8.26,8.91,1.49,1.55,3.15,2.92,4.75,4.36a47.17,47.17,0,0,1,12.85,19,2.35,2.35,0,0,0,.62,1,2.21,2.21,0,0,0,.18,1.61c1.65,2.63,3.27,5.27,4.9,7.91a2.08,2.08,0,0,0-.17,2.4c3.69,8.43,8.27,16.39,12.75,24.4,3.9,7,7.66,14,11.45,21a7.4,7.4,0,0,1,1.16,3,16.35,16.35,0,0,1-3.34-3.22q-12.78-16.19-25.57-32.34c-1.39-1.75-2.86-3.44-4.33-5.12C161,281.71,160.93,281.73,159.31,283.08Z" transform="translate(-45.63 -104.92)"/><path class="cls-14" d="M138.73,230.22c-2.2,1.77-4,3.89-6.09,5.83a8.88,8.88,0,0,1-2.1,1.86,58.32,58.32,0,0,1-4.82-7.94,208.44,208.44,0,0,0-13.64-20.42c-5-7-10-13.94-15.13-20.85a23.67,23.67,0,0,1-3.75-9.45c-.73-3.42-1.35-6.81-3.29-9.86s-2.36-6.72-2.94-10.25c-.94-2.46-.74-2.12-.53-3.28h0c.19.13.46.23.56.42,2,3.56,5.14,5.74,8.52,7.82,2.58,1.58,4.53,4,6.52,6.31,6.42,7.41,10.86,16.08,15.51,24.63,5.07,9.31,9.63,18.91,15.71,27.65C135.05,225.23,136.91,227.71,138.73,230.22Z" transform="translate(-45.63 -104.92)"/><path class="cls-5" d="M74.11,133.76a2.22,2.22,0,0,1-1.49,1.66c-.2-2.16.27-4.34-.74-6.29a24.77,24.77,0,0,0-3.88-5c.37-.46,1.21-.42,1.59-.47.8-.52-.09-1.16,0-1.82.66,0,.93.37,1.09,1A21.54,21.54,0,0,0,72.5,128a7.31,7.31,0,0,0,5.4,4.22c.46.08.92.21,1.45.34a4.43,4.43,0,0,1-2.94.77c-.68-.26-1.16-.9-1.93-1" transform="translate(-45.63 -104.92)"/><path class="cls-5" d="M97.48,158.74c1.86.41,3.6.56,5.36-.65a4.84,4.84,0,0,0,2.36-4.29c0-1.44-.46-2.78-.52-4.18h0c2.64,2.72,2.68,7,.07,9.28a5.48,5.48,0,0,1-7.26-.17Z" transform="translate(-45.63 -104.92)"/><path class="cls-5" d="M72.54,165.93c1,0,1.75.71,2.6,1.07,3.25,1.38,7-1.31,7-5.48,0-.68-.15-1.36-.26-2.29a5.88,5.88,0,0,1-.06,7.21c-1.6,2.23-3.41,2.86-6,1.89-1.26-.48-2.91-.59-3.23-2.4Z" transform="translate(-45.63 -104.92)"/><path class="cls-2" d="M62.53,112.69c.06,0,.18.1.17.13s-.13.14-.23-.08Z" transform="translate(-45.63 -104.92)"/><path class="cls-5" d="M97.48,158.73l-.2-.2s.1,0,.13,0a.67.67,0,0,1,.07.17Z" transform="translate(-45.63 -104.92)"/><path class="cls-5" d="M104.68,149.62l-.21-.2s.1,0,.12,0a.48.48,0,0,1,.08.16Z" transform="translate(-45.63 -104.92)"/><path class="cls-3" d="M341.19,536.27c.21-4,.25-8-1-11.95a3.19,3.19,0,0,1,3.27,2.28,12.46,12.46,0,0,1,.28,8.13A2,2,0,0,1,341.19,536.27Z" transform="translate(-45.63 -104.92)"/><path class="cls-9" d="M255.68,346.14c0,.67-.72.85-1.28,1a76.38,76.38,0,0,0-7.73,3.16,114.51,114.51,0,0,0-11.15,5.95,24.64,24.64,0,0,0-3.77,2.5,5,5,0,0,1-1.42.86,1,1,0,0,1-1.27-.32.9.9,0,0,1,.21-1.09,7.31,7.31,0,0,1,1.2-1.16,100.83,100.83,0,0,1,22.92-11.67,6.68,6.68,0,0,1,1.38-.36C255.23,345,255.67,345.5,255.68,346.14Z" transform="translate(-45.63 -104.92)"/><path class="cls-2" d="M148.76,702.28l.06-2.78a78.26,78.26,0,0,1,9,3c.48.18,1.16.34,1,1.1a1.33,1.33,0,0,1-1.18,1,2.12,2.12,0,0,1-.94,0C154.06,703.73,151.24,703.56,148.76,702.28Z" transform="translate(-45.63 -104.92)"/></svg>