<svg id="Layer_1" data-name="Layer 1" xmlns="http://www.w3.org/2000/svg" viewBox="0 0 368.79 357.69"><defs><style>.cls-1{fill:#53819d;}.cls-2{fill:#53829d;}.cls-3{fill:#e56f04;}.cls-4{fill:#e56f03;}.cls-5{fill:#e46f05;}.cls-6{fill:#55819b;}.cls-7{fill:#54819d;}.cls-8{fill:#54829c;}.cls-9{fill:#56819a;}.cls-10{fill:#5a8199;}.cls-11{fill:#56829d;}.cls-12{fill:#7f9baa;}.cls-13{fill:#cb833a;}.cls-14{fill:#9badb5;}.cls-15{fill:#c57f36;}.cls-16{fill:#acb8bd;}.cls-17{fill:#8da3b0;}.cls-18{fill:#e66f03;}</style></defs><path class="cls-1" d="M405.59,539.91c-15.75,0-30.39.12-45-.09-3.73-.06-5.17,1-5.83,4.77-1.68,9.46-4.05,18.8-5.74,28.26-.69,3.9-2.27,5.41-6.18,4.9a28.6,28.6,0,0,0-7,0c-4.13.48-4.27-1.68-3.6-4.76,5-23,9.84-46,14.88-69.05,2.79-12.7,10.69-19,23.68-19.07,14.81-.08,29.62.09,44.43-.1,3.6,0,4.13,1.21,3.54,4.31-2.09,11-2,11-13.13,11-10.31,0-20.63,0-30.95,0-8.71,0-10.71,1.68-12.59,10.16-.83,3.73-1.3,7.55-2.34,11.21-.9,3.13.27,3.62,3,3.58,9.32-.12,18.64.12,28-.14a7.28,7.28,0,0,1,7,3.57C400.11,532,402.58,535.52,405.59,539.91Z" transform="translate(-100.36 -243.73)"/><path class="cls-2" d="M469.15,509.61c-10.1,10.59-19.15,20.32-28.52,29.74-2.85,2.87-3.42,4.74-.83,8.26,7,9.48,13.41,19.33,20.75,30h-17c-1.7,0-2-1.55-2.74-2.58-4.12-5.85-8.32-11.63-12.19-17.64-1.71-2.66-2.83-2.48-4.76-.39-5.41,5.87-11,11.54-16.39,17.45-2,2.26-4.11,3.46-7.29,3.29-5.23-.27-10.5-.07-17.08-.07,6.7-7,12.47-13.12,18.26-19.19,4.36-4.58,8.59-9.29,13.17-13.63,2.67-2.53,2.45-4.53.52-7.27-6.31-8.93-12.46-18-19.06-27.55,6-.89,11.32-.46,16.66-.31,1.68.05,2.34,1.75,3.17,3,3.32,4.77,6.66,9.54,9.83,14.41,1.61,2.47,2.79,3.24,5.14.58,4.62-5.23,9.66-10.08,14.35-15.26a7.62,7.62,0,0,1,6.46-2.89C457.07,509.75,462.53,509.61,469.15,509.61Z" transform="translate(-100.36 -243.73)"/><path class="cls-3" d="M233.41,560.78c5-7.56,6.28-16.11,8.45-24.29a147.87,147.87,0,0,0,4.4-22.42c.34-3.32,1.56-5.15,5.63-5.05,10,.24,10.09,0,8.13,9.77a273.7,273.7,0,0,1-17.45,55.29c-1.23,2.84-2.74,3.92-5.88,3.95-13.18.1-13.27.24-17.24-12.36-5.52-17.52-10.84-35.1-16.33-52.62-1-3.1-.24-3.92,3.06-4,11.08-.11,11.09-.26,14.27,10.37,3.88,13,8.56,25.73,11.63,39A10.48,10.48,0,0,0,233.41,560.78Z" transform="translate(-100.36 -243.73)"/><path class="cls-4" d="M129,531.09c0,13.63.06,27.27,0,40.91-.08,13.16-6.16,22.7-17.79,28.8-3.81,2-10-1.12-10.81-5.4-.28-1.5.92-1.61,1.65-2.07,9.22-5.83,12.32-14.32,12.21-25-.28-25.77.13-51.55,0-77.33,0-4.56.79-6.52,5.9-6.29,8.94.41,8.95.1,8.95,8.94q0,18.72,0,37.43Z" transform="translate(-100.36 -243.73)"/><path class="cls-5" d="M288.82,358c-8.64-8-17.26-16.07-21.58-27.43-2.82-7.42-1.57-14.37,3.37-20.56,8.37-10.49,19.63-17.72,29.74-26.26,9.11-7.71,17.27-16.18,19.2-28.67.58-3.75.43-7.6.62-11.35,3.51,2.5,5.27,8.76,4.39,15.38-1.79,13.44-9.61,23.4-18.91,32.38-5.46,5.29-11.6,9.87-17,15.18-13.44,13.08-14.48,24.5-4.07,40.21,2.19,3.3,4.42,6.57,6.62,9.86C291.2,358.69,290.11,358.54,288.82,358Z" transform="translate(-100.36 -243.73)"/><path class="cls-4" d="M337.9,291.69c-8.51,5.42-16.91,11-23.7,18.59-6.48,7.21-6.68,13.4-1.18,22.1,2.29,3.63,5,7,7.07,10.77,4.23,7.82-1.08,21.8-9.22,24.75a2.91,2.91,0,0,1-2.32-.2c-.89-.62-.13-1.38.27-2.1,3.32-5.82,1.83-11.11-1.91-16.09-1.39-1.86-3-3.59-4.29-5.48-9.84-13.91-8.21-27.08,4.64-38.3,8.42-7.36,18.24-12.14,28.72-15.74a1.33,1.33,0,0,1,2,.06A1.13,1.13,0,0,1,337.9,291.69Z" transform="translate(-100.36 -243.73)"/><path class="cls-6" d="M241,434.84a49.48,49.48,0,0,0-11.72,4.06c-1.44.76-3.2,1.46-3.25,3.43-.05,2.45,2.24,2.73,3.81,3.32a70.18,70.18,0,0,0,18.46,3.94c35,3.4,69.93,2.78,104.61-3.6,3.72-.68,7.31-2.11,11-3.19,1.19-.54,2.18-.69,2.15,1.12-9.79,6.24-21.05,7.91-32.12,9.75-23.05,3.84-46.34,4.15-69.63,3a327.32,327.32,0,0,1-44-5c-3.29-.61-7.82-.88-8.44-4.93-.57-3.76,3.48-5.31,6.32-6.84a50.82,50.82,0,0,1,19.81-6.23C239.08,433.68,240.72,432.38,241,434.84Z" transform="translate(-100.36 -243.73)"/><path class="cls-7" d="M330.63,427.82c-21.84,8.15-43.71,9.86-66,3.64a22.49,22.49,0,0,1-5.41-2.5c-1.95-1.18-4.26-2.37-4.09-5.14.18-2.93,2.66-3.95,4.88-5.11,1.69-.88,2.64-1.3,3.36,1.36.65,2.44,3.64,2.6,5.88,3,12.84,2,25.82,3,38.57.25C316.13,421.5,323.42,422.1,330.63,427.82Z" transform="translate(-100.36 -243.73)"/><path class="cls-8" d="M258,393.14c-1.35,5.12,1.81,6.28,5.8,6.91a159.16,159.16,0,0,0,56.42-1.49c6.11-1.23,10,1,14.66,4.66-9.23,2.93-18.32,4.34-27.43,5.44-14.56,1.75-29.13,1.84-43.63-.86a36.66,36.66,0,0,1-11.32-3.63c-4.92-2.75-5-5.73-.21-8.82A11.61,11.61,0,0,1,258,393.14Z" transform="translate(-100.36 -243.73)"/><path class="cls-9" d="M260,367.82c-3.53,1.44-7.09,2.81-10.56,4.35-1.46.65-3.45,1.4-3.07,3.4.34,1.83,2.26,2.13,3.92,2.56a54.54,54.54,0,0,0,12.3,1.68c22.62.51,45.17-.16,67.58-3.68a45.28,45.28,0,0,1,6.72-.05c-.63,2.72-2.78,3.22-4.77,3.66-26.52,5.78-53.31,6.63-80.27,4.46-6.14-.49-12.23-1.13-18.05-3.32-1.55-.59-3.31-1-3.52-3-.24-2.2,1.81-2.74,3.14-3.4,7.46-3.69,15.21-6.56,23.54-7.62C258.08,366.66,259.62,365.42,260,367.82Z" transform="translate(-100.36 -243.73)"/><path class="cls-10" d="M256.09,463.79a392.24,392.24,0,0,0,47.87.88c21.89-1.06,43.71-3,64.58-10.56a80.85,80.85,0,0,0,10.3-5.09c-1.16,4.89-4.85,6.61-8.2,8.33-10.05,5.14-21.06,6.85-32.08,8.41-20.51,2.9-41.14,2.46-61.75,1.91a129.63,129.63,0,0,1-24.7-2.91C252.9,462.22,254.63,463.54,256.09,463.79Z" transform="translate(-100.36 -243.73)"/><path class="cls-11" d="M352.62,365.92c8.07-3.06,15.76-3.44,22.39,2.7,5.39,5,6.65,11.88,2.74,18.6-6.47,11.09-17.33,15.65-29.08,18.66,5.17-4,10.83-7.39,15.29-12.29a28.72,28.72,0,0,0,5.39-7.74c4.25-9.84-2-19.62-12.79-19.93C355.25,365.89,353.93,365.92,352.62,365.92Z" transform="translate(-100.36 -243.73)"/><path class="cls-12" d="M366,443.92c-.44-.91-1.3-1-2.15-1.12,1.54-1.82,3.88-3.21,3.11-6.39C371.12,439.4,370.84,441,366,443.92Z" transform="translate(-100.36 -243.73)"/><path class="cls-13" d="M337.9,291.69c0-1.26-.9-1.57-1.92-1.7,2.47-1.63,5.29-2.21,8.45-2.93A16.58,16.58,0,0,1,337.9,291.69Z" transform="translate(-100.36 -243.73)"/><path class="cls-14" d="M256.09,463.79c-1.28.51-2.93-.5-4,1-2.85-.4-5.7-.81-8.12-2.68C248,463.06,252.21,462.13,256.09,463.79Z" transform="translate(-100.36 -243.73)"/><path class="cls-15" d="M288.82,358a2.71,2.71,0,0,0,2.33-1.26,15.6,15.6,0,0,1,3.65,6.79A20.2,20.2,0,0,1,288.82,358Z" transform="translate(-100.36 -243.73)"/><path class="cls-16" d="M241,434.84c-.64-1.4-2.08-.66-3.06-1.14,2.47-1.44,4.88-1,8.5,0A7.78,7.78,0,0,1,241,434.84Z" transform="translate(-100.36 -243.73)"/><path class="cls-17" d="M260,367.82c-.73-1.19-2-.67-3-1,2.56-1.55,5.32-.84,9.49-.91C263.4,367,261.87,368,260,367.82Z" transform="translate(-100.36 -243.73)"/><path class="cls-4" d="M193.79,551.35c0,7.33-.21,14.66.09,22,.14,3.51-.81,5-4.37,4.49-3.18-.43-7.64,1.92-7.67-4.51,0-2.55-2.27-1-3.27-.24a30.38,30.38,0,0,1-15.46,6.28c-6.76.58-13.26-.23-18.51-5.22-7.2-6.85-7.95-25.15,5.81-32.29,7.62-4,15.77-5.17,24.12-4.79,4.74.23,5.69-1.78,5.42-5.82-.59-8.72-4.44-12.45-13.29-12.7a47.4,47.4,0,0,0-17.61,2.65c-2.18.79-4.16,1.13-4.53-1.61-.31-2.38-2.9-5.56,1.42-7.1,9.78-3.48,19.74-5.94,30.2-3.94,12.27,2.34,17.61,8.92,17.64,21.36C193.8,537,193.79,544.2,193.79,551.35Zm-13.92-3.09c0-1.61-.78-2.38-2.44-2.44-5.85-.21-11.66-.13-17.18,2.09-4.86,2-6.67,5.6-6.43,11.66.19,4.81,2.58,7.93,7.08,9,5.9,1.44,10.93-1.13,15.87-4.11,4.28-2.58,2.92-6.58,3.1-9.25C179.87,552.25,179.88,550.25,179.87,548.26Z" transform="translate(-100.36 -243.73)"/><path class="cls-18" d="M322,549.89c0,7.66-.18,15.32.07,23,.13,3.74-.71,5.42-4.85,5-3.23-.31-6.63.77-6.8-4.43-.08-2.46-1.92-1.49-3.21-.52a32.61,32.61,0,0,1-14.91,6.35,25.69,25.69,0,0,1-15.47-2.45c-6.83-3.37-8.74-9.6-8.79-16.61C268,552,271.69,545.8,278.8,541.9c7.62-4.18,16-5.28,24.57-4.88,3.64.17,4.85-.78,4.77-4.64-.19-10.12-3.53-13.63-13.79-13.86a52.17,52.17,0,0,0-17.15,2.71c-2,.64-3.84,1-4.06-1.69-.18-2.27-3.21-5.22.89-6.81,11.85-4.58,23.93-7,36.42-2.75A17.32,17.32,0,0,1,322,526.41c.08,7.82,0,15.65,0,23.48Zm-13.92-1.35c.09-1.8-.35-2.74-2.43-2.76-5.66,0-11.3-.11-16.67,2a11.14,11.14,0,0,0-6.85,12.9c1.1,5.57,5,8.56,11.05,8.51,9.5-.08,14.79-5.31,14.87-14.68C308.06,552.52,308,550.52,308.09,548.54Z" transform="translate(-100.36 -243.73)"/></svg>