<?xml version="1.0" encoding="utf-8"?>
<!-- Generator: Adobe Illustrator 26.0.2, SVG Export Plug-In . SVG Version: 6.00 Build 0)  -->
<svg version="1.1" id="Calque_1" xmlns="http://www.w3.org/2000/svg" xmlns:xlink="http://www.w3.org/1999/xlink" x="0px" y="0px"
	 viewBox="0 0 60.1 60.1" style="enable-background:new 0 0 60.1 60.1;" xml:space="preserve">
<style type="text/css">
	.st0{fill:#191E25;}
	.st1{fill:#FDCF18;}
</style>
<g id="Calque_2_00000145753402451613718900000016162100036658132632_">
	<g id="Calque_1-2">
		<path class="st0" d="M14.2,0H46c7.8,0,14.2,6.3,14.2,14.2V46c0,7.8-6.3,14.2-14.2,14.2H14.2C6.3,60.1,0,53.8,0,46V14.2
			C0,6.3,6.3,0,14.2,0z"/>
		<path class="st1" d="M39.3,51.8c0,0-2.6-29.2-28.8-43.6c1.4,4.8,2.2,9.8,2.6,14.8c0.7,8.9-0.1,13.1-0.1,13.1S32.3,34.9,39.3,51.8z
			"/>
		<path class="st1" d="M30.8,25.3c0,0,7.8,11.7,8.8,23.9c0-1,0.1-1.9,0.3-2.9c0.1-0.4,0.7-3.3,0.9-3.7c1.9-5,4.2-7.1,8.9-11.2
			c0,0-5.5-5.9-6.5-22.9C43.2,8.4,33,12.3,30.8,25.3z"/>
		<path class="st1" d="M20.9,37.9c0,0,7.4,2.2,11,5.5C31.9,43.4,23.2,45.3,20.9,37.9z"/>
		<path class="st1" d="M42.7,40.3c0,0,2.8-4.5,4.6-5.1C47.2,35.2,47.1,41.3,42.7,40.3z"/>
		<path class="st1" d="M14.6,44.3l-1.9-6c-0.1,3.7-2.1,9.8-2.1,9.8c12.4-0.6,21.1,0,28.6,3.8c-0.2-0.7-0.5-1.5-1-2.1
			C36.2,47.1,29.4,43.7,14.6,44.3z"/>
	</g>
</g>
</svg>
