<svg id="Calque_1" data-name="Calque 1" xmlns="http://www.w3.org/2000/svg" viewBox="0 0 468.76 653.44"><defs><style>.cls-1{fill:#dcf0fe;}.cls-2{fill:#cea26b;}.cls-3{fill:#2b5071;}.cls-4{fill:#9ea1a4;}.cls-5{fill:#203e5b;}.cls-6{fill:#a67c49;}.cls-7{fill:#f6eaae;}.cls-8{fill:#686b6d;}.cls-9{fill:#fef6d8;}.cls-10{fill:#1d6510;}.cls-11{fill:#b95d22;}.cls-12{fill:#4b4c4b;}.cls-13{fill:#212223;}.cls-14{fill:#f9db73;}.cls-15{fill:#feddbf;}.cls-16{fill:#402718;}.cls-17{fill:#f9c584;}.cls-18{fill:#fff;}.cls-19{fill:#f2f2ef;}</style></defs><path class="cls-1" d="M102.2,338.27c-2.4-4.78-4.92-9.51-7.16-14.37a169.61,169.61,0,0,1-8.35-22.11,201.61,201.61,0,0,1-5-20.38c-.53-2.8-.81-5.66-1.23-8.47-.62-4.09-.59-8.24-1.32-12.31a10.14,10.14,0,0,1,0-1.91c0-3.76,0-7.52,0-11.28A145.4,145.4,0,0,1,80,232.69c.43-4.76,1.14-9.45,2-14.14a173.47,173.47,0,0,1,7.92-28.71,185.28,185.28,0,0,1,9-20.33,168.27,168.27,0,0,1,15.84-25c3.22-4.25,6.71-8.27,10.22-12.28a143.81,143.81,0,0,1,10.2-10.45c3.89-3.63,7.91-7.14,12.16-10.38,4.43-3.37,8.89-6.71,13.59-9.71a195.19,195.19,0,0,1,25.72-13.74,171.59,171.59,0,0,1,17.16-6.62,177.18,177.18,0,0,1,26.6-6.55c4.86-.78,9.73-1.35,14.61-2,10-1.22,19.92-.95,29.86-.74,4.08.09,8.21.72,12.31,1.21A182.26,182.26,0,0,1,336.36,86.4c4.26,1.81,8.47,3.71,12.58,5.84a193.06,193.06,0,0,1,27.43,16.94,210.08,210.08,0,0,1,17.52,14.76c3.62,3.4,6.94,7,10.31,10.63a157,157,0,0,1,13.41,16.76,187,187,0,0,1,16.33,28.36,178.05,178.05,0,0,1,9.79,26.41c1.7,5.89,2.94,11.88,4.07,17.88.8,4.2,1.17,8.48,1.67,12.74a161.13,161.13,0,0,1,.79,24.35,55.6,55.6,0,0,1-.77,9.25c-.34,1.7-.31,3.47-.49,5.21a162.73,162.73,0,0,1-3.11,17.82,181,181,0,0,1-8.55,27.07c-.69,1.78-1.54,3.5-2.32,5.24-3.72-.33-7.42-.83-11.12-1.3-7.18-.91-14.37-1.66-21.55-2.54-8.29-1-16.56-2.1-24.83-3.18-1-.13-1.45.18-1.52,1.23-.46,6.27-1,12.52-1.41,18.79-.17,2.62-.65,5.22-.56,7.86a1,1,0,0,1-.43.81c-4.29-7.39-8.63-14.74-12.85-22.16A213.31,213.31,0,0,0,338.7,293c-.18-4.07-.95-8.06-1.53-12.07a55.64,55.64,0,0,0-3.76-14.28,6.67,6.67,0,0,0-3.15-3.47,13.77,13.77,0,0,0-8.32-1.62c-3.39.57-6.83.44-10.24.71-4.75.38-9.52.64-14.28,1,.81-1.88,2.29-3.41,2.84-5.45s1.24-4.28,1.9-6.41a61.75,61.75,0,0,1,3.31-9.47,34.05,34.05,0,0,0,2.22-6,15.66,15.66,0,0,0-.73-11c-.65-1.46-1.44-2.84-2.06-4.3a43.06,43.06,0,0,0,2.24-5.75c1.17-4.86.61-6.11-4-8.19-.06-.46-.11-.92-.17-1.38.1-.65-.35-1-.73-1.42a7.64,7.64,0,0,0-.77-3.13c-.49-1.05.34-1.12.85-1.47a12.54,12.54,0,0,0,7.15-3c2.58-2.15,2.77-5.05,2.77-8.05a.77.77,0,0,0-.73-.8.79.79,0,0,0-.81.41c-.36.61-.62,1.3-1,1.87-.53.73-1.2,1.38-2.22,1a2.18,2.18,0,0,1-1.51-2.2,5.19,5.19,0,0,1,3-4.57c2.9-1.13,5.46.8,5.2,3.94a5.91,5.91,0,0,0-.08,1.18.68.68,0,0,0,1.05.57,2.91,2.91,0,0,0,.9-.75,6.56,6.56,0,0,0,.37-8.57,7.36,7.36,0,0,0-6.29-3.31c.72-1.8.61-3.44,1-5a.9.9,0,0,0-.54-1.18,1,1,0,0,0-1.17.6,4.19,4.19,0,0,1-.36.62c-1.56,2.34-2.62,2.68-5.24,1.75a11.1,11.1,0,0,1-3.79-2.45,10.08,10.08,0,0,0-10.39-2.5,41.75,41.75,0,0,0-4.27,1.55,13.63,13.63,0,0,1-10.47.57,50.86,50.86,0,0,0-5.31-1.47,17.24,17.24,0,0,0-5.45-.57c-11.66.85-21.61,8.36-24.35,20.55a46.87,46.87,0,0,0-.14,19,34.53,34.53,0,0,0,4.56,11.72c.07.95-.74,1.08-1.31,1.46-1.1.72-2.46,1.13-3,2.49a4,4,0,0,0-1,3,5.21,5.21,0,0,0-.36,2.34c.09,5.39,4.62,13.42,11.06,14.2a4,4,0,0,1,3.47,3.19,16.58,16.58,0,0,1,.79,4.69c0,3.51,0,7,0,10.53a15.67,15.67,0,0,1,.07,2.23c-.24.86-1.12.86-3,1.06-.95.1-1.89.3-2.84.35-3.89.22-7.81.25-11.68.64-2.71.27-5.41.28-8.11.46-6.83.44-13.65.93-20.48,1.34-1.6.1-2.8.36-4.74.52-1.19,0-2.39-.07-3.59-.05a7.91,7.91,0,0,0-5.27,2,13.13,13.13,0,0,0-4.63,9.6,76.84,76.84,0,0,0,.92,12.12c.69,5.11,1.14,10.26,1.69,15.39-.85,1.63-1.73,3.24-2.53,4.89a226.63,226.63,0,0,0-9,21.41c-2.95,8.1-5.68,16.27-8,24.57-.34,1.21-.55,2.33.39,3.35a6.91,6.91,0,0,0-.71,1.76c-1,3-1.38,6.19-2.16,9.27A187.65,187.65,0,0,0,165.83,392a101.69,101.69,0,0,1-3.15,13.88c-2.87-1.2-5.17-3.29-7.69-5-2.33-1.61-4.26-3.75-6.78-5.12-.11-1-.24-2.05-.33-3.08-.19-2.12-.18-2.13-2.23-2.18s-4.31-.06-6.46-.09c.31-.56.61-1.13.92-1.68,4.08-7.3,5.13-14.7.73-22.27-.2-.35-.38-.71-.6-1a1.2,1.2,0,0,1,.3-1.83,13.89,13.89,0,0,0,3.06-4,41.33,41.33,0,0,0,4.5-27.13,16.18,16.18,0,0,0-7.87-11.76c-2.26-1.36-4.69-2.21-7.3-1.61a13,13,0,0,0-8.32,5.22,19.78,19.78,0,0,0-2.82,6,62.75,62.75,0,0,0-1.66,21.15,13.56,13.56,0,0,1,.11,3.77,39.25,39.25,0,0,0-3.86-6.26C112.71,344.09,108.43,339.89,102.2,338.27Z" transform="translate(-74.78 -71.9)"/><path class="cls-2" d="M199.94,459.22c-.87,0-1.75-.06-2.63-.07H147c-2.07,0-2.1,0-2.11,2.15-.05,15,.08,30.05-.15,45.08-.45,29.25-.1,58.5-.46,87.74-.4,33.33-.2,66.66-.51,100-.08,7.67-.17,15.34-.22,23,0,2.3-.12,2.38-2.48,2.42-4.87.07-9.73-.52-14.61-.39-1.73,0-1.77-.12-1.78-2.28,0-10.63.09-21.26-.09-31.89-.53-29.41-.1-58.82-.52-88.23-.3-20.37-.16-40.75-.35-61.13-.07-7.67.12-15.35-.1-23-.52-17.42-.15-34.84-.38-52.26,0-2.13,0-2.17-1.94-2.55q-13.48-2.68-27-5.34a9.48,9.48,0,0,0-1.19-.05c-3.73-1.15-7.6-1.6-11.4-2.39-2.24-.47-4.45-1.23-6.8-1-.05-5.33-.11-10.66-.12-16,0-1.56.22-1.76,1.82-1.81s3.34,0,5,0q13.14,0,26.28,0c.92,0,1.93.28,2.73-.47a5,5,0,0,0,3,.54l26.43,0,1-.17,36.56,0c2.47,0,4.94,0,7.4-.08.63.06,1.26.18,1.89.18,10.66,0,21.31-.05,32,0,1.35,0,2.62-.74,4-.26.64,0,1.28.09,1.91.1,16.44.23,32.88,0,49.32,0,.8,0,1.59-.07,2.39-.11,6-.26,12.1-.07,18.15-.1a25.88,25.88,0,0,0,3.31.24c7.33,0,14.12.1,21.45.09q22.85,0,45.69,0c.92,0,1.92.31,2.77-.36H486.37c.48,0,.95,0,1.43-.05,6.24,0,12.47.05,18.7.05h33.09c2.33,0,2.35,0,2.36,2.37,0,13.75-.08,27.5.17,41.25.51,28.61.07,57.22.5,85.83.33,21.26.17,42.52.35,63.78.06,7-.07,14.07.09,21.1.59,25.41.21,50.83.46,76.24v.48c.07,3,.07,3-3,3-5.27.09-10.53.58-15.81.45-.64,0-1.28,0-1.91,0-1.55-.09-1.79-.32-1.85-1.85s0-3.2,0-4.8c0-10.07.07-20.14-.16-30.21-.51-22.61-.08-45.24-.5-67.85-.38-20.06-.1-40.12-.45-60.17-.41-24.22-.2-48.43-.53-72.65-.12-8.94-.14-17.89-.27-26.84,0-2.24,0-2.26-2.22-2.26l-20.38-.06-18.33,0q-24.52,0-49,.11c-2.23,0-4.46.14-6.69.2a1.45,1.45,0,0,0-1.26.53,46.53,46.53,0,0,0-9.51-.48l-27.75.06H314.15c-.95,0-1.91.06-2.86.09-.4,0-.8-.09-1.19-.08q-19.85,0-39.69.05c-.48,0-1,.07-1.43.11s-1-.09-1.43-.09l-43.77,0h-5.49l-3.43.05Z" transform="translate(-74.78 -71.9)"/><path class="cls-3" d="M269,459.27c.48,0,1-.11,1.43-.11l39.68-.05c.4,0,.8.05,1.19.08a10,10,0,0,0,3.31,1.28c7.41,2.22,13,7,17.63,12.88,5.35,6.84,8.89,14.67,11.78,22.83,1.44,4.05,2.29,8.25,3.58,12.33l.06.21c.52,2.9,1,5.79,1.55,8.69.66,3.75,1.3,7.51,1.95,11.27q.51,5.72,1,11.43c.63,7.31,1.19,14.63,1.51,22,.64,14.58,1.45,29.16,2.8,43.7,1,10.72,2.16,21.43,3.34,32.13a29.41,29.41,0,0,0,1.27,6.55c-.1,1.38.49,2.65.64,4,.21,2-.07,2.49-2,2.54a13.82,13.82,0,0,0-4.88,1,2.8,2.8,0,0,0-.71,0c-5.48,1.71-11.19,2.39-16.73,3.84-3.24.85-6.59,1-9.83,1.88-1.09.22-2.18.42-3.26.66-2.41.52-3.3.07-4.08-2.38-.83-2.65-1.63-5.32-2.25-8-.9-3.94-1.62-7.92-2.42-11.88-1.52-8.94-3.07-17.88-4.57-26.82-1.34-8.09-2.7-16.17-3.74-24.3l-.75-4.31-.18-2.17c-.79-5.65-1.79-11.27-2.72-16.9q-1.29-7.75-2.59-15.49-.92-5.52-1.82-11c-.28-1.68.05-3.51-.92-5.07a13.53,13.53,0,0,0,0-1.91c-.54-3.7-1.08-7.41-1.69-11.11a39,39,0,0,0-1.05-4.91c-.87-2.87-2.17-3.81-5.07-3.52s-5.9.22-8.85.27c-11.09.17-22.17.38-33.26.27-1.6,0-3.19-.09-4.79-.13-1.62-.54-3.32-.32-5-.44a28.89,28.89,0,0,1-13.5-4.49c-5.74-3.62-8.13-9.19-8.81-15.7-.64-6.09.12-12.11.8-18.13a19.49,19.49,0,0,1,1.16-5.84,14.26,14.26,0,0,0,3.32-.21,39.05,39.05,0,0,1,4.69-.72c4.34-.39,8.62-1.25,12.93-1.83,4.87-.66,9.74-1.22,14.64-1.66,4.61-.41,9.22-.27,13.82-.41A2.19,2.19,0,0,0,269,459.27Z" transform="translate(-74.78 -71.9)"/><path class="cls-4" d="M487.8,430.76c-.48,0-.95.05-1.43.05H367.84c.11-2.58-.32-5.2.48-7.74a49.57,49.57,0,0,1,.13-6c.65-4.82.82-9.67,1.23-14.5.26-3.16.53-6.34.71-9.52.13-2.3.26-4.61.45-6.91.43-5.07.9-10.14,1.3-15.21.25-3.1.17-6.23.65-9.29.43-2.77.25-5.56.69-8.33.23-1.42.77-3.13-.39-4.54l.51-1.46a1,1,0,0,0,.43-.81c-.09-2.64.39-5.24.56-7.86.41-6.27,1-12.52,1.41-18.79.07-1.05.5-1.36,1.52-1.23,8.27,1.08,16.54,2.16,24.83,3.18,7.18.88,14.37,1.63,21.55,2.54,3.7.47,7.4,1,11.12,1.3l19.92,2.51c7.19.91,14.38,1.86,21.57,2.74,5.85.72,11.71,1.38,17.57,2,2.14.25,2.18.33,2,2.47-.41,4.13-.73,8.27-1.1,12.4q-.9,9.89-1.8,19.77c-.37,4.13-.69,8.26-1,12.39-.44,5-.9,10-1.34,15-.36,4.13-.7,8.27-1.05,12.4-.45,5.16-.93,10.32-1.36,15.49C488.13,425.51,488,428.13,487.8,430.76Z" transform="translate(-74.78 -71.9)"/><path class="cls-5" d="M347.58,508.48c-1.29-4.08-2.13-8.28-3.57-12.33-2.9-8.16-6.43-16-11.78-22.83-4.63-5.9-10.23-10.66-17.63-12.88a9.91,9.91,0,0,1-3.31-1.28c.95,0,1.91-.09,2.86-.09h69.64l27.75-.06a46.53,46.53,0,0,1,9.51.48,68,68,0,0,1,9,2.49,17.55,17.55,0,0,1,7.36,5.19,26.48,26.48,0,0,1,3.66,5.32,62.58,62.58,0,0,1,7,22.27q1.88,16.78,3.37,33.62c.67,7.66.18,15.33.11,23-.06,7.19.34,14.37.56,21.56.06,2.07.15,4.15.24,6.22.45,10.86.7,21.72.67,32.59,0,6.87.52,13.73.43,20.61,0,3.11-.11,6.23-.18,9.34-.05,1.9-.27,2.22-2.07,2.63-2.41.54-4.84,1-7.26,1.49A71.18,71.18,0,0,1,433,647.55c-4.47.49-8.89,1.36-13.39,1.64a9,9,0,0,0-4.14.82c-1.37,0-1.64-1.07-1.87-2.09q-1.05-4.67-2-9.36c-1.61-7.82-2.56-15.75-3.83-23.62-.85-5.2-1.69-10.4-2.46-15.61-.91-6.17-1.24-12.39-1.79-18.59-.73-8.2-1.16-16.41-1.4-24.63-.22-7.34-.14-14.7-.21-22.05a28.81,28.81,0,0,0-.28-5,7.63,7.63,0,0,0,.17-3.08c-.24-3.66-.21-7.32-.29-11-.05-2.06-.34-4.12-.43-6.18-.05-1-.51-1.16-1.38-1.08-7.53.69-15.11.22-22.65.81Z" transform="translate(-74.78 -71.9)"/><path class="cls-6" d="M74.9,449c2.35-.27,4.56.49,6.8,1,3.8.79,7.67,1.24,11.4,2.39l.21,30c.1,13.6.11,27.19.3,40.78.3,21.58.23,43.17.51,64.75.25,20.06.21,40.13.48,60.19.1,6.95,0,13.91.24,20.86,0,.48,0,1,0,1.43-.06,1.88-.24,2.14-2.05,2.12q-7.2-.11-14.38-.31c-1.68,0-2-.43-2-2.26q-.1-11.4-.18-22.79c0-9.51,0-19-.11-28.54-.36-21.82-.22-43.65-.5-65.47-.27-21.43-.29-42.85-.45-64.28-.09-11.67-.26-23.33-.38-35C74.83,452.24,74.88,450.64,74.9,449Z" transform="translate(-74.78 -71.9)"/><path class="cls-6" d="M478,458.65l18.33,0c0,6.39,0,12.78,0,19.18,0,12.79,0,25.58.16,38.37.33,30,.34,60,.47,89.93.08,19.18.25,38.36.39,57.54v1.2c0,2.33-.11,2.42-2.46,2.43-4.24,0-8.48,0-12.71,0-2.95,0-3,0-3-2.9q-.07-21.23-.15-42.45-.22-44.13-.48-88.26-.21-36.09-.46-72.18C478.11,460.56,478.06,459.61,478,458.65Z" transform="translate(-74.78 -71.9)"/><path class="cls-7" d="M243.55,509c1.59,0,3.19.11,4.78.13,11.09.11,22.18-.1,33.26-.27,3,0,5.9,0,8.85-.27s4.21.65,5.07,3.52a39,39,0,0,1,1.06,4.91c.6,3.7,1.15,7.41,1.68,11.11.1.63,0-.6,0,0l.06,1a114.07,114.07,0,0,0-12.27.13c-8.13.58-16.27,0-24.38.46-6.11.31-12.23.65-18.34,1-5,.26-10,.79-15,.91a40.94,40.94,0,0,1-12.2-1.93,30.55,30.55,0,0,1-8.81-3.54,25.87,25.87,0,0,1-11.28-16,43.66,43.66,0,0,1-1.38-10.6,84.7,84.7,0,0,1,.51-12.64c.56-3.53,1.14-7.06,1.69-10.58q1.23-7.89,3-15.66a5.71,5.71,0,0,0,0-1.43l14.92,0c.28,2.17-.38,4.28-.57,6.41-.21,2.38-.1,4.8-.49,7.14-.66,4-.21,8.1-.77,12.14-.53,3.79.66,7.61.42,11.45a2.92,2.92,0,0,0,.08.71,14.48,14.48,0,0,0,11.62,11.54c2.11.33,4.24.64,6.34,1A29,29,0,0,0,243.55,509Z" transform="translate(-74.78 -71.9)"/><path class="cls-8" d="M315.58,636.11c.8,4,1.52,7.94,2.41,11.88.62,2.7,1.42,5.37,2.26,8,.77,2.45,1.66,2.9,4.07,2.38,1.09-.24,2.18-.44,3.27-.66.23,1.21.46,2.41.7,3.62l-.26.21-21.18.09c-.77,0-1.6-.2-2.26.44a7.19,7.19,0,0,0-5.82,0,2.17,2.17,0,0,0-1.59-.35q-24.43.16-48.88.31-17.13.12-34.26.31c-.64,0-1.27.12-1.9.18l-5.31,0c-2.85-.17-2.77-.2-2.47-3.09a7.78,7.78,0,0,1,5.28-7A105.21,105.21,0,0,1,227,647.22c12.87-2.7,25.72-5.52,38.72-7.52,8-1.23,16-3,24.11-3.64,2.46-.21,2.47-.27,2.46-2.75q-.06-12.81-.15-25.62c0-.56,0-1.12,0-1.68-.07-1.09.41-1.58,1.52-1.65.93-.06,1.93.24,2.78-.4a3.65,3.65,0,0,0,2.05.47c2.85,0,5.71,0,8.56-.06,2.67,0,2.69,0,2.68,2.52q0,8.85-.09,17.71c0,3,0,6.06-.11,9.1,0,1.15.28,1.82,1.53,1.9C312.59,635.71,314,636.31,315.58,636.11Z" transform="translate(-74.78 -71.9)"/><path class="cls-9" d="M371.12,675.91c1,.3,1.38,1.52,2.54,1.49a28.24,28.24,0,0,0-1.86,4.14,2.67,2.67,0,0,1-1.86,2,53.67,53.67,0,0,0-5.21,2.43c-.48.24-1.08.41-1,1.3,2.28-.08,4.12-1.86,6.39-1.82.68,2.08-1,4.08.19,6.43a16.76,16.76,0,0,0,.92-4.64c.18-2.18.83-3,2.91-3.52,1.85-.46,3.75-.75,5.62-1.11a3.69,3.69,0,0,0,1.6,1.6L380.22,686a29.84,29.84,0,0,1-5.77,5.4c-.85.47-1.9.76-2.16,2,.65.18,1-.2,1.36-.44a13.48,13.48,0,0,1,3.49-1.55c1-.29,1.39,0,1.13,1.06a5.26,5.26,0,0,0,.07,3.6c.74-1,.42-1.82.59-2.55.61-2.58.64-2.74,3.07-3.26,1.71-.37,3.37-.92,5.05-1.39a103.43,103.43,0,0,0,17.74,12,10.15,10.15,0,0,1,3.51,2.84c1.05,1.39,1,2.38.11,3.92a8.82,8.82,0,0,1-3.65,3.33,32.94,32.94,0,0,1-15.83,3.8c-1.43,0-2.87,0-4.31,0a46.81,46.81,0,0,1-14.78-2.18,118.06,118.06,0,0,1-14.16-5.06,78.3,78.3,0,0,1-6.9-3.77,59.3,59.3,0,0,0-17.24-6.73c-4.46-.9-7.71-3.63-10.61-6.91a3.32,3.32,0,0,1-.48-3,72.12,72.12,0,0,1,1.85-9.32A104.78,104.78,0,0,1,328.11,662a2.35,2.35,0,0,1,.37.14c.88,4,1.89,8,3.15,12a3.13,3.13,0,0,0,2.2,2.29c2.23.62,5.78-.64,7-2.57a3.17,3.17,0,0,0,.43-2.51c-.25-1.09-.54-2.17-.7-3.26a4.48,4.48,0,0,1,2.12-4.68,21.78,21.78,0,0,1,11.68-4.29c1.52.15,2.05,1.47,2.9,2.41a12.61,12.61,0,0,0,2.85,4.61c1.31,1.39,2.89,2.52,3.91,4.17-.54,1.41-1.15,2.79-1.6,4.23a2.62,2.62,0,0,1-2.59,2c-2.13.22-4.23.67-6.33,1-.38.07-.83.25-.77.74s.56.52.93.45c1.24-.23,2.47-.55,3.72-.78,4-.74,4-.73,3.27,3.14-.11.62-.34,1.23-.4,1.85s-.26,1.11.49,1.52a3.38,3.38,0,0,0,.87-2.11c.26-1.4.61-2.79.93-4.18a1.39,1.39,0,0,1,1.26-1.23C366.26,676.62,368.63,675.83,371.12,675.91Z" transform="translate(-74.78 -71.9)"/><path class="cls-10" d="M102.2,338.27c6.23,1.62,10.51,5.82,14.18,10.79a39.25,39.25,0,0,1,3.86,6.26,13.56,13.56,0,0,0-.11-3.77,62.75,62.75,0,0,1,1.66-21.15,19.78,19.78,0,0,1,2.82-6,13,13,0,0,1,8.32-5.22c2.61-.6,5,.25,7.3,1.61a16.18,16.18,0,0,1,7.87,11.76,41.33,41.33,0,0,1-4.5,27.13,13.89,13.89,0,0,1-3.06,4,1.2,1.2,0,0,0-.3,1.83c.22.33.4.69.6,1,4.4,7.57,3.35,15-.73,22.27-.31.55-.61,1.12-.92,1.68-8.72.24-17.44,0-26.16,0a3.15,3.15,0,0,1-.9-.29c-5-6.65-5-17.27-.47-24.78a13.55,13.55,0,0,0-3.07-1.65c-3.61-2-7-4.18-9.32-7.69a19.09,19.09,0,0,1-3.18-10.86C96.08,340.83,97.78,339.08,102.2,338.27ZM127,367.53c-.08-.45-.32-.74-.79-.72a.62.62,0,0,0-.64.58.71.71,0,0,0,.67.83C126.69,368.28,126.93,368,127,367.53Zm16.52-40.48c.43-.06.73-.29.67-.76a.73.73,0,0,0-.82-.67.61.61,0,0,0-.56.64A.72.72,0,0,0,143.5,327.05Zm-6.64,10.49a.68.68,0,0,0-.77.64.8.8,0,0,0,.6.87.64.64,0,0,0,.87-.5C137.68,338,137.39,337.69,136.86,337.54Zm-36.2,4.6a.85.85,0,0,0-.93-.82.7.7,0,0,0-.73.75.83.83,0,0,0,.92.85C100.36,342.92,100.62,342.64,100.66,342.14Zm19.92,31.69a.72.72,0,0,0-.71-.79.65.65,0,0,0-.74.69.74.74,0,0,0,.71.77C120.32,374.56,120.5,374.21,120.58,373.83Zm24.06-30a.66.66,0,0,0-.63-.78.77.77,0,0,0-.86.63.62.62,0,0,0,.61.8A.82.82,0,0,0,144.64,343.86ZM130,387.14c-.54,0-.86.28-.83.71a.83.83,0,0,0,.78.74c.44,0,.8-.13.84-.59A.77.77,0,0,0,130,387.14Zm6.07-21.6a.71.71,0,0,0-.54-.85.67.67,0,0,0-.93.44.65.65,0,0,0,.5.88A.72.72,0,0,0,136.05,365.54Zm-17.18-1.77c-.43.09-.75.34-.72.8a.77.77,0,0,0,1,.79.72.72,0,0,0,.59-.89A.82.82,0,0,0,118.87,363.77Zm8-25.15a.73.73,0,0,0-.69-.78.62.62,0,0,0-.7.51.64.64,0,0,0,.53.87C126.52,339.31,126.79,339.07,126.92,338.62Zm-14.09,22c.38-.14.7-.36.62-.82a.67.67,0,0,0-.84-.58.61.61,0,0,0-.51.67A.69.69,0,0,0,112.83,360.59Zm18.87-18.28c-.42.11-.72.33-.71.81a.74.74,0,0,0,.72.79c.46,0,.7-.3.69-.77A.81.81,0,0,0,131.7,342.31Zm9.42,9.94a.69.69,0,0,0-.59.82.81.81,0,0,0,.76.74.64.64,0,0,0,.71-.71A.83.83,0,0,0,141.12,352.25Zm-41.91-2.86a.76.76,0,0,0-.71-.81.59.59,0,0,0-.65.55.72.72,0,0,0,.57.9C98.89,350.13,99.13,349.83,99.21,349.39Zm25.68-18.62c-.43.07-.7.29-.68.75a.74.74,0,0,0,.71.76.66.66,0,0,0,.69-.74C125.6,331.08,125.27,330.9,124.89,330.77ZM141.76,378a.73.73,0,0,0-.68-.77c-.48-.07-.69.27-.71.7a.61.61,0,0,0,.54.65A.68.68,0,0,0,141.76,378Zm-9.36-45.87a.66.66,0,0,0-.75-.72.61.61,0,0,0-.62.6.71.71,0,0,0,.66.84C132.15,332.88,132.41,332.59,132.4,332.11Zm6,54.95a.67.67,0,0,0-.61-.62.61.61,0,0,0-.71.71c0,.33.18.62.56.61A.69.69,0,0,0,138.45,387.06Zm-32.93-42.28a.67.67,0,0,0-.7-.72.64.64,0,0,0-.66.79.66.66,0,0,0,.59.63C105.21,345.53,105.5,345.32,105.52,344.78Zm5.16,32.61c-.16-.37-.4-.68-.87-.53a.61.61,0,0,0-.44.74c.1.44.37.69.85.54A.64.64,0,0,0,110.68,377.39Zm24.44,3.95a.71.71,0,0,0-.78-.64.57.57,0,0,0-.55.64.61.61,0,0,0,.74.68A.65.65,0,0,0,135.12,381.34Zm5.55-9.8c0-.37-.13-.65-.49-.71s-.82,0-.88.54a.69.69,0,0,0,1.37.17Zm-29.21-26.23a.7.7,0,0,0-.83-.6.62.62,0,0,0-.53.65c0,.48.4.63.82.58A.61.61,0,0,0,111.46,345.31Zm2.63,42.23a.63.63,0,0,0,.6-.77.62.62,0,0,0-.59-.58.64.64,0,0,0-.77.63C113.33,387.24,113.64,387.48,114.09,387.54Zm7.56.49c.3-.08.58-.19.63-.56a.65.65,0,0,0-1.29-.22C120.93,387.73,121.23,387.93,121.65,388Zm10-12.84c.26-.11.59-.17.62-.56a.66.66,0,1,0-1.3,0C131,375,131.33,375.11,131.66,375.19ZM130,350.74a.66.66,0,0,0-.47.85.61.61,0,0,0,.64.53.64.64,0,0,0,.67-.74A.71.71,0,0,0,130,350.74Zm-25.09.81c.34-.05.61-.19.66-.56a.68.68,0,0,0-1.34-.24C104.16,351.25,104.5,351.43,104.91,351.55Zm12,2.16a.65.65,0,0,0-.57-.62.61.61,0,0,0-.75.63.58.58,0,0,0,.54.63C116.61,354.4,116.82,354.11,116.93,353.71Zm6.84,1.75c-.1-.45-.37-.68-.83-.57a.55.55,0,0,0-.5.66.65.65,0,0,0,.83.58A.58.58,0,0,0,123.77,355.46Zm-18.42,2.26a.62.62,0,0,0,.52-.63.64.64,0,0,0-.78-.63.56.56,0,0,0-.55.62A.64.64,0,0,0,105.35,357.72Zm31.59-10.88c-.49,0-.76.26-.73.71a.66.66,0,0,0,.56.63.63.63,0,0,0,.8-.59A.66.66,0,0,0,136.94,346.84Zm-8.84,13.05a.64.64,0,0,0-.76-.68.57.57,0,0,0-.56.64.69.69,0,0,0,.78.68C127.93,360.52,128.08,360.23,128.1,359.89Zm10.71-30.76c-.29.09-.58.18-.63.55a.63.63,0,0,0,.64.76.59.59,0,0,0,.64-.53C139.53,329.44,139.22,329.24,138.81,329.13Zm1.67,31.16a.65.65,0,0,0-.54-.81.59.59,0,0,0-.72.43.6.6,0,0,0,.51.85A.62.62,0,0,0,140.48,360.29Zm-13.34-36a.56.56,0,0,0-.53.64.64.64,0,0,0,.77.65.62.62,0,0,0,.55-.65A.66.66,0,0,0,127.14,324.31Zm-17.82,27.95c0,.48.2.77.65.78a.62.62,0,0,0,.66-.56.65.65,0,0,0-.67-.77A.6.6,0,0,0,109.32,352.26Zm25.53,4.16c.41-.11.51-.44.44-.86a.58.58,0,0,0-.63-.53.66.66,0,0,0-.67.76C134,356.22,134.34,356.45,134.85,356.42Zm-21.8,15a.58.58,0,0,0,.56-.59.54.54,0,0,0-.55-.6c-.42,0-.73.22-.67.69A.63.63,0,0,0,113.05,371.43Zm22.37-48.76a.6.6,0,0,0-.66-.51c-.39,0-.49.33-.48.66s.29.52.63.49S135.42,323,135.42,322.67Zm-9.23,59c-.08-.27-.12-.6-.52-.63a.7.7,0,0,0-.78.67.59.59,0,0,0,.55.62C125.92,382.35,126.12,382.06,126.19,381.63Zm-10.4-1.3a.62.62,0,0,0,.65.53.61.61,0,0,0,.63-.76.54.54,0,0,0-.61-.53A.69.69,0,0,0,115.79,380.33Zm9.42-33.93a.63.63,0,0,0-.3-.81c-.32-.16-.59,0-.72.35a.58.58,0,0,0,.29.8A.5.5,0,0,0,125.21,346.4Zm19.6-11.52c.07-.31-.12-.42-.36-.48s-.43.11-.49.35.13.42.37.49S144.73,335.1,144.81,334.88Z" transform="translate(-74.78 -71.9)"/><path class="cls-9" d="M462.27,674c.74.61,1.78.75,2.42,1.53a1.22,1.22,0,0,0-1.08.37,9.89,9.89,0,0,0-1.78,3.1,3,3,0,0,1-2.21,1.89,7.16,7.16,0,0,0-4.46,2.78c1.82-.28,2.93-1.27,4.24-1.71s1.66-.14,1.45,1.17c-.14.87-.72,1.75.27,2.93.28-1.28.58-2.25.69-3.23a1.73,1.73,0,0,1,1.63-1.71c1.87-.38,3.72-.9,5.57-1.36,2.45,2,5,4,7.52,5.85a59.07,59.07,0,0,0,7.05,4.48,17.31,17.31,0,0,1,4.41,3.6,2.71,2.71,0,0,1,0,3.86,12.13,12.13,0,0,1-5.05,3.46,44.38,44.38,0,0,1-13.8,2.31,43.64,43.64,0,0,1-15.76-2.08c-6.16-2.06-12.34-4.1-17.94-7.67a52.68,52.68,0,0,0-17.18-7.49,16,16,0,0,1-9.71-6.45c-.74-1-.41-2.16-.29-3.23.71-6,2.81-11.56,4.88-17.14.61-1.63.44-3.5,1.65-4.92a5.15,5.15,0,0,1,.62,1.79,44.79,44.79,0,0,0,2.6,8.16c1.1,2.76,3.13,3.72,5.93,2.81a16.3,16.3,0,0,0,3.67-1.7c2.4-1.53,2.66-2.29,1.45-4.87a4,4,0,0,1,.44-4.45,7.69,7.69,0,0,1,3.46-2.82c3.49-1.26,6.76-3.24,10.64-3.25A2.63,2.63,0,0,1,446,652.6a16.3,16.3,0,0,0,3.37,8.94c.09.1.06.3.09.46-1,0-1.32.76-1.64,1.5a18.22,18.22,0,0,0-1,2.44,2.36,2.36,0,0,1-2.42,1.86,33.81,33.81,0,0,0-4.47.61c-.74.17-1.7.08-2.37,1a5.34,5.34,0,0,0,3.19,0c1.24-.27,2.49-.49,3.74-.66.82-.11,1.21.37,1,1.15-.2,1-.55,2-.75,3-.16.78-.46,1.64.42,2.4.89-1.64.91-3.35,1.34-4.94.34-1.24.81-2.11,2.35-2.21,2-.13,3.91-.56,5.87-.86a5.19,5.19,0,0,1,1.85,1.93c-.79,2.74-1.8,5.23-5,5.94a12.84,12.84,0,0,0-3,1.44c-.37.19-1,.28-.74,1.08,2.05.12,3.68-1.65,5.72-1.55.75,1.83-.91,3.61.24,5.66a12.19,12.19,0,0,0,.91-3.95,3.15,3.15,0,0,1,2.65-3.21A15.89,15.89,0,0,1,462.27,674Z" transform="translate(-74.78 -71.9)"/><path class="cls-11" d="M112.13,390.09a3.15,3.15,0,0,0,.9.29c8.72,0,17.44.27,26.16,0,2.15,0,4.31,0,6.46.09s2,.06,2.23,2.18c.09,1,.22,2.06.33,3.08,0,.48-.08.95-.09,1.43a95.94,95.94,0,0,1-2.27,18.64,70.32,70.32,0,0,1-5.35,14.48,1.12,1.12,0,0,0-.46,1l-26.43,0a5,5,0,0,1-3-.54c-5-6.85-6.9-14.74-8-22.95a75.2,75.2,0,0,1-.44-14.77c.15-2.45.48-2.81,3-2.85C107.52,390.09,109.83,390.1,112.13,390.09Z" transform="translate(-74.78 -71.9)"/><path class="cls-7" d="M377,508.55c7.54-.59,15.12-.12,22.65-.81.87-.08,1.33.08,1.38,1.08.09,2.06.38,4.12.43,6.18.08,3.66.05,7.32.29,11a7.63,7.63,0,0,1-.17,3.08c-.27-.89-.95-.93-1.71-.91-2,0-4,0-6,0-9.79,0-19.59-.16-29.38.12-4.44.13-8.89.28-13.33.36q-1-5.64-2-11.27c-.5-2.9-1-5.79-1.55-8.69.48.05.95.12,1.43.13q13.38.4,26.76,0A5.89,5.89,0,0,0,377,508.55Z" transform="translate(-74.78 -71.9)"/><path class="cls-12" d="M307.07,604.37c-2.85,0-5.71,0-8.56.06a3.65,3.65,0,0,1-2.05-.47l-.24-39.24q-.11-16.15-.2-32.31c0-.87,0-2.53,0-3.4a5,5,0,0,1,2.35.11c.75,3.73.59,3.42.86,5.1.6,3.68,1.33,6.93,2,10.61.87,5.16,1.61,9.74,2.46,14.9.94,5.63,1.9,11.84,2.7,17.49a37,37,0,0,1,.61,6.49,1.77,1.77,0,0,0,0-.36C307.18,590,307.24,597.74,307.07,604.37Z" transform="translate(-74.78 -71.9)"/><path class="cls-8" d="M357.28,661.46c-.85-.94-1.38-2.26-2.9-2.41a47.86,47.86,0,0,1,.48-7.08,13.72,13.72,0,0,1,4.87-1c1.91-.05,2.19-.58,2-2.54-.15-1.35-.73-2.62-.63-4,7.69,1.23,15.38,2.43,23.06,3.69a58.13,58.13,0,0,1,5.84,1.2c5.08,1.37,7.5,5.31,9.14,9.88.47,1.32,0,1.76-1.52,1.89-.32,0-.64,0-1,0l-6,0c-3.5,0-7,0-10.5,0Z" transform="translate(-74.78 -71.9)"/><path class="cls-8" d="M304.47,665.8c.43.78,1.31.85,2,1.23a10.52,10.52,0,0,1,4.87,12.53,10.5,10.5,0,0,1-20.44-2.94,10.7,10.7,0,0,1,6.17-10l1.71-.81Z" transform="translate(-74.78 -71.9)"/><path class="cls-8" d="M396.56,666.34c.78.4,1.57.78,2.33,1.21a10.32,10.32,0,0,1,4.89,11.67,10.3,10.3,0,0,1-19.87.24,10.36,10.36,0,0,1,4.41-11.67,10.07,10.07,0,0,0,2.43-1.48Z" transform="translate(-74.78 -71.9)"/><path class="cls-8" d="M212.26,666.74c.44.74,1.28.9,1.92,1.36a10,10,0,0,1,4.47,9.92,9.22,9.22,0,0,1-6.36,8,10.07,10.07,0,0,1-7.57-18.58,8.51,8.51,0,0,0,2.37-1.09C208.84,666.09,210.52,666.75,212.26,666.74Z" transform="translate(-74.78 -71.9)"/><path class="cls-13" d="M443.59,650c-3.88,0-7.15,2-10.64,3.25a7.69,7.69,0,0,0-3.46,2.82,4,4,0,0,0-.44,4.45c1.21,2.58.95,3.34-1.45,4.87a16.3,16.3,0,0,1-3.67,1.7c-2.8.91-4.83-.05-5.93-2.81a44.79,44.79,0,0,1-2.6-8.16,5.15,5.15,0,0,0-.62-1.79c.21-1.44.43-2.89.64-4.33a9,9,0,0,1,4.14-.82c4.5-.28,8.92-1.15,13.39-1.64a71.18,71.18,0,0,0,10.94-1.74C443.63,647.2,444,648.64,443.59,650Z" transform="translate(-74.78 -71.9)"/><path class="cls-14" d="M371.12,675.91c-2.49-.08-4.86.71-7.3,1a1.39,1.39,0,0,0-1.26,1.23c-.32,1.39-.67,2.78-.93,4.18a3.38,3.38,0,0,1-.87,2.11c-.75-.41-.55-1-.49-1.52s.29-1.23.4-1.85c.69-3.87.69-3.88-3.27-3.14-1.25.23-2.48.55-3.72.78-.37.07-.87.11-.93-.45s.39-.67.77-.74c2.1-.38,4.2-.83,6.33-1a2.62,2.62,0,0,0,2.59-2c.45-1.44,1.06-2.82,1.6-4.23.76-.17,1,.21,1,.9a11.61,11.61,0,0,0-1.82,4.66c2-.44,3.9-.42,5.61-1.27C369.75,674.73,371.15,674.13,371.12,675.91Z" transform="translate(-74.78 -71.9)"/><path class="cls-14" d="M379.77,682.56c-1.87.36-3.77.65-5.62,1.11-2.08.52-2.73,1.34-2.91,3.52a16.76,16.76,0,0,1-.92,4.64c-1.22-2.35.49-4.35-.19-6.43-2.27,0-4.11,1.74-6.39,1.82-.09-.89.51-1.06,1-1.3a53.67,53.67,0,0,1,5.21-2.43,2.67,2.67,0,0,0,1.86-2,28.24,28.24,0,0,1,1.86-4.14c1,.07.87.73.75,1.39-1,1-1.16,2.33-1.79,3.94l4.84-1.06C378.31,681.78,379.31,681.46,379.77,682.56Z" transform="translate(-74.78 -71.9)"/><path class="cls-14" d="M454.75,667.31c-2,.3-3.91.73-5.87.86-1.54.1-2,1-2.35,2.21-.43,1.59-.45,3.3-1.34,4.94-.88-.76-.58-1.62-.42-2.4.2-1,.55-2,.75-3,.16-.78-.23-1.26-1-1.15-1.25.17-2.5.39-3.74.66a5.34,5.34,0,0,1-3.19,0c.67-.91,1.63-.82,2.37-1a33.81,33.81,0,0,1,4.47-.61,2.36,2.36,0,0,0,2.42-1.86,18.22,18.22,0,0,1,1-2.44c.32-.74.66-1.48,1.64-1.5,0,.16.07.31.1.47a11.25,11.25,0,0,0-1.91,4.83l5.67-1.06C454,666.33,454.7,666.34,454.75,667.31Z" transform="translate(-74.78 -71.9)"/><path class="cls-14" d="M462.27,674a15.89,15.89,0,0,0-4.95.65,3.15,3.15,0,0,0-2.65,3.21,12.19,12.19,0,0,1-.91,3.95c-1.15-2,.51-3.83-.24-5.66-2-.1-3.67,1.67-5.72,1.55-.24-.8.37-.89.74-1.08a12.84,12.84,0,0,1,3-1.44c3.24-.71,4.25-3.2,5-5.94.74-.14,1,.24,1,.92a7.41,7.41,0,0,0-1.33,3.19c1.52.57,2.8-.43,4.18-.39C461.14,673.16,462.24,672.65,462.27,674Z" transform="translate(-74.78 -71.9)"/><path class="cls-12" d="M396.56,666.34l-5.81,0c0-1.74-.05-3.47-.07-5.2l6,0C396.62,662.84,396.59,664.59,396.56,666.34Z" transform="translate(-74.78 -71.9)"/><path class="cls-14" d="M387.05,688.89c-1.68.47-3.34,1-5.05,1.39-2.43.52-2.46.68-3.07,3.26-.17.73.15,1.56-.59,2.55a5.26,5.26,0,0,1-.07-3.6c.26-1-.11-1.35-1.13-1.06a13.48,13.48,0,0,0-3.49,1.55c-.38.24-.71.62-1.36.44.26-1.28,1.31-1.57,2.16-2a29.84,29.84,0,0,0,5.77-5.4l1.15-1.82c.66-.07.85.28.77.87-1.13.8-1.29,2.12-1.7,3.29-.23.65.13,1.1.87.94,1.46-.31,2.9-.68,4.35-1C386.17,688.36,386.82,688.17,387.05,688.89Z" transform="translate(-74.78 -71.9)"/><path class="cls-14" d="M469,679.76c-1.85.46-3.7,1-5.57,1.36a1.73,1.73,0,0,0-1.63,1.71c-.11,1-.41,1.95-.69,3.23-1-1.18-.41-2.06-.27-2.93.21-1.31-.18-1.6-1.45-1.17s-2.42,1.43-4.24,1.71a7.16,7.16,0,0,1,4.46-2.78,3,3,0,0,0,2.21-1.89,9.89,9.89,0,0,1,1.78-3.1,1.22,1.22,0,0,1,1.08-.37c0,.13,0,.26,0,.39-.81,1.05-2.07,2.52-1.49,3.43.85,1.31,2.53,0,3.87-.1.2,0,.39-.23.58-.35A1.27,1.27,0,0,1,469,679.76Z" transform="translate(-74.78 -71.9)"/><path class="cls-12" d="M304.47,665.8l-5.71,0c0-1.24,0-2.49,0-3.73a7.19,7.19,0,0,1,5.82,0Z" transform="translate(-74.78 -71.9)"/><path class="cls-12" d="M212.26,666.74c-1.74,0-3.42-.65-5.17-.43-.09-1.26-.17-2.53-.26-3.79l5.31,0Z" transform="translate(-74.78 -71.9)"/><path class="cls-9" d="M368.82,674.53c-1.71.85-3.6.83-5.61,1.27a11.61,11.61,0,0,1,1.82-4.66C366.56,672,368.32,672.55,368.82,674.53Z" transform="translate(-74.78 -71.9)"/><path class="cls-9" d="M453.27,666.24l-5.67,1.06a11.25,11.25,0,0,1,1.91-4.83A7.36,7.36,0,0,1,453.27,666.24Z" transform="translate(-74.78 -71.9)"/><path class="cls-9" d="M385.66,688.24c-1.45.34-2.89.71-4.35,1-.74.16-1.1-.29-.87-.94.41-1.17.57-2.49,1.7-3.29C383.36,686.05,384.88,686.74,385.66,688.24Z" transform="translate(-74.78 -71.9)"/><path class="cls-9" d="M467.63,678.9c-.19.12-.38.33-.58.35-1.34.08-3,1.41-3.87.1-.58-.91.68-2.38,1.49-3.43A8.88,8.88,0,0,1,467.63,678.9Z" transform="translate(-74.78 -71.9)"/><path class="cls-9" d="M377.46,681.67l-4.84,1.06c.63-1.61.79-3,1.79-3.94C375.5,679.67,377.06,680.06,377.46,681.67Z" transform="translate(-74.78 -71.9)"/><path class="cls-9" d="M460.46,673c-1.38,0-2.66,1-4.18.39a7.41,7.41,0,0,1,1.33-3.19A4.38,4.38,0,0,1,460.46,673Z" transform="translate(-74.78 -71.9)"/><path class="cls-8" d="M328.48,662.1a2.35,2.35,0,0,0-.37-.14.63.63,0,0,0-.08-.4l.25-.21A.69.69,0,0,1,328.48,662.1Z" transform="translate(-74.78 -71.9)"/><path class="cls-13" d="M373.6,347.33l-.51,1.46a60.51,60.51,0,0,1-5.21,4.92c-6.27,5.44-12.61,10.76-20.14,14.49-2.13,1.05-4.28,2.1-6.35,3.29a2,2,0,0,1-2-1c-1.44-1.81-2.91-3.6-4.39-5.37-.32-.38-.49-1-1.33-.92-.29,1-.57,2.11-.89,3.16A74.51,74.51,0,0,0,329.56,390c.08,7.5.8,15,1.09,22.46a77,77,0,0,0,1.18,10.15l-22.91,0c2.7-1.93,2.81-3.43.36-5.28a1.77,1.77,0,0,1-.09-1.44c1.11-1.82.84-3.21-1.05-4.19a39.16,39.16,0,0,0-4.15-1.61,3.62,3.62,0,0,0-2.26-.9l-.11-.06-.92-1.23a11.26,11.26,0,0,0-6.33-5.8c-3.35-1.34-6.51-1.77-10-.39-4.14,1.65-8.38,3.08-12.62,4.5-3.4,1.14-6.8,2.32-10.52,1.88a9.84,9.84,0,0,0-3.07.38,20.13,20.13,0,0,1-8.54.37c-9.44-2-18.9-3.94-28.43-5.5a2.21,2.21,0,0,1-1.63-.89c0-3.5.11-7,.33-10.51a105.67,105.67,0,0,0-1-19.55A63.34,63.34,0,0,0,217,362.35c-.6,1.61-1.16,2.84-1.51,4.14a3.43,3.43,0,0,1-2.11,2.4c-4.45-.29-8.89-.54-13.36-.54s-9-1-13.51-1.51c-1.25-.52-2.69-.44-3.88-1.19.17-.77.37-1.55.5-2.33a108.47,108.47,0,0,1,5.67-20.7c2.6-6.95,5.43-13.79,8.3-20.63a93.49,93.49,0,0,1,8.68-16.47c5.61-8.26,12.48-15.1,21.54-19.56a13.6,13.6,0,0,0,3.74-2.52c3-.62,6-1.12,8.89-1.87,4.23-1.09,8.54-2,12.33-4.34.82-.5,1.37-.1,2,.24,1.45.83,2.8,1.89,4.31,2.57a57,57,0,0,0,14.74,4.75,24.26,24.26,0,0,0,6.13.47c7.23-.47,13.41-3.44,18.91-8a14.54,14.54,0,0,1,4.75.16c4.12.86,8.32,1.27,12.42,2.27,6.08,1.49,11.82,3.65,16.8,7.59,2.25,1.79,4.18,3.9,6.37,5.74a213.31,213.31,0,0,1,22.05,32.15C365,332.59,369.31,339.94,373.6,347.33Z" transform="translate(-74.78 -71.9)"/><path class="cls-15" d="M298.36,277.26c-5.5,4.56-11.68,7.53-18.91,8a24.26,24.26,0,0,1-6.13-.47,1.66,1.66,0,0,1-.2-1.35,54,54,0,0,1,5.09-11.81,12.56,12.56,0,0,1,3.91-4.41,2.92,2.92,0,0,0,1.49-1.86c-1.54-.09-3-.28-4.36-.43a48.28,48.28,0,0,1-16.73-5.26A10,10,0,0,1,257.9,255a44.44,44.44,0,0,1-3.2-8.22,6.28,6.28,0,0,0-5.26-4.89,9.11,9.11,0,0,1-5.21-3.12c-2.69-3-4.38-6.43-4-10.61.34-3.49,1.85-5.33,5.19-5.2a46.35,46.35,0,0,1,5,10.5c.69,2.14,1.73,2.38,3.59,1.12,1.09-.73,1.06-1.63.66-2.7a77.21,77.21,0,0,1-3.25-12.69c2-1.63,4.55-2.18,7-3.37a27.85,27.85,0,0,0,2.59,6.26,11.83,11.83,0,0,0,6.4,5.5,9.71,9.71,0,0,0,12.26-5.49,17.67,17.67,0,0,0,1.17-6.56c0-2.33,1-3.45,3.31-3.58,1.82-.1,2.12.14,2.58,1.95a17.6,17.6,0,0,0,3.74,7.67,9.41,9.41,0,0,0,10.7,2.37,9.09,9.09,0,0,0,3.61-3.37c.62,1.46,1.41,2.84,2.06,4.3a15.66,15.66,0,0,1,.73,11,34.05,34.05,0,0,1-2.22,6,61.75,61.75,0,0,0-3.31,9.47c-.66,2.13-1.32,4.26-1.9,6.41s-2,3.57-2.84,5.45c-.83.23-1.5.64-1.47,1.62.07,2.45-.21,4.89.35,7.35C296.72,274,298,275.44,298.36,277.26Zm-14.52-37c1.75-.3,3.66-.5,5.49-1a9.48,9.48,0,0,0,4.74-2.65,3.92,3.92,0,0,0,.94-4.16,5.37,5.37,0,0,0-2.39-2.84c-2.89-2-5.3-4.35-6.22-7.89l-.06-.23c-.16-.53-.28-1.25-1-1s-.45,1-.39,1.46a8.14,8.14,0,0,0,1.28,3.57,20.23,20.23,0,0,0,5.75,5.65c2.21,1.5,2.13,3.79-.13,5.19a9.38,9.38,0,0,1-4.46,1.59c-1.35.06-2.63.65-4,.53-.58-.05-1.16.24-1.12.94s.65.82,1.23.86C283.55,240.3,283.63,240.29,283.84,240.29Zm.66,12c1.22-.26,3-.63,4.79-1a.78.78,0,0,0,.65-.87.89.89,0,0,0-1-.77,12.21,12.21,0,0,0-1.86.43c-4.38,1.17-8.2.34-11.28-3.14-.69-.78-1.37-1.56-2.07-2.32a.68.68,0,0,0-.87-.18.66.66,0,0,0-.3.82,4.12,4.12,0,0,0,.51,1.08A14,14,0,0,0,284.5,252.26ZM243.17,230.9v1.18a3.85,3.85,0,0,0,0,.48c.05.49.15,1,.8.9.5-.06.58-.51.56-.9-.07-1.72.12-3.33,1.51-4.57a.7.7,0,0,0,.09-1.05.8.8,0,0,0-1.24-.05A5,5,0,0,0,243.17,230.9Zm4.74,3.48a6.05,6.05,0,0,0,0-.83c-.07-.56-.2-1.17-.91-1.16s-.84.61-.91,1.19c0,.15,0,.31,0,.47,0,.71-.06,1.67.83,1.73C248,235.85,247.88,234.8,247.91,234.38Z" transform="translate(-74.78 -71.9)"/><path class="cls-16" d="M244.14,220.19a34.53,34.53,0,0,1-4.56-11.72,46.87,46.87,0,0,1,.14-19c2.74-12.19,12.69-19.7,24.35-20.55a17.24,17.24,0,0,1,5.45.57,50.86,50.86,0,0,1,5.31,1.47,13.63,13.63,0,0,0,10.47-.57,41.75,41.75,0,0,1,4.27-1.55,10.08,10.08,0,0,1,10.39,2.5,11.1,11.1,0,0,0,3.79,2.45c2.62.93,3.68.59,5.24-1.75a4.19,4.19,0,0,0,.36-.62,1,1,0,0,1,1.17-.6.9.9,0,0,1,.54,1.18c-.36,1.55-.25,3.19-1,5a7.36,7.36,0,0,1,6.29,3.31,6.56,6.56,0,0,1-.37,8.57,2.91,2.91,0,0,1-.9.75.68.68,0,0,1-1.05-.57,5.91,5.91,0,0,1,.08-1.18c.26-3.14-2.3-5.07-5.2-3.94a5.19,5.19,0,0,0-3,4.57,2.18,2.18,0,0,0,1.51,2.2c1,.38,1.69-.27,2.22-1,.41-.57.67-1.26,1-1.87a.79.79,0,0,1,.81-.41.77.77,0,0,1,.73.8c0,3-.19,5.9-2.77,8.05a12.54,12.54,0,0,1-7.14,3,23,23,0,0,1-10.6-2.43,30.85,30.85,0,0,0-5.38-2,33.91,33.91,0,0,0-14.17-1.23c-5.66.86-10.91,2.94-16.16,5a6.68,6.68,0,0,0-4.2,5.17,44.86,44.86,0,0,0-.65,13.08A12.42,12.42,0,0,1,244.14,220.19Z" transform="translate(-74.78 -71.9)"/><path class="cls-14" d="M254.21,277.35" transform="translate(-74.78 -71.9)"/><path class="cls-17" d="M253.69,263.25c.06-2.07,0-8.19.07-11.7a16.58,16.58,0,0,0-.79-4.69,4,4,0,0,0-3.47-3.19c-6.44-.78-11-8.81-11.06-14.2a5.21,5.21,0,0,1,.36-2.34,5.41,5.41,0,0,0,1.35-2.19,9.11,9.11,0,0,1,2.34-1.95c1-.51,1.95-1.05,3.06-.35a2.37,2.37,0,0,1-.09.36c-3.34-.13-4.85,1.71-5.19,5.2-.42,4.18,1.27,7.58,4,10.61a9.11,9.11,0,0,0,5.21,3.12,6.28,6.28,0,0,1,5.26,4.89,44.44,44.44,0,0,0,3.2,8.22,10,10,0,0,0,4.62,4.63,48.28,48.28,0,0,0,16.73,5.26c1.4.15,2.82.34,4.36.43a2.92,2.92,0,0,1-1.49,1.86,12.56,12.56,0,0,0-3.91,4.41,54,54,0,0,0-5.09,11.81,1.66,1.66,0,0,0,.2,1.35A57,57,0,0,1,258.58,280c-1.51-.68-2.86-1.74-4.31-2.57" transform="translate(-74.78 -71.9)"/><path class="cls-17" d="M182.66,365.66c1.19.74,2.63.66,3.89,1.18a5.15,5.15,0,0,0-1.17,2.07c-1.39,4.22-3.07,8.37-4.11,12.7-1.51,6.32-2.9,12.68-4.31,19-.58,2.55-1.11,5.11-1.5,7.7-.44,2.9-.59,5.84-1.07,8.73-.85,5.17,0,9.64,4.83,12.59a.72.72,0,0,1,.14.19,52.87,52.87,0,0,1-11.82-1.31c-5.35-1.41-7.56-5-6.61-10.33.73-4.07,1.18-8.18,1.75-12.28A101.69,101.69,0,0,0,165.83,392,187.65,187.65,0,0,1,170,373c.78-3.08,1.2-6.24,2.16-9.27a6.91,6.91,0,0,1,.71-1.76,14,14,0,0,0,3,1.69C178.09,364.53,180.22,365.61,182.66,365.66Z" transform="translate(-74.78 -71.9)"/><path class="cls-14" d="M298.36,277.26c-.33-1.82-1.64-3.22-2.06-5-.56-2.46-.28-4.9-.35-7.35,0-1,.64-1.39,1.47-1.62,4.76-.32,9.53-.58,14.28-1,3.41-.27,6.85-.14,10.24-.71a13.77,13.77,0,0,1,8.32,1.62,6.67,6.67,0,0,1,3.15,3.47A55.64,55.64,0,0,1,337.17,281c.58,4,1.35,8,1.53,12.07-2.19-1.84-4.12-3.95-6.37-5.74-5-3.94-10.72-6.1-16.8-7.59-4.1-1-8.3-1.41-12.42-2.27A14.54,14.54,0,0,0,298.36,277.26Z" transform="translate(-74.78 -71.9)"/><path class="cls-15" d="M251.2,216.91a44.86,44.86,0,0,1,.65-13.08,6.68,6.68,0,0,1,4.2-5.17c5.25-2.06,10.5-4.14,16.16-5a33.91,33.91,0,0,1,14.17,1.23,30.85,30.85,0,0,1,5.38,2,23,23,0,0,0,10.6,2.43c-.52.35-1.35.42-.86,1.47a7.64,7.64,0,0,1,.77,3.13,6,6,0,0,1-.95-.07c-4.25-.91-8.35,0-12.42,1.06-.57.15-1.17.42-1,1.08s.78.63,1.36.44c.3-.1.61-.15.92-.22,3.8-.95,7.62-1.55,11.51-.55a1.81,1.81,0,0,0,1.33-.32c.06.46.11.92.17,1.38A23.17,23.17,0,0,0,288.82,209c-1.53.82-2.77,1.95-4.68,1.4a3,3,0,0,0-1.4.25,4.19,4.19,0,0,1-4-.37,9.24,9.24,0,0,0-2.71-.87,29.93,29.93,0,0,0-11.85.34,8.15,8.15,0,0,0-5.18,3.57c-.25.4-.45.88-.93,1.05C255.74,215.16,253.65,216.51,251.2,216.91Zm21.68-10.09c.95.09,1.9.2,2.85.25a.77.77,0,0,0,.85-.67c.07-.47-.33-.67-.71-.81a1.8,1.8,0,0,0-.46-.1A26.59,26.59,0,0,0,260.54,208c-.5.24-1.14.56-.85,1.22s1.05.48,1.65.26c.37-.15.72-.35,1.09-.49A26.41,26.41,0,0,1,272.88,206.82Z" transform="translate(-74.78 -71.9)"/><path class="cls-18" d="M162.68,405.92c-.57,4.1-1,8.21-1.75,12.28-1,5.36,1.26,8.92,6.61,10.33a52.87,52.87,0,0,0,11.82,1.31c1.21.92,2.62.26,3.92.49.63.11,1.52-.35,1.73.74-2.46,0-4.93.08-7.4.08l-36.56,0-.55-.79a70.32,70.32,0,0,0,5.35-14.48,95.94,95.94,0,0,0,2.27-18.64c0-.48.06-.95.09-1.43,2.52,1.37,4.45,3.51,6.78,5.12C157.51,402.63,159.81,404.72,162.68,405.92Z" transform="translate(-74.78 -71.9)"/><path class="cls-7" d="M202.91,268.68c5.64,1.84,7.79,6.39,9,11.63.51,2.16,1,4.34,1.46,6.5a7.55,7.55,0,0,1-1.06.54c-5.23,1.79-9.2,5.23-12.6,9.47-2.79,3.48-5.11,7.29-7.7,10.91-.55-5.13-1-10.28-1.69-15.39a76.84,76.84,0,0,1-.92-12.12,13.13,13.13,0,0,1,4.63-9.6,7.91,7.91,0,0,1,5.27-2C200.52,268.61,201.72,268.66,202.91,268.68Z" transform="translate(-74.78 -71.9)"/><path class="cls-13" d="M192,307.73c2.59-3.62,4.91-7.43,7.7-10.91,3.4-4.24,7.37-7.68,12.6-9.47a7.55,7.55,0,0,0,1.06-.54,32.75,32.75,0,0,1,4.36-1,40.76,40.76,0,0,0-9,7.37,81.9,81.9,0,0,0-9.58,13.13A240.87,240.87,0,0,0,177.69,355a28.2,28.2,0,0,0-1.79,8.63,14,14,0,0,1-3-1.69c-.94-1-.73-2.14-.39-3.35,2.36-8.3,5.09-16.47,8-24.57a226.63,226.63,0,0,1,9-21.41C190.3,311,191.18,309.36,192,307.73Z" transform="translate(-74.78 -71.9)"/><path class="cls-13" d="M251.2,216.91c2.45-.4,4.54-1.75,6.83-2.55.48-.17.68-.65.93-1.05a8.15,8.15,0,0,1,5.18-3.57A29.93,29.93,0,0,1,276,209.4a9.24,9.24,0,0,1,2.71.87,4.19,4.19,0,0,0,4,.37,3,3,0,0,1,1.4-.25c1.91.55,3.15-.58,4.68-1.4a23.17,23.17,0,0,1,14.35-2.32c4.58,2.08,5.14,3.33,4,8.19a43.06,43.06,0,0,1-2.24,5.75,9.09,9.09,0,0,1-3.61,3.37,9.41,9.41,0,0,1-10.7-2.37,17.6,17.6,0,0,1-3.74-7.67c-.46-1.81-.76-2.05-2.58-1.95-2.32.13-3.34,1.25-3.31,3.58a17.67,17.67,0,0,1-1.17,6.56,9.71,9.71,0,0,1-12.26,5.49,11.83,11.83,0,0,1-6.4-5.5,27.85,27.85,0,0,1-2.59-6.26c-2.49,1.19-5,1.74-7,3.37-1.19.56-2.4,1.09-3.55,1.71-.87.46-2,.62-2.4,1.7-1.11-.7-2.1-.16-3.06.35a9.11,9.11,0,0,0-2.34,1.95c-.31-.18-.28-.52-.36-.8.58-1.36,1.94-1.77,3-2.49.57-.38,1.38-.51,1.31-1.46A12.42,12.42,0,0,0,251.2,216.91Zm52.42-5.58c-.23-.91.51-1.38,1-2-.25-.17-.43-.33-.63-.44a2.67,2.67,0,0,0-.66-.26c-5-1.19-9.63-.22-14.1,2a2,2,0,0,0-.9,2.48,13.76,13.76,0,0,0,3.93,7.74c4.42,4.17,10.72,2.1,11.93-3a8,8,0,0,0,1.39-4.14C305.8,211.67,305.76,211.67,303.62,211.33Zm-24.22,4.46c.1-3.19-1.54-5-5.14-5.22a34.81,34.81,0,0,0-8.82.62,7.72,7.72,0,0,0-4.25,2.07,2.33,2.33,0,0,0-.86,2.34c1.12,4,2.73,7.61,6.56,9.88,3.51,2.08,9.82.73,11.51-4.24A21.83,21.83,0,0,0,279.4,215.79Z" transform="translate(-74.78 -71.9)"/><path class="cls-16" d="M303,205.29a1.81,1.81,0,0,1-1.33.32c-3.89-1-7.71-.4-11.51.55-.31.07-.62.12-.92.22-.58.19-1.2.28-1.36-.44s.45-.93,1-1.08c4.07-1.08,8.17-2,12.42-1.06a6,6,0,0,0,.95.07C302.65,204.27,303.1,204.64,303,205.29Z" transform="translate(-74.78 -71.9)"/><path class="cls-5" d="M239.79,224.14c.08.28.05.62.36.8a5.41,5.41,0,0,1-1.35,2.19A4,4,0,0,1,239.79,224.14Z" transform="translate(-74.78 -71.9)"/><path class="cls-15" d="M185,431.07c-.21-1.09-1.1-.63-1.73-.74-1.3-.23-2.71.43-3.92-.49a.72.72,0,0,0-.14-.19c-4.88-2.95-5.68-7.42-4.83-12.59.48-2.89.63-5.83,1.07-8.73.39-2.59.92-5.15,1.5-7.7,1.41-6.34,2.8-12.7,4.31-19,1-4.33,2.72-8.48,4.11-12.7a5.15,5.15,0,0,1,1.17-2.07c4.49.55,8.95,1.51,13.5,1.51s8.91.25,13.36.54c.8.74.51,1.59.25,2.43a109,109,0,0,1-8.35,20c-.72,1.32-1.74,2.49-2,4-1.53,1.31-2.34,3.16-3.47,4.77-.56.81-.24,1.26.85,1.33s2.07,0,3.1,0a64,64,0,0,1,6.65.13q4.58.54,9.16.85a2.21,2.21,0,0,0,1.63.89c9.53,1.56,19,3.5,28.43,5.5a20.13,20.13,0,0,0,8.54-.37,9.84,9.84,0,0,1,3.07-.38c3.72.44,7.12-.74,10.52-1.88,4.24-1.42,8.48-2.85,12.62-4.5,3.45-1.38,6.61-.95,10,.39a11.26,11.26,0,0,1,6.33,5.8,9.63,9.63,0,0,1-3.83-1.07,17.3,17.3,0,0,0-7.5-1,9.24,9.24,0,0,0-3.58,1,4.46,4.46,0,0,0,2.91.18,15,15,0,0,1,7.75.43c1.71.61,3.27,1.7,5.17,1.7l.11.06a2.54,2.54,0,0,0,2.26.9,39.16,39.16,0,0,1,4.15,1.61c1.89,1,2.16,2.37,1.05,4.18-1,.81-2,.05-2.93-.18a61.76,61.76,0,0,1-6.81-2.13c-3.65-1.35-7.35-.57-11-.31-.86.06-2-.14-2.81.59.2.54.54.61.83.54,3.38-.83,6.81-.27,10.22-.41a4.12,4.12,0,0,1,1.63.24c3.59,1.3,7.3,2.15,11,3.11,2.45,1.85,2.34,3.35-.36,5.28l-.88.08c-1.88-.62-3.72-1.39-5.64-1.82-2.92-.65-5.75-1.9-8.84-1.62-2.05.19-4.07.58-6.14.58-.24,0-.3.31-.26.67a11,11,0,0,0,4.42-.05,13.55,13.55,0,0,1,5.42,0,48.7,48.7,0,0,1,7.78,2.14,7.15,7.15,0,0,0,3,.48c.21.22.44.44.64.68,1.19,1.37,1.17,2.13-.08,3.4-.27.27-.59.48-.89.73a7.24,7.24,0,0,1-3.76,1.06,4.09,4.09,0,0,1-1,.19l-1,.18c-4.3-2.44-15.34-3.87-17.1-2,2.74.24,5.36-.1,7.92.51s5,.72,7.3,1.88l-2.83.74c-.86-.35-1.52.55-2.35.4-6.05,0-12.1-.16-18.15.1l-.71-.07c-.08-.14-1.63-.31-1.6-.42-4.29-.46-8.45-1.63-12.71-2.31-4.09-.65-8.16-1.63-12.34-.75-1.48.31-3,.69-4.43,1A114.44,114.44,0,0,1,222.85,431c-1.36-.48-2.63.27-4,.26-10.66-.05-21.31,0-32,0C186.27,431.25,185.64,431.13,185,431.07Z" transform="translate(-74.78 -71.9)"/><path class="cls-8" d="M307.43,431.21l0-.94,0-1a11.7,11.7,0,0,1,.11-1.37c.3-.25.62-.46.89-.73,1.25-1.27,1.27-2,.08-3.4-.2-.24-.43-.46-.64-.68a.86.86,0,0,0,.23-.39l.88-.08,22.91,0a5,5,0,0,0,1.35.4c4.2,0,8.42.21,12.62-.08,7.51.24,15,.12,22.52.12-.8,2.54-.37,5.16-.48,7.74-.85.67-1.85.36-2.77.36q-22.85,0-45.69,0" transform="translate(-74.78 -71.9)"/><path class="cls-14" d="M243.55,509a29,29,0,0,1-12.06.6c-2.1-.37-4.23-.68-6.34-1A14.48,14.48,0,0,1,213.53,497a2.92,2.92,0,0,1-.08-.71c.24-3.84-.95-7.66-.42-11.45.56-4,.11-8.11.77-12.14.39-2.34.28-4.76.49-7.14.19-2.13.85-4.24.57-6.41l3.43-.05a41.79,41.79,0,0,0-.08,5.25,19.8,19.8,0,0,0-1.16,5.84c-.68,6-1.44,12-.8,18.13.69,6.51,3.07,12.08,8.81,15.7a28.89,28.89,0,0,0,13.5,4.49C240.22,508.66,241.92,508.44,243.55,509Z" transform="translate(-74.78 -71.9)"/><path class="cls-13" d="M222.85,431a114.44,114.44,0,0,0,21.83-2.55c1.48-.34,2.95-.72,4.43-1,4.18-.88,8.25.1,12.34.75,4.26.68,8.42,1.85,12.71,2.31a13,13,0,0,1,1.32.2c.24,0,.75.27,1,.29-.8,0-1.59.11-2.39.11-16.44,0-32.88.25-49.32,0C224.13,431.08,223.49,431,222.85,431Z" transform="translate(-74.78 -71.9)"/><path class="cls-13" d="M218.21,464.38a41.79,41.79,0,0,1,.08-5.25h5.49l43.77,0c.48,0,1,.06,1.43.09a2.19,2.19,0,0,1-1.37.31c-4.6.14-9.2,0-13.82.41q-7.33.66-14.64,1.66c-4.31.58-8.58,1.44-12.93,1.83a39.36,39.36,0,0,0-4.69.72A14.26,14.26,0,0,1,218.21,464.38Z" transform="translate(-74.78 -71.9)"/><path class="cls-15" d="M140.5,430.31l.55.79-1,.17A1.12,1.12,0,0,1,140.5,430.31Z" transform="translate(-74.78 -71.9)"/><path class="cls-13" d="M328.48,662.1a.69.69,0,0,0-.2-.75l-.69-3.62c3.23-.83,6.59-1,9.82-1.88,5.54-1.45,11.25-2.13,16.73-3.84a2.85,2.85,0,0,1,.72,0,47.86,47.86,0,0,0-.48,7.08,21.78,21.78,0,0,0-11.68,4.29,4.48,4.48,0,0,0-2.12,4.68c.16,1.09.45,2.17.7,3.26a3.17,3.17,0,0,1-.43,2.51c-1.24,1.93-4.79,3.19-7,2.57a3.13,3.13,0,0,1-2.2-2.29C330.37,670.13,329.36,666.13,328.48,662.1Z" transform="translate(-74.78 -71.9)"/><path class="cls-8" d="M377,508.55a5.89,5.89,0,0,1-1.14.27q-13.38.42-26.76,0c-.48,0-.95-.08-1.43-.13l-.05-.21Z" transform="translate(-74.78 -71.9)"/><path class="cls-15" d="M368.32,423.07c-7.51,0-15,.12-22.52-.12,0-.13.05-.26.08-.39.71-.26.82-.9,1-1.52.77-2.74,1.53-5.48,2.32-8.22s1.46-5.21,3.69-7a.61.61,0,0,0,.56-.43l0,0c.45-.21.49-.59.44-1l.4-.47c1.08.07,1.58-.42,1.5-1.51l.43-.41a2.37,2.37,0,0,0,1.8-.39,16.12,16.12,0,0,1,6.91-3c.46-.06.91-.35.7-1.17-1.71.11-3.2,1.24-4.94,1.25A183.92,183.92,0,0,1,347,380.5a14.66,14.66,0,0,0-3-3.88c-.37-1.94-2-3.26-2.52-5.13,2.07-1.19,4.22-2.24,6.35-3.29,7.53-3.73,13.87-9.05,20.14-14.49a60.51,60.51,0,0,0,5.21-4.92c1.16,1.41.62,3.12.39,4.54-.44,2.77-.26,5.56-.69,8.33-.48,3.06-.4,6.19-.65,9.29-.4,5.07-.87,10.14-1.3,15.21-.19,2.3-.32,4.61-.45,6.91-.18,3.18-.45,6.36-.71,9.52-.41,4.83-.58,9.68-1.23,14.5A49.57,49.57,0,0,0,368.32,423.07Z" transform="translate(-74.78 -71.9)"/><path class="cls-14" d="M127,367.53c0,.45-.29.75-.76.69a.71.71,0,0,1-.67-.83.62.62,0,0,1,.64-.58C126.66,366.79,126.9,367.08,127,367.53Z" transform="translate(-74.78 -71.9)"/><path class="cls-14" d="M143.5,327.05a.72.72,0,0,1-.71-.79.61.61,0,0,1,.56-.64.73.73,0,0,1,.82.67C144.23,326.76,143.93,327,143.5,327.05Z" transform="translate(-74.78 -71.9)"/><path class="cls-14" d="M136.86,337.54c.53.15.82.46.7,1a.64.64,0,0,1-.87.5.8.8,0,0,1-.6-.87A.68.68,0,0,1,136.86,337.54Z" transform="translate(-74.78 -71.9)"/><path class="cls-14" d="M100.66,342.14c0,.5-.3.78-.74.78a.83.83,0,0,1-.92-.85.7.7,0,0,1,.73-.75A.85.85,0,0,1,100.66,342.14Z" transform="translate(-74.78 -71.9)"/><path class="cls-14" d="M120.58,373.83c-.08.38-.26.73-.74.67a.74.74,0,0,1-.71-.77.65.65,0,0,1,.74-.69A.72.72,0,0,1,120.58,373.83Z" transform="translate(-74.78 -71.9)"/><path class="cls-14" d="M144.64,343.86a.82.82,0,0,1-.88.65.62.62,0,0,1-.61-.8.77.77,0,0,1,.86-.63A.66.66,0,0,1,144.64,343.86Z" transform="translate(-74.78 -71.9)"/><path class="cls-14" d="M130,387.14a.77.77,0,0,1,.79.86c0,.46-.4.63-.84.59a.83.83,0,0,1-.78-.74C129.12,387.42,129.44,387.16,130,387.14Z" transform="translate(-74.78 -71.9)"/><path class="cls-14" d="M136.05,365.54a.72.72,0,0,1-1,.47.65.65,0,0,1-.5-.88.67.67,0,0,1,.93-.44A.71.71,0,0,1,136.05,365.54Z" transform="translate(-74.78 -71.9)"/><path class="cls-14" d="M118.87,363.77a.82.82,0,0,1,.83.7.72.72,0,0,1-.59.89.77.77,0,0,1-1-.79C118.12,364.11,118.44,363.86,118.87,363.77Z" transform="translate(-74.78 -71.9)"/><path class="cls-14" d="M126.92,338.62c-.13.45-.4.69-.86.6a.64.64,0,0,1-.53-.87.62.62,0,0,1,.7-.51A.73.73,0,0,1,126.92,338.62Z" transform="translate(-74.78 -71.9)"/><path class="cls-14" d="M112.83,360.59a.69.69,0,0,1-.73-.73.61.61,0,0,1,.51-.67.67.67,0,0,1,.84.58C113.53,360.23,113.21,360.45,112.83,360.59Z" transform="translate(-74.78 -71.9)"/><path class="cls-14" d="M131.7,342.31a.81.81,0,0,1,.7.83c0,.47-.23.79-.69.77a.74.74,0,0,1-.72-.79C131,342.64,131.28,342.42,131.7,342.31Z" transform="translate(-74.78 -71.9)"/><path class="cls-14" d="M141.12,352.25a.83.83,0,0,1,.88.85.64.64,0,0,1-.71.71.81.81,0,0,1-.76-.74A.69.69,0,0,1,141.12,352.25Z" transform="translate(-74.78 -71.9)"/><path class="cls-14" d="M99.21,349.39c-.08.44-.32.74-.79.64a.72.72,0,0,1-.57-.9.59.59,0,0,1,.65-.55A.76.76,0,0,1,99.21,349.39Z" transform="translate(-74.78 -71.9)"/><path class="cls-14" d="M124.89,330.77c.38.13.71.31.72.77a.66.66,0,0,1-.69.74.74.74,0,0,1-.71-.76C124.19,331.06,124.46,330.84,124.89,330.77Z" transform="translate(-74.78 -71.9)"/><path class="cls-14" d="M141.76,378a.68.68,0,0,1-.85.58.61.61,0,0,1-.54-.65c0-.43.23-.77.71-.7A.73.73,0,0,1,141.76,378Z" transform="translate(-74.78 -71.9)"/><path class="cls-14" d="M132.4,332.11c0,.48-.25.77-.71.72A.71.71,0,0,1,131,332a.61.61,0,0,1,.62-.6A.66.66,0,0,1,132.4,332.11Z" transform="translate(-74.78 -71.9)"/><path class="cls-14" d="M138.45,387.06a.69.69,0,0,1-.76.7c-.38,0-.55-.28-.56-.61a.61.61,0,0,1,.71-.71A.67.67,0,0,1,138.45,387.06Z" transform="translate(-74.78 -71.9)"/><path class="cls-14" d="M105.52,344.78c0,.54-.31.75-.77.7a.66.66,0,0,1-.59-.63.64.64,0,0,1,.66-.79A.67.67,0,0,1,105.52,344.78Z" transform="translate(-74.78 -71.9)"/><path class="cls-14" d="M110.68,377.39a.64.64,0,0,1-.46.75c-.48.15-.75-.1-.85-.54a.61.61,0,0,1,.44-.74C110.28,376.71,110.52,377,110.68,377.39Z" transform="translate(-74.78 -71.9)"/><path class="cls-14" d="M135.12,381.34a.65.65,0,0,1-.59.68.61.61,0,0,1-.74-.68.57.57,0,0,1,.55-.64A.71.71,0,0,1,135.12,381.34Z" transform="translate(-74.78 -71.9)"/><path class="cls-14" d="M140.67,371.54a.69.69,0,0,1-1.37-.17c.06-.5.45-.61.88-.54S140.68,371.17,140.67,371.54Z" transform="translate(-74.78 -71.9)"/><path class="cls-14" d="M111.46,345.31a.61.61,0,0,1-.54.63c-.42.05-.79-.1-.82-.58a.62.62,0,0,1,.53-.65A.7.7,0,0,1,111.46,345.31Z" transform="translate(-74.78 -71.9)"/><path class="cls-14" d="M114.09,387.54c-.45-.06-.76-.3-.76-.72a.64.64,0,0,1,.77-.63.62.62,0,0,1,.59.58A.63.63,0,0,1,114.09,387.54Z" transform="translate(-74.78 -71.9)"/><path class="cls-14" d="M121.65,388c-.42-.1-.72-.3-.66-.78a.65.65,0,0,1,1.29.22C122.23,387.84,122,388,121.65,388Z" transform="translate(-74.78 -71.9)"/><path class="cls-14" d="M131.66,375.19c-.33-.08-.64-.16-.68-.55a.66.66,0,1,1,1.3,0C132.25,375,131.92,375.08,131.66,375.19Z" transform="translate(-74.78 -71.9)"/><path class="cls-14" d="M130,350.74a.71.71,0,0,1,.84.64.64.64,0,0,1-.67.74.61.61,0,0,1-.64-.53A.66.66,0,0,1,130,350.74Z" transform="translate(-74.78 -71.9)"/><path class="cls-14" d="M104.91,351.55c-.41-.12-.75-.3-.68-.8a.68.68,0,0,1,1.34.24C105.52,351.36,105.25,351.5,104.91,351.55Z" transform="translate(-74.78 -71.9)"/><path class="cls-14" d="M116.93,353.71c-.11.4-.32.69-.78.64a.58.58,0,0,1-.54-.63.61.61,0,0,1,.75-.63A.65.65,0,0,1,116.93,353.71Z" transform="translate(-74.78 -71.9)"/><path class="cls-14" d="M123.77,355.46a.58.58,0,0,1-.5.67.65.65,0,0,1-.83-.58.55.55,0,0,1,.5-.66C123.4,354.78,123.67,355,123.77,355.46Z" transform="translate(-74.78 -71.9)"/><path class="cls-14" d="M105.35,357.72a.64.64,0,0,1-.81-.64.56.56,0,0,1,.55-.62.64.64,0,0,1,.78.63A.62.62,0,0,1,105.35,357.72Z" transform="translate(-74.78 -71.9)"/><path class="cls-14" d="M136.94,346.84a.66.66,0,0,1,.63.75.63.63,0,0,1-.8.59.66.66,0,0,1-.56-.63C136.18,347.1,136.45,346.85,136.94,346.84Z" transform="translate(-74.78 -71.9)"/><path class="cls-14" d="M128.1,359.88c0,.35-.17.64-.54.65a.69.69,0,0,1-.78-.68.57.57,0,0,1,.56-.64A.63.63,0,0,1,128.1,359.88Z" transform="translate(-74.78 -71.9)"/><path class="cls-14" d="M138.81,329.13c.41.11.72.31.65.78a.59.59,0,0,1-.64.53.63.63,0,0,1-.64-.76C138.23,329.31,138.52,329.22,138.81,329.13Z" transform="translate(-74.78 -71.9)"/><path class="cls-14" d="M140.48,360.29a.62.62,0,0,1-.75.47.6.6,0,0,1-.51-.85.59.59,0,0,1,.72-.43A.65.65,0,0,1,140.48,360.29Z" transform="translate(-74.78 -71.9)"/><path class="cls-14" d="M127.14,324.31a.66.66,0,0,1,.79.64.62.62,0,0,1-.55.65.64.64,0,0,1-.77-.65A.56.56,0,0,1,127.14,324.31Z" transform="translate(-74.78 -71.9)"/><path class="cls-14" d="M109.32,352.26a.6.6,0,0,1,.64-.55.65.65,0,0,1,.67.77.62.62,0,0,1-.66.56C109.52,353,109.29,352.74,109.32,352.26Z" transform="translate(-74.78 -71.9)"/><path class="cls-14" d="M134.85,356.42c-.51,0-.81-.2-.86-.63a.66.66,0,0,1,.67-.76.58.58,0,0,1,.63.53C135.36,356,135.26,356.31,134.85,356.42Z" transform="translate(-74.78 -71.9)"/><path class="cls-14" d="M113.05,371.43a.63.63,0,0,1-.66-.5c-.06-.47.25-.7.67-.69a.54.54,0,0,1,.55.6A.58.58,0,0,1,113.05,371.43Z" transform="translate(-74.78 -71.9)"/><path class="cls-14" d="M135.42,322.67c0,.35-.13.62-.51.64s-.62-.11-.63-.49.09-.64.48-.66A.6.6,0,0,1,135.42,322.67Z" transform="translate(-74.78 -71.9)"/><path class="cls-14" d="M126.19,381.63c-.07.43-.27.72-.75.66a.59.59,0,0,1-.55-.62.7.7,0,0,1,.78-.67C126.07,381,126.11,381.36,126.19,381.63Z" transform="translate(-74.78 -71.9)"/><path class="cls-14" d="M115.79,380.33a.69.69,0,0,1,.67-.76.54.54,0,0,1,.61.53.61.61,0,0,1-.63.76A.62.62,0,0,1,115.79,380.33Z" transform="translate(-74.78 -71.9)"/><path class="cls-14" d="M125.21,346.4a.5.5,0,0,1-.73.34.58.58,0,0,1-.29-.8c.13-.34.4-.51.72-.35A.63.63,0,0,1,125.21,346.4Z" transform="translate(-74.78 -71.9)"/><path class="cls-14" d="M144.81,334.88c-.08.22-.18.44-.48.36s-.44-.2-.37-.49.21-.42.49-.35S144.88,334.57,144.81,334.88Z" transform="translate(-74.78 -71.9)"/><path class="cls-14" d="M345.88,422.56c0,.13-.06.26-.08.39-4.2.29-8.42.08-12.62.08a5,5,0,0,1-1.35-.4,77,77,0,0,1-1.18-10.15c-.29-7.49-1-15-1.09-22.46a74.51,74.51,0,0,1,3.21-22.64c.32-1.05.6-2.12.89-3.16.84-.12,1,.54,1.33.92,1.48,1.77,2.95,3.56,4.39,5.37a2,2,0,0,0,2,1c.51,1.87,2.15,3.19,2.52,5.13a67.56,67.56,0,0,0,.11,10.26,166.68,166.68,0,0,1,1.27,16.85C345.38,410,345.69,416.28,345.88,422.56Z" transform="translate(-74.78 -71.9)"/><path class="cls-18" d="M175.9,363.64a28.2,28.2,0,0,1,1.79-8.63,240.87,240.87,0,0,1,21.46-48.7,81.9,81.9,0,0,1,9.58-13.13,40.76,40.76,0,0,1,9-7.37,10.77,10.77,0,0,1,3.6-1c3.29-.14,6.48-1,9.74-1.35a13.6,13.6,0,0,1-3.74,2.52c-9.06,4.46-15.93,11.3-21.54,19.56A93.49,93.49,0,0,0,197.13,322c-2.87,6.84-5.7,13.68-8.3,20.63a108.47,108.47,0,0,0-5.67,20.7c-.13.78-.33,1.56-.5,2.33C180.22,365.61,178.09,364.53,175.9,363.64Z" transform="translate(-74.78 -71.9)"/><path class="cls-7" d="M203.31,395.38c.26-1.55,1.28-2.72,2-4a109,109,0,0,0,8.35-20c.26-.84.55-1.69-.25-2.43a3.43,3.43,0,0,0,2.11-2.4c.35-1.3.91-2.53,1.51-4.14a63.34,63.34,0,0,1,1.88,10.08,105.67,105.67,0,0,1,1,19.55c-.22,3.51-.32,7-.33,10.51q-4.59-.32-9.16-.85a64,64,0,0,0-6.65-.13C204.09,399.43,203.19,397.45,203.31,395.38Z" transform="translate(-74.78 -71.9)"/><path class="cls-17" d="M309.28,417.37c-3.68-1-7.39-1.81-11-3.11a4.12,4.12,0,0,0-1.63-.24c-3.41.14-6.84-.42-10.22.41-.29.07-.63,0-.83-.54.78-.73,1.95-.53,2.81-.59,3.67-.26,7.37-1,11,.31a61.76,61.76,0,0,0,6.81,2.13c.91.23,1.91,1,2.93.18A1.79,1.79,0,0,0,309.28,417.37Z" transform="translate(-74.78 -71.9)"/><path class="cls-17" d="M301.62,409.17c-1.9,0-3.46-1.09-5.17-1.7a15,15,0,0,0-7.75-.43,4.46,4.46,0,0,1-2.91-.18,9.24,9.24,0,0,1,3.58-1,17.3,17.3,0,0,1,7.5,1,9.63,9.63,0,0,0,3.83,1.07Z" transform="translate(-74.78 -71.9)"/><path class="cls-13" d="M304,410.13a2.54,2.54,0,0,1-2.26-.9A3.62,3.62,0,0,1,304,410.13Z" transform="translate(-74.78 -71.9)"/><path class="cls-16" d="M245.55,222.64c.44-1.08,1.53-1.24,2.4-1.7,1.15-.62,2.36-1.15,3.55-1.71a77.21,77.21,0,0,0,3.25,12.69c.4,1.07.43,2-.66,2.7-1.86,1.26-2.9,1-3.59-1.12a46.35,46.35,0,0,0-5-10.5A2.37,2.37,0,0,0,245.55,222.64Z" transform="translate(-74.78 -71.9)"/><path class="cls-17" d="M283.84,240.29c-.21,0-.29,0-.37,0-.58,0-1.19-.17-1.23-.86s.54-1,1.12-.94c1.39.12,2.67-.47,4-.53a9.38,9.38,0,0,0,4.46-1.59c2.26-1.4,2.34-3.69.13-5.19a20.23,20.23,0,0,1-5.75-5.65,8.14,8.14,0,0,1-1.28-3.57c-.06-.5-.31-1.26.39-1.46s.85.51,1,1l.06.23c.92,3.54,3.33,5.91,6.22,7.89A5.37,5.37,0,0,1,295,232.5a3.92,3.92,0,0,1-.94,4.16,9.48,9.48,0,0,1-4.74,2.65C287.5,239.79,285.59,240,283.84,240.29Z" transform="translate(-74.78 -71.9)"/><path class="cls-17" d="M284.5,252.26a14,14,0,0,1-11.46-6,4.12,4.12,0,0,1-.51-1.08.66.66,0,0,1,.3-.82.68.68,0,0,1,.87.18c.7.76,1.38,1.54,2.07,2.32,3.08,3.48,6.9,4.31,11.28,3.14a12.21,12.21,0,0,1,1.86-.43.89.89,0,0,1,1,.77.78.78,0,0,1-.65.87C287.51,251.63,285.72,252,284.5,252.26Z" transform="translate(-74.78 -71.9)"/><path class="cls-17" d="M243.17,230.9a5,5,0,0,1,1.74-4,.8.8,0,0,1,1.24.05.7.7,0,0,1-.09,1.05c-1.39,1.24-1.58,2.85-1.51,4.57,0,.39-.06.84-.56.9-.65.08-.75-.41-.8-.9a3.85,3.85,0,0,1,0-.48Z" transform="translate(-74.78 -71.9)"/><path class="cls-17" d="M247.91,234.38c0,.42.12,1.47-1,1.4-.89-.06-.8-1-.83-1.73,0-.16,0-.32,0-.47.07-.58.21-1.18.91-1.19s.84.6.91,1.16A6.05,6.05,0,0,1,247.91,234.38Z" transform="translate(-74.78 -71.9)"/><path class="cls-16" d="M272.88,206.82A26.41,26.41,0,0,0,262.43,209c-.37.14-.72.34-1.09.49-.6.22-1.31.52-1.65-.26s.35-1,.85-1.22a26.59,26.59,0,0,1,14.87-2.52,1.8,1.8,0,0,1,.46.1c.38.14.78.34.71.81a.77.77,0,0,1-.85.67C274.78,207,273.83,206.91,272.88,206.82Z" transform="translate(-74.78 -71.9)"/><path class="cls-15" d="M279.4,215.79a21.83,21.83,0,0,1-1,5.45c-1.69,5-8,6.32-11.51,4.24-3.83-2.27-5.44-5.88-6.56-9.88a2.33,2.33,0,0,1,.86-2.34,7.72,7.72,0,0,1,4.25-2.07,34.81,34.81,0,0,1,8.82-.62C277.86,210.8,279.5,212.6,279.4,215.79Zm-6.11,4.84a6.8,6.8,0,0,0-.76-2.95,1.36,1.36,0,0,0-2.19-.38c-1.14.94-1,4.36.26,5.17a1.6,1.6,0,0,0,2.26-.52A6.59,6.59,0,0,0,273.29,220.63Z" transform="translate(-74.78 -71.9)"/><path class="cls-15" d="M304.17,217.88c-1.21,5.13-7.51,7.2-11.93,3a13.76,13.76,0,0,1-3.93-7.74,2,2,0,0,1,.9-2.48c4.47-2.25,9.13-3.22,14.1-2a2.67,2.67,0,0,1,.66.26c.2.11.38.27.63.44-.47.59-1.21,1.06-1,2A20.65,20.65,0,0,0,304.17,217.88Zm-4.86.43a5,5,0,0,0-.79-2.69,1.31,1.31,0,0,0-1.39-.7A1.4,1.4,0,0,0,296,216a4.12,4.12,0,0,0,.34,3c.37.75.9,1.39,1.83,1.15S299.29,219.14,299.31,218.31Z" transform="translate(-74.78 -71.9)"/><path class="cls-1" d="M304.17,217.88a20.65,20.65,0,0,1-.55-6.55c2.14.34,2.18.34,1.94,2.41A8,8,0,0,1,304.17,217.88Z" transform="translate(-74.78 -71.9)"/><path class="cls-17" d="M308,422.73a.86.86,0,0,1-.23.39,7.15,7.15,0,0,1-3-.48A48.7,48.7,0,0,0,297,420.5a13.55,13.55,0,0,0-5.42,0,11,11,0,0,1-4.42.05c0-.36,0-.67.26-.67,2.07,0,4.09-.39,6.14-.58,3.09-.28,5.92,1,8.84,1.62C304.32,421.34,306.16,422.11,308,422.73Z" transform="translate(-74.78 -71.9)"/><path class="cls-17" d="M299.8,429.72c-2.3-1.16-4.86-1.29-7.3-1.88s-5.18-.27-7.92-.51c1.76-1.84,12.8-.41,17.1,2C301.12,429.85,300.44,429.69,299.8,429.72Z" transform="translate(-74.78 -71.9)"/><path class="cls-13" d="M299.8,429.72c.64,0,1.32.13,1.88-.36l2-.37h0a7.24,7.24,0,0,0,3.76-1.06s0,.77,0,1.46,0,1.82,0,1.82c-3.33-.14-9.51.38-12.81-.35C295.56,430.61,298.86,430,299.8,429.72Z" transform="translate(-74.78 -71.9)"/><path class="cls-1" d="M203.31,395.38c-.12,2.07.78,4.05.48,6.13-1,0-2.07,0-3.1,0s-1.41-.52-.85-1.33C201,398.54,201.78,396.69,203.31,395.38Z" transform="translate(-74.78 -71.9)"/><path class="cls-1" d="M345.88,422.56c-.19-6.28-.5-12.55-.59-18.83A166.68,166.68,0,0,0,344,386.88a67.56,67.56,0,0,1-.11-10.26,14.66,14.66,0,0,1,3,3.88,183.92,183.92,0,0,0,13.74,18.15,2.16,2.16,0,0,1-1.26,1,7.7,7.7,0,0,0-3.21,2.32l-.43.41c0,.34-.34.31-.57,1.09-.13.15-.79.8-.92,1-.34.25-.9.51-.85.94l0,0c-.18.15-.37.29-.56.43-2.23,1.82-2.95,4.43-3.69,7s-1.55,5.48-2.32,8.22C346.7,421.66,346.59,422.3,345.88,422.56Z" transform="translate(-74.78 -71.9)"/><path class="cls-17" d="M356.23,401.94a7.7,7.7,0,0,1,3.21-2.32,2.16,2.16,0,0,0,1.26-1c1.74,0,3.23-1.14,4.94-1.25.21.82-.24,1.11-.7,1.17a16.12,16.12,0,0,0-6.91,3A2.37,2.37,0,0,1,356.23,401.94Z" transform="translate(-74.78 -71.9)"/><path class="cls-17" d="M352.88,405.79c.23-.77,3.57-4.44,4.34-4.68C359.63,400.24,354,405.87,352.88,405.79Z" transform="translate(-74.78 -71.9)"/><path class="cls-13" d="M273.29,220.63a6.59,6.59,0,0,1-.43,1.32,1.6,1.6,0,0,1-2.26.52c-1.23-.81-1.4-4.23-.26-5.17a1.36,1.36,0,0,1,2.19.38A6.8,6.8,0,0,1,273.29,220.63Z" transform="translate(-74.78 -71.9)"/><path class="cls-13" d="M299.31,218.31c0,.83-.2,1.64-1.11,1.88s-1.46-.4-1.83-1.15a4.12,4.12,0,0,1-.34-3,1.4,1.4,0,0,1,1.1-1.12,1.31,1.31,0,0,1,1.39.7A5,5,0,0,1,299.31,218.31Z" transform="translate(-74.78 -71.9)"/><path class="cls-14" d="M202.91,268.68s8.48,1.44,10.14,18.24c0,0,32.62-5,41.22-9.45.47-.24-.49-13.28-.49-13.28Z" transform="translate(-74.78 -71.9)"/><path class="cls-19" d="M320.19,688.89a17.57,17.57,0,0,0,11.35,8.18,71.37,71.37,0,0,1,21,9s19.83,9.54,32.1,8.73,19.95-1.16,24.54-8.27c0,0,1.6,4.93-.34,8.83a12.74,12.74,0,0,1-7.23,6.19c-2.18.92-17.65,4.82-29.35,2.18S353.1,716.86,350,715.6s-16.62-7.45-18.57-8.71-9-3.72-10.21-5.16C318.59,698.63,320.19,688.89,320.19,688.89Z" transform="translate(-74.78 -71.9)"/><path class="cls-19" d="M407.74,678A16.2,16.2,0,0,0,418.06,686a63.18,63.18,0,0,1,19.07,8.72s18,9.22,29.18,8.44,18.14-1.12,22.31-8c0,0,1.46,4.77-.31,8.54a11.79,11.79,0,0,1-6.57,6c-2,.89-16.05,4.66-26.68,2.11s-17.41-6.66-20.22-7.88-15.11-7.21-16.89-8.43-8.15-3.59-9.27-5C406.28,687.46,407.74,678,407.74,678Z" transform="translate(-74.78 -71.9)"/></svg>