<svg xmlns="http://www.w3.org/2000/svg" viewBox="0 0 309.44 169"><defs><style>.cls-1{fill:#fff;}.cls-2{fill:#121315;}.cls-3{fill:#464a93;}.cls-4{fill:#3cb3a6;}</style></defs><g id="Layer_2" data-name="Layer 2"><rect class="cls-1" width="309.44" height="169" rx="17.9"/></g><g id="Layer_1" data-name="Layer 1"><path class="cls-2" d="M451,474.81c-5.87,7.15-12.18,14-14,23.6a4.84,4.84,0,0,1-6.79,3.36c-2.24-.92-1.05-2.55-.56-3.75,2.88-7.11,1.21-14.08-.42-21.06-.17-.73,0-1.81-1.22-1.8-.79,0-.92.82-1.09,1.42-.44,1.59-1.24,2.87-3.08,2.62-3.75-.5-4.3,2.06-5,4.77-1.2,4.84-2.52,9.66-3.87,14.47a5.08,5.08,0,0,1-6.92,3.33c-1.91-.78-1.06-2.19-.76-3.35,1.29-5.17,2.63-10.33,4.06-15.46.56-2,1-3.66-2-3.71-1.4,0-2.88-.23-2.29-2.23.44-1.49.31-3.67,2.6-3.7,5.64-.09,11.32-.58,16.92.32,1,.16,1.53.61,2.82.13,4.88-1.8,6.5-.7,7.64,4.46.17.79.06,1.85,1,2.06a1.88,1.88,0,0,0,1.51-1c2-5.34,6.44-6.37,11.4-6.47Z" transform="translate(-147.64 -350.48)"/><path class="cls-3" d="M188.73,462.45h-14.5c-5.93,0-6,0-3.47-5.21,7-14.5,17.37-26.34,29.58-36.64,20.48-17.27,44.33-28,69.6-36a474.39,474.39,0,0,1,58.9-15.19,421.36,421.36,0,0,1,51.57-5.67c10-.58,19.95-.89,29.93-1.31,2.16-.09,4.33-.13,6.49-.15,1,0,2.67-.21,2.68.56,0,1.52-1.74,1.14-2.77,1.31-3.94.64-7.92,1.09-11.86,1.7C365.3,371.9,326.31,380.3,289,395.35c-21.61,8.73-41.93,19.6-58,37.06-7.47,8.12-13.77,17.12-20,26.19-1.87,2.73-3.85,4.14-7.33,3.91-5-.33-10-.09-15-.09Z" transform="translate(-147.64 -350.48)"/><path class="cls-4" d="M305.17,462.86c-5,0-10-.12-15,0-3.35.1-3.55-1.15-2.41-3.88,10.13-24.41,25.49-44.77,47.41-59.69,25.48-17.35,54.08-26.64,84.36-31.22A40.86,40.86,0,0,1,425,368c-1.13,1.93-3.27,2-5.05,2.67-13.68,5.14-27.41,10.11-39.93,17.91C357.1,402.84,341,423,329.4,446.92c-1.95,4-3.54,8.24-5.1,12.44-.94,2.51-2.32,3.65-5.15,3.51-4.65-.23-9.32-.06-14-.06Z" transform="translate(-147.64 -350.48)"/><path class="cls-2" d="M166.47,493.75v-8.82c-2.5,2.35-1.5,5.79-2.69,8.57a40.51,40.51,0,0,0-1.29,4.81,4.64,4.64,0,0,1-6.37,3.14c-1.55-.67-1.2-1.83-.91-2.92,2-7.72,3.92-15.48,6.25-23.11,1.53-5,6-2.06,9-2.4,3.31-.38,2,2.71,2.13,4.42.32,3-1,6.08.78,8.94a73.47,73.47,0,0,0,4-7.78c1.59-4.24,4-6.22,8.87-5.9,3.86.24,4.92.92,3.72,4.79-2.07,6.67-4,13.41-5.45,20.22-.76,3.5-2.55,4.14-5.61,4-2.39-.15-2.78-1.05-2-3.17,1.26-3.61,2.32-7.28,3.5-10.92.26-.79.8-2.11.25-2.27-1.09-.31-1.42,1-1.84,1.83-1.74,3.59-3.61,7.12-5.19,10.77-1.11,2.56-2.5,4.34-5.56,3.67-3.43-.76-1.41-3.5-1.83-5.33a11.49,11.49,0,0,1,0-2.49Z" transform="translate(-147.64 -350.48)"/><path class="cls-2" d="M389.68,473.22c3.45-.68,4.39,1.07,4.48,4.15.07,2.43-.1,5,1.25,7.22,1.72-2,1.17-4.77,2.17-7,.63-1.43,0-3.58,2.1-4.17,1.58-.45,3.42-.71,4.86.12,1.75,1,.55,2.76.22,4.05-1.81,7.07-4,14.05-5.61,21.16-.92,4-3.67,3-6.17,3.14-3.12.22-2.71-2.06-3.06-4-.46-2.5.29-5.22-1.3-7.52-1.53,2.13-1.06,4.82-2,7.09-.66,1.56-.13,4-2.62,4.3-1.6.19-3.53.69-4.83-.37s-.2-2.8.15-4.15c1.74-6.74,3.75-13.42,5.34-20.2C385.35,474,386.59,472.56,389.68,473.22Z" transform="translate(-147.64 -350.48)"/><path class="cls-2" d="M223.16,472.86c.83,0,1.66,0,2.49,0,3,.17,6.31-.18,7.75,3.23s.16,6.59-2.08,9.21c-1.17,1.38-1.71,2.31-1.13,4.25,1.1,3.64-.66,7.23-1.43,10.69-.64,2.89-4,1.18-6.07,1.26-2.33.09-1.77-1.86-1.51-3.31.29-1.63.7-3.24.93-4.88.17-1.25-.18-2.38-1.68-2.57s-2.12.59-2.46,1.9c-.53,2.09-1.21,4.15-1.68,6.25-.37,1.64-1,2.55-2.9,2.77-4.79.56-5.57-.24-4.31-4.93,1.46-5.45,2.89-10.91,4.38-16.35C216,471.05,214.46,473.16,223.16,472.86Zm-.57,11.82c1.67-.37,2.58-1.78,2.86-3.68a1.71,1.71,0,0,0-1.9-2.19c-2.62.05-2.25,2.31-2.69,3.9C220.56,483.79,220.8,484.67,222.59,484.68Z" transform="translate(-147.64 -350.48)"/><path class="cls-2" d="M304.31,502.35c-7.07.07-9.51-2.87-7.8-9.65,1.38-5.48,2.91-10.93,4.45-16.37a5.11,5.11,0,0,1,6.94-3.22c1.84.83,1,2.21.69,3.4-1.38,5.31-2.88,10.6-4.2,15.92-.36,1.45-1.5,3.56.93,4.14,1.95.47,2.91-1.29,3.37-3,1.52-5.45,3.24-10.86,4.33-16.4.79-4,3.08-4.55,6.42-4.2,1.8.19,2.27.94,1.8,2.63-1.86,6.72-3.35,13.58-5.6,20.17C313.9,500.87,309.3,502.23,304.31,502.35Z" transform="translate(-147.64 -350.48)"/><path class="cls-2" d="M371.49,472.59c8.18,0,10.56,3,8.76,10-1,3.85-1.84,7.76-3.13,11.51a12.76,12.76,0,0,1-17,7.6,5.08,5.08,0,0,1-3.39-6c.91-5.89,2-11.83,4.55-17.24C363.41,474,367.65,472.52,371.49,472.59Zm-.54,6c-1.86.16-2.57,1.49-3,2.94-1.06,3.82-2.07,7.65-3,11.5-.28,1.21-.76,2.89.84,3.46,1.76.64,2.85-.79,3.28-2.23,1.31-4.42,2.46-8.89,3.59-13.37C373.06,479.47,372.35,478.65,371,478.54Z" transform="translate(-147.64 -350.48)"/><path class="cls-2" d="M292.47,486.83c0,4,0,8,0,11.94,0,2.45-1.24,3.21-3.45,3-1.8-.19-4.33.82-4.2-2.55.06-1.4,0-2.77-1.83-2.93-1.68-.14-3.36-.2-4.24,1.73a9.62,9.62,0,0,1-1.38,2.62c-1.86,2-4.6,1.58-6.47.79-2.44-1-.06-2.78.54-4,3.45-7,7-13.92,10.61-20.84a8,8,0,0,1,9.6-3.5c1.51.57,1.36,1.7,1.37,2.83,0,3.65,0,7.3,0,10.95Zm-6.21-1.44c-.31-1.1,1.15-2.68-.22-3.07s-1.47,1.59-1.73,2.52c-.52,1.84-2,3.45-1.47,5.5.08.27,1.36.57,1.78.33C286.77,489.44,285.86,487.17,286.26,485.39Z" transform="translate(-147.64 -350.48)"/><path class="cls-2" d="M203.47,472.87c1.5,0,3-.08,4.49,0s3.68-.71,3.27,2.21c-.29,2-.56,4-3.44,3.84a48.71,48.71,0,0,0-5,.06c-1.9.07-2.57,1.3-2.63,3-.08,2.15,1.62,1.53,2.81,1.79,2.19.48,6.53-1.68,4.78,3.83a2.91,2.91,0,0,1-3.29,2.31,29.43,29.43,0,0,0-5,.11c-2.16.27-2.36,2.17-2.46,3.79-.12,2,1.59,1.68,2.84,1.78.83.06,1.68-.06,2.49.07,1.28.21,3.49-.76,3.4,1.51-.07,1.76-.19,4.32-3,4.39-4.48.11-9,.1-13.46.06-1.8,0-2.15-1-1.7-2.69,2.15-7.85,4.28-15.7,6.28-23.58.53-2.09,1.74-2.57,3.61-2.5S201.48,472.87,203.47,472.87Z" transform="translate(-147.64 -350.48)"/><path class="cls-2" d="M258.79,501.73c-9.05,0-9.05,0-6.64-8.85,1.54-5.61,3.18-11.19,4.55-16.84.58-2.37,1.67-3.31,4.11-3.2,3.49.17,7,0,10.48.08,1.45,0,3.27-.23,2.88,2.18-.29,1.74-.25,3.84-2.91,3.85-1.5,0-3,.13-4.49.06-2.16-.11-3.65.62-3.68,3,0,2.9,2.28,1.73,3.63,1.82,4.48.29,5.38,1.39,3.7,4.64a2.69,2.69,0,0,1-2.82,1.49c-1.66,0-3.33,0-5,.11-2.55.21-2.62,2.33-2.64,4.08,0,2.05,1.8,1.45,3,1.55.83.07,1.68-.09,2.49.05,1.25.22,3.44-.83,3.32,1.58-.1,2.05-.36,4.53-3.52,4.43-1.16,0-2.33,0-3.49,0Z" transform="translate(-147.64 -350.48)"/><path class="cls-2" d="M346.59,473c.67,0,1.33,0,2,0,6.34.22,8.92,1.7,9.35,5.37.57,4.84-3.25,11.43-8.05,11.61-6.51.26-8.76,3.5-9.63,9.13-.64,4.19-4.17,2.78-6.38,2.44-3.06-.48-1-3-.68-4.36,1.38-5.81,3.08-11.55,4.61-17.33C339.93,471.93,338.7,473.22,346.59,473Zm3.15,7.74c-.22-1.32-1-2.12-2.36-1.88-2.41.42-2.19,2.57-2.48,4.29-.22,1.28.47,1.82,1.72,1.61C348.87,484.41,349.3,482.62,349.74,480.76Z" transform="translate(-147.64 -350.48)"/><path class="cls-2" d="M239.65,501.68c-8.78,0-8.83,0-6.62-8.54,1.49-5.79,3.12-11.56,4.79-17.3.74-2.54,5.09-4.09,7.19-2.73,1.39.9.62,2.06.35,3.12-1.27,5-2.47,10-3.91,15-.9,3.08-.62,4.75,3.21,4.56,1.43-.07,4.2-1.31,4.21,1.64,0,2.68-1.33,4.78-4.73,4.32A32,32,0,0,0,239.65,501.68Z" transform="translate(-147.64 -350.48)"/><path class="cls-2" d="M244.35,452.31c-2.89,4.82-4.82,10.74-8.72,15.55a5,5,0,0,1-4.08,1.54c-1.59,0-2.38-1.49-1.41-2.24,4.44-3.45,1.92-8.27,2.79-12.39a11.37,11.37,0,0,0,.11-2.48c0-1.73.87-2.29,2.49-2.26s1.91.88,1.86,2.25c0,.9-.54,2.35.71,2.48,1,.11,1.25-1.4,1.55-2.29.53-1.61,1.34-2.62,3.19-2.41C243.91,450.18,244.86,450.34,244.35,452.31Z" transform="translate(-147.64 -350.48)"/><path class="cls-2" d="M262.18,465c-4.68.05-5.94-1.47-5.1-5.82,1.37-7.05,4.06-9.68,9.45-9.31,2.47.17,4.34,1,4.06,3.85-.23,2.32-.52,4.8-4,4.39a9.1,9.1,0,0,0-3.93.26,2,2,0,0,0-.84,2.61,1,1,0,0,0,1.95.14,3.26,3.26,0,0,1,3.87-1.46c.73.21.81.92.65,1.63-.49,2.06-2.05,2.95-3.87,3.47A11.27,11.27,0,0,1,262.18,465Zm3.55-11.11c-.19-.15-.48-.56-.83-.62-.85-.15-1,.58-1,1.18,0,.18.68.49,1.05.49S265.83,454.7,265.73,453.85Z" transform="translate(-147.64 -350.48)"/><path class="cls-2" d="M224.76,464.5c-5.88.06-5.87.06-4.34-5.55,1-3.51,2-7,2.75-10.55.55-2.53,2-3.31,4.29-2.76,2.91.71.82,2.62.65,3.91a34,34,0,0,1-1.39,5.78c-.88,2.84-2.05,5.73,2.95,5.26a1,1,0,0,1,1.25,1.15c-.11,1.17-.4,2.48-1.71,2.7A26.4,26.4,0,0,1,224.76,464.5Z" transform="translate(-147.64 -350.48)"/><path class="cls-2" d="M276.26,465c-4.89.11-6.09-1.34-5.27-5.78,1.33-7.24,3.85-9.77,9.2-9.37,2.4.18,4.44,1,4.31,3.69-.11,2.48-.59,5.08-4.27,4.65a10.7,10.7,0,0,0-3.89.37,1.4,1.4,0,0,0-.74,2.05c.45,1.06,1.13,1,1.86.22,1.45-1.45,3.77-2.27,4.58-.47.9,2-1.5,3.38-3.35,4.19A9,9,0,0,1,276.26,465Zm1.11-11.31c-.24.86,0,1.21.51,1.35a1.27,1.27,0,0,0,1.57-.64c.37-.73-.08-1.21-.78-1.32A1.21,1.21,0,0,0,277.37,453.65Z" transform="translate(-147.64 -350.48)"/><path class="cls-2" d="M248.72,464.94c-4.71,0-5.66-1.13-4.89-5.46,1.31-7.42,3.43-9.85,8.41-9.71,1.9.05,3.69.31,4.45,2.43.35,1,.54,2.13-.32,2.78-1.72,1.3-3.26,1.17-4.53-.89-.66-1.06-1.48-.28-1.77.51-.57,1.55-.95,3.17-1.44,4.76-.2.67-.32,1.37.35,1.76s1.18-.22,1.6-.7.69-1.24,1.21-1.47c1.06-.47,2.39-.72,3.27.17s0,1.85-.41,2.69A6,6,0,0,1,248.72,464.94Z" transform="translate(-147.64 -350.48)"/><path class="cls-2" d="M326.68,486.93c1.6.25,3.75-1,5,.75.78,1.11-.27,2.59-.72,3.78-.79,2.08-2.9,1.56-4.33,1.27-2.11-.43-5.7,1.92-6.1-1.74C320.09,487.13,323,486,326.68,486.93Z" transform="translate(-147.64 -350.48)"/><path class="cls-2" d="M269,444.56c1.37.13,2.89.37,2.67.69a8,8,0,0,1-5.67,3.27c-.76.12-2.09-.14-1.6-1C265.44,445.55,267.13,444.22,269,444.56Z" transform="translate(-147.64 -350.48)"/></g></svg>