<svg xmlns="http://www.w3.org/2000/svg" xmlns:xlink="http://www.w3.org/1999/xlink" id="svg2" viewBox="0 0 502.66 143.22"><defs><style>.cls-1{fill:none;}.cls-2{clip-path:url(#clip-path);}.cls-3{fill:url(#linear-gradient);}.cls-4{clip-path:url(#clip-path-2);}.cls-5{fill:url(#linear-gradient-2);}.cls-6{clip-path:url(#clip-path-3);}.cls-7{fill:url(#linear-gradient-3);}.cls-8{fill:#c0bdba;}.cls-9{fill:#414044;}</style><clipPath id="clip-path" transform="translate(0 0)"><path class="cls-1" d="M34.49,139.63l-3.74-1.24s.48-19-6.36-20.28c-4.51-5.23.69-223.12,17.07-.75,0,0-5.61,2.81-6.67,7.59S34.49,139.63,34.49,139.63Z"/></clipPath><linearGradient id="linear-gradient" x1="-30.82" y1="485.05" x2="-29.82" y2="485.05" gradientTransform="matrix(43.05, 14.52, 13.1, -38.63, -5018.39, 19258.03)" gradientUnits="userSpaceOnUse"><stop offset="0" stop-color="#929669"/><stop offset="0.23" stop-color="#929669"/><stop offset="1" stop-color="#fdfcf1"/></linearGradient><clipPath id="clip-path-2" transform="translate(0 0)"><path class="cls-1" d="M36.51,121.32S69.06,99.89,61.43,55.38c-7.34-32.34-24.68-43-26.54-47a48.9,48.9,0,0,1-4.12-8l1.39,90.11S29.3,118,36.51,121.32Z"/></clipPath><linearGradient id="linear-gradient-2" x1="-31.09" y1="492.46" x2="-30.09" y2="492.46" gradientTransform="matrix(30.15, 117.03, 125.92, -20.19, -61046.39, 13581.46)" gradientUnits="userSpaceOnUse"><stop offset="0" stop-color="#45aa3a"/><stop offset="1" stop-color="#3d9439"/></linearGradient><clipPath id="clip-path-3" transform="translate(0 0)"><path class="cls-1" d="M28.84,122.52S-1.68,101.7.07,65,23.39,10.14,27.59,6.87c2.71-2.9,2.83-4,3-6.87,1.9,4.09,1.58,61.06,1.78,67.71C33.2,93.63,31,117.63,28.84,122.52Z"/></clipPath><linearGradient id="linear-gradient-3" x1="-35.46" y1="486.16" x2="-34.46" y2="486.16" gradientTransform="matrix(52.76, -11.99, -16.49, -49.26, 9883.1, 23593.74)" gradientUnits="userSpaceOnUse"><stop offset="0" stop-color="#41a83b"/><stop offset="1" stop-color="#5ebc44"/></linearGradient></defs><g id="g10"><g id="g12"><g id="g14"><g class="cls-2"><g id="g16"><path id="path30" class="cls-3" d="M34.49,139.63l-3.74-1.24s.48-19-6.36-20.28c-4.51-5.23.69-223.12,17.07-.75,0,0-5.61,2.81-6.67,7.59s-.3,14.68-.3,14.68" transform="translate(0 0)"/></g></g></g><g id="g32"><g class="cls-4"><g id="g34"><path id="path46" class="cls-5" d="M36.51,121.32S69.06,99.89,61.43,55.38c-7.34-32.34-24.68-43-26.54-47a48.9,48.9,0,0,1-4.12-8l1.39,90.11S29.3,118,36.51,121.32" transform="translate(0 0)"/></g></g></g><g id="g48"><g class="cls-6"><g id="g50"><path id="path62" class="cls-7" d="M28.84,122.52S-1.68,101.7.07,65,23.39,10.14,27.59,6.87c2.71-2.9,2.83-4,3-6.87,1.9,4.09,1.58,61.06,1.78,67.71.79,25.92-1.43,49.92-3.57,54.81" transform="translate(0 0)"/></g></g></g><path id="path64" class="cls-8" d="M397.7,110.66c2.16,1.73,6.48,2.44,10.28,2.44,4.94,0,9.77-.92,14.5-5.18s8.12-11.07,8.12-21.73c0-10.26-3.9-18.58-11.92-23.46-4.53-2.84-10.39-4-17.07-4a14.38,14.38,0,0,0-5,.61,2.7,2.7,0,0,0-.93,1.43c-.2,1.82-.2,15.73-.2,24,0,8.43,0,20.2.2,21.63C395.75,107.62,396.36,109.75,397.7,110.66ZM377.18,54.2c1.75,0,8.39.31,11.47.31,5.76,0,9.77-.31,20.57-.31,9,0,16.65,2.44,22.1,7.11C437.9,67,441.4,74.92,441.4,84.56c0,13.71-6.27,21.63-12.54,26.1-6.28,4.67-14.4,7.31-26,7.31-6.17,0-16.76-.2-25.6-.3h-.12c-.41-.81.76-4,1.48-4.06a13.47,13.47,0,0,0,4.15-.82c1.86-.77,2.3-1.72,2.51-5.07.31-6.3.21-13.81.21-22.34,0-6.09.1-18-.11-21.73-.31-3.15-1.64-4-4.31-4.57a57.07,57.07,0,0,0-5.76-.92c-.21-.6,1.38-3.35,1.89-4" transform="translate(0 0)"/><path id="path66" class="cls-8" d="M468.63,59.18c-.41.1-.93,1.12-.93,1.63-.1,3.65-.2,13.19-.2,19.79a.64.64,0,0,0,.51.51c1.34.1,4.63.21,7.4.21,3.91,0,6.17-.51,7.41-1.12,3.29-1.63,4.83-5.18,4.83-9,0-8.83-6.17-12.18-15.32-12.18a27.79,27.79,0,0,0-3.7.2ZM492,99.8c0-8.94-6.58-14-18.61-14a45.52,45.52,0,0,0-5.25.11c-.31.1-.61.3-.61.5,0,6.4-.11,16.66.2,20.72.21,1.72,1.44,4.16,3,4.87,1.65.92,5.35,1.12,7.92,1.12,7.1,0,13.37-4,13.37-13.3ZM450.06,54.2c.92,0,3.66.31,10.65.31,6.58,0,11.93-.2,18.3-.2,7.92,0,18.82,2.84,18.82,14.62,0,5.79-4.11,10.46-9.46,12.69-.31.1-.31.31,0,.41,7.61,1.93,14.29,6.6,14.29,15.53,0,8.73-5.45,14.22-13.37,17.67-4.83,2.13-10.79,2.84-16.86,2.84-4.63,0-17-.5-23.91-.4-.72-.31.66-3.56,1.27-4.06a19.17,19.17,0,0,0,4.67-.73c2.46-.61,2.75-1.41,3.06-5.06.21-3.15.21-14.42.21-22.44,0-11,.1-18.38,0-22-.1-2.84-1.13-3.75-3.09-4.26-1.54-.31-4.11-.61-6.16-.92-.52-.5,1.06-3.55,1.58-4" transform="translate(0 0)"/><path id="path68" class="cls-9" d="M82.23,117.93a4.52,4.52,0,0,1-.32-2.05,2.58,2.58,0,0,1,.32-1.37,34.75,34.75,0,0,0,3.94-.81c1.82-.45,2.51-1.43,2.61-3.76.3-5.47.32-15.74.21-23v-.22A2.87,2.87,0,0,0,88,84.18a20.77,20.77,0,0,0-5.45-2.39c-.87-.25-1.34-.71-1.32-1.23s.57-1.16,1.69-1.38A64.27,64.27,0,0,0,96.81,75.6a2,2,0,0,1,.41,1.46c0,.32,0,.66-.08,1-.08,1-.18,2.17-.18,3.33a.75.75,0,0,0,.76.66.74.74,0,0,0,.53-.23c5.84-4.57,11.06-6.2,13.75-6.2,4.41,0,7.85,2.11,10.51,6.45a.7.7,0,0,0,.6.35.67.67,0,0,0,.55-.3c5.37-4.07,10.69-6.5,14.25-6.5,8.41,0,13.44,6.3,13.44,16.84,0,3,0,6.86-.06,10.45,0,3.14,0,6.09,0,8.13a2.8,2.8,0,0,0,1.66,2.14,22.09,22.09,0,0,0,5.25,1.29h.09a7.81,7.81,0,0,1-.53,3.44c-.56,0-1.33-.05-2.29-.1-1.75-.09-4.14-.21-6.93-.21-5.6,0-8.52.11-11.31.29a8.53,8.53,0,0,1,0-3.41,30.58,30.58,0,0,0,3.41-.8c1.78-.59,2.3-1.39,2.4-3.76,0-1.68.36-16.46-.21-20a8.94,8.94,0,0,0-9.27-7.9,16.4,16.4,0,0,0-9.26,3.52,1.39,1.39,0,0,0-.33.88v.06a37.31,37.31,0,0,1,.41,7.45c0,1.9,0,3.93,0,5.93,0,4.08-.05,7.92,0,10.83a2.73,2.73,0,0,0,2.16,2.84c.53.11.94.21,1.36.31.81.2,1.64.4,2.88.6a5.35,5.35,0,0,1-.05,2.55,2.07,2.07,0,0,1-.35.87c-3.11-.1-6.31-.2-10.91-.2-1.4,0-3.68.06-5.69.12l-4,.09a4.18,4.18,0,0,1-.3-1.77,3.16,3.16,0,0,1,.32-1.66l1.24-.22c1.08-.19,2-.36,2.9-.58,1.53-.46,2.1-1.31,2.21-3.24.3-4.52.53-17.54-.11-20.8-1.09-5.23-4.07-7.88-8.86-7.88a16.67,16.67,0,0,0-9.25,3.52A2.83,2.83,0,0,0,97,87.39c0,1.55,0,3.39,0,5.37,0,6.54,0,14.68.11,18.2a2.9,2.9,0,0,0,2.52,2.85c.45.12,1.22.25,2.11.4l1.66.28a7.33,7.33,0,0,1-.27,3.44c-.9,0-2-.06-3.26-.11-1.92-.09-4.32-.2-7-.2-3.21,0-5.45.11-7.25.2-1.2.05-2.25.1-3.29.11h0" transform="translate(0 0)"/><path id="path70" class="cls-9" d="M184.23,80a8.78,8.78,0,0,0-4.92,1.38c-3.57,2.17-5.39,6.5-5.39,12.86,0,11.91,6,20.23,14.53,20.23a9.13,9.13,0,0,0,6.28-2.21c2.63-2.14,4-6.52,4-12.64,0-11.73-5.83-19.62-14.52-19.62Zm1.65,38.89c-15.45,0-20.95-11.32-20.95-21.91,0-7.39,3-13.18,9-17.19a27.45,27.45,0,0,1,13.9-4.11c11.79,0,20,8.47,20,20.59,0,8.25-3.29,14.75-9.51,18.82a26.88,26.88,0,0,1-12.46,3.8h0" transform="translate(0 0)"/><path id="path72" class="cls-9" d="M344.2,80a8.79,8.79,0,0,0-4.93,1.38c-3.56,2.17-5.38,6.5-5.38,12.86,0,11.91,6,20.23,14.52,20.23a9.16,9.16,0,0,0,6.29-2.21c2.62-2.14,4-6.51,4-12.64,0-11.73-5.84-19.62-14.52-19.62Zm1.64,38.89c-15.45,0-20.95-11.32-20.95-21.91,0-7.4,3-13.18,9-17.19a27.38,27.38,0,0,1,13.89-4.11c11.79,0,20,8.47,20,20.59,0,8.25-3.29,14.75-9.52,18.82a26.84,26.84,0,0,1-12.46,3.8h0" transform="translate(0 0)"/><path id="path74" class="cls-9" d="M292.5,79.55c-4.76,0-7.84,3.75-7.84,9.56s2.65,12.72,10.11,12.72a7.28,7.28,0,0,0,4.75-1.83c1.73-1.59,2.86-4.88,2.86-8.35,0-7.58-3.69-12.1-9.88-12.1Zm-.61,40.1a7.83,7.83,0,0,0-3.87,1c-3.77,2.41-5.52,4.82-5.52,7.6a8.11,8.11,0,0,0,3.21,6.54c2.64,2.24,6.21,3.33,10.91,3.33,9.23,0,13.37-5,13.37-9.87,0-3.42-1.72-5.72-5.25-7-2.73-1-7.28-1.55-12.85-1.55Zm.61,23.56c-5.54,0-9.54-1.17-12.95-3.79a12.13,12.13,0,0,1-4.81-9,7,7,0,0,1,1.82-4.57c1-1.09,3.2-3.15,8.37-6.7a.44.44,0,0,0-.05-.83c-4.26-1.63-5.55-4.3-5.93-5.75l-.05-.23a1.34,1.34,0,0,1,.54-1.66c.59-.42,1.55-1,2.57-1.59a33.38,33.38,0,0,0,4.13-2.69.64.64,0,0,0,.18-.57.67.67,0,0,0-.35-.48c-6.31-2.12-9.48-6.8-9.48-13.92A13.86,13.86,0,0,1,282.31,80a26.67,26.67,0,0,1,13-4.41h.24a26.62,26.62,0,0,1,9.94,2.22,16,16,0,0,0,5.88.93c3.52,0,5.05-1.11,6.37-2.39a5.73,5.73,0,0,1,.33,1.82A6.87,6.87,0,0,1,317,82.38,5.17,5.17,0,0,1,313,84.09a3.39,3.39,0,0,1-.46,0,12.51,12.51,0,0,1-2.39-.4l-.4.14c-.12.18,0,.39.06.64a.82.82,0,0,1,.06.16,27.62,27.62,0,0,1,.57,3.9c0,7.47-2.95,10.73-6.14,13.14a21,21,0,0,1-10.61,4.09h0l-1.23.11-1.2.1h-.09c-.7.19-2.5,1.05-2.5,2.65,0,1.33.82,3,4.72,3.27l2.53.18c5.17.36,11.61.81,14.64,1.84a10.11,10.11,0,0,1,6.77,9.74c0,6.7-4.77,13-12.76,16.86a27.69,27.69,0,0,1-12.08,2.71h0" transform="translate(0 0)"/><path id="path76" class="cls-9" d="M267.14,114.35a18.4,18.4,0,0,1-5.86-1.52,2.69,2.69,0,0,1-.72-1.42c-.21-3.15-.21-12.29-.21-18.28,0-4.87-.82-9.14-2.87-12.19A12.4,12.4,0,0,0,247,75.46c-4,0-9.36,2.74-13.78,6.5-.1.1-.78.75-.77-.25s.17-3,.27-4.32a2.21,2.21,0,0,0-.68-1.88c-2.88,1.42-11,3.35-14,3.66-2.19.42-2.74,2.52-.41,3.25h0A19.79,19.79,0,0,1,223,84.75a2.78,2.78,0,0,1,.82,2.54c.1,6.8.1,17.26-.21,22.95-.1,2.23-.72,3-2.36,3.45l.15,0a32.6,32.6,0,0,1-3.81.71c-.51.51-.51,3.45,0,4.06,1,0,6.27-.3,10.59-.3,6,0,9.05.3,10.59.3a5.65,5.65,0,0,0,.41-4.06,21.37,21.37,0,0,1-4.21-.61c-1.65-.4-2.06-1.22-2.16-3-.21-4.78-.21-14.93-.21-21.84,0-1.92.52-2.84,1.14-3.35a13.56,13.56,0,0,1,8.43-3,9.25,9.25,0,0,1,6.27,2.13,8.71,8.71,0,0,1,2.88,5.69c.41,3.86.3,11.57.3,18.27,0,3.66-.3,4.57-1.64,5a16.72,16.72,0,0,1-4.22.81c-.61.61-.41,3.45,0,4.06,2.68,0,5.76-.3,10.29-.3,5.65,0,9.25.3,10.69.3a5.61,5.61,0,0,0,.41-4.06" transform="translate(0 0)"/></g></g></svg>