<?xml version="1.0" standalone="no"?>
<!DOCTYPE svg PUBLIC "-//W3C//DTD SVG 20010904//EN"
 "http://www.w3.org/TR/2001/REC-SVG-20010904/DTD/svg10.dtd">
<svg version="1.0" xmlns="http://www.w3.org/2000/svg"
 width="659.000000pt" height="158.000000pt" viewBox="0 0 659.000000 158.000000"
 preserveAspectRatio="xMidYMid meet">

<g transform="translate(0.000000,158.000000) scale(0.100000,-0.100000)"
fill="#802F22" stroke="none">
<path d="M592 1179 c-23 -12 -60 -42 -82 -67 l-40 -45 0 56 c0 47 -3 57 -20
62 -11 3 -29 3 -40 0 -20 -6 -20 -15 -20 -381 l0 -374 39 0 39 0 5 253 c2 152
9 266 16 288 20 63 53 103 111 132 47 25 63 28 113 24 67 -6 99 -24 124 -70
16 -28 18 -68 21 -329 l3 -298 40 0 39 0 0 217 c0 318 18 388 114 448 42 25
59 30 116 30 76 0 109 -17 137 -68 16 -28 18 -68 21 -329 l3 -298 40 0 40 0
-3 308 c-4 332 -6 344 -62 405 -38 41 -86 57 -168 57 -106 0 -195 -47 -236
-124 -9 -18 -12 -16 -30 20 -39 76 -94 104 -204 104 -54 0 -84 -5 -116 -21z"/>
<path d="M1655 1187 c-129 -51 -207 -160 -223 -310 -22 -213 58 -381 208 -438
65 -26 184 -30 245 -9 96 32 170 106 208 207 33 88 32 263 -3 353 -33 87 -103
159 -183 189 -65 24 -200 28 -252 8z m203 -72 c62 -19 106 -61 141 -135 23
-49 26 -67 26 -170 0 -99 -3 -122 -23 -165 -59 -128 -180 -183 -313 -144 -88
27 -153 120 -167 239 -31 267 122 438 336 375z"/>
<path d="M2365 1181 c-22 -10 -61 -37 -87 -61 l-48 -42 0 51 0 51 -40 0 -40 0
0 -375 0 -375 39 0 40 0 3 258 c3 237 5 261 24 302 45 95 107 135 215 135 64
0 81 -4 111 -25 70 -47 73 -60 76 -382 l3 -288 40 0 39 0 0 298 c0 268 -2 301
-19 337 -25 53 -76 101 -130 120 -61 21 -176 19 -226 -4z"/>
<path d="M3000 1183 c-63 -23 -151 -113 -174 -178 -63 -183 -25 -410 85 -510
125 -113 321 -111 441 5 l51 49 -6 -78 c-6 -98 -37 -170 -90 -216 -50 -43 -91
-55 -182 -55 -113 1 -169 29 -206 102 -18 34 -23 38 -59 38 -35 0 -40 -3 -40
-24 0 -13 15 -45 33 -72 43 -63 110 -100 211 -115 180 -27 326 38 385 172 31
70 41 200 41 557 l0 322 -45 0 -45 0 0 -61 0 -62 -43 46 c-63 68 -133 97 -232
96 -46 0 -99 -7 -125 -16z m221 -68 c66 -24 105 -59 139 -129 57 -115 52 -269
-13 -377 -100 -167 -337 -158 -422 15 -74 151 -43 372 63 452 66 51 156 66
233 39z"/>
<path d="M3734 1179 c-66 -25 -123 -75 -156 -135 -113 -208 -53 -501 121 -588
197 -100 411 -22 486 177 l18 47 22 -53 c28 -71 67 -120 123 -157 62 -41 112
-54 202 -54 129 1 234 63 290 173 48 95 61 227 35 340 -43 179 -156 271 -334
271 -102 0 -159 -20 -226 -82 -52 -47 -105 -135 -105 -175 -1 -10 -9 5 -19 34
-39 106 -105 174 -203 209 -59 21 -192 17 -254 -7z m210 -60 c126 -31 202
-194 177 -373 -24 -165 -112 -256 -251 -256 -152 0 -244 105 -257 290 -17 238
131 390 331 339z m671 0 c104 -26 172 -130 182 -279 10 -137 -36 -252 -125
-314 -37 -26 -54 -31 -115 -34 -149 -7 -240 76 -267 244 -41 255 113 436 325
383z"/>
<path d="M5039 1187 c-93 -35 -141 -101 -142 -196 -1 -120 58 -169 260 -214
61 -14 129 -35 152 -46 96 -50 92 -165 -9 -218 -60 -32 -168 -32 -230 0 -47
23 -88 73 -97 120 -5 24 -10 27 -49 27 -39 0 -44 -3 -44 -22 0 -71 93 -186
167 -208 99 -29 223 -21 303 20 117 59 156 207 79 295 -40 45 -99 72 -232 107
-181 47 -231 91 -206 183 35 125 288 125 349 0 11 -23 20 -47 20 -53 0 -8 17
-12 45 -12 44 0 45 1 39 28 -20 84 -60 139 -129 175 -51 26 -219 35 -276 14z"/>
<path d="M5699 1185 c-166 -61 -250 -229 -227 -453 10 -100 48 -181 110 -237
64 -58 130 -79 238 -79 99 0 153 20 218 79 37 33 92 126 92 154 0 6 -19 11
-43 11 -41 0 -45 -2 -62 -39 -48 -108 -171 -157 -299 -119 -88 26 -166 143
-166 249 l0 39 291 0 292 0 -6 74 c-14 166 -91 281 -216 324 -45 16 -177 14
-222 -3z m189 -69 c23 -8 54 -25 71 -37 40 -29 81 -108 88 -169 l6 -50 -247 0
-246 0 0 28 c0 45 54 145 100 184 64 55 149 71 228 44z"/>
</g>
</svg>
