<svg id="Layer_1" data-name="Layer 1" xmlns="http://www.w3.org/2000/svg" viewBox="0 0 306.24 305.74"><defs><style>.cls-1{fill:#1474ce;}.cls-2{fill:#1c1274;}.cls-3{fill:#fefefe;}.cls-4{fill:#2b40b4;}</style></defs><path class="cls-1" d="M22.81,0H284a22.78,22.78,0,0,1,10.57,3.36A27.52,27.52,0,0,1,305.3,16.69a5.56,5.56,0,0,1,.19.7c.65,2.75,0,3.34-2.77,3.13a103.83,103.83,0,0,0-14,.08,91.9,91.9,0,0,0-16,2.26c-15.84,3.89-28.42,12.49-37.16,26.46a101.32,101.32,0,0,0-9.1,20c-3.86,10.86-6.51,22.07-9.78,33.11-.77,2.6-1.25,3-3.93,3H200.93c-3.12,0-3.16,0-4,3.08l-9.24,32.7c-1.22,2-2.18,2.62-3.7,2.25-1.14-2-1.18-4.3-1.72-6.46-3.89-15.37-13.57-25.49-28.15-31.16a64.39,64.39,0,0,0-18.41-3.71c-16.1-1.31-30.25,4-43.55,12.37a74.67,74.67,0,0,0-11.32,8.78,3.49,3.49,0,0,1-1.2.81c-.9.3-1.41,0-1.5-1a5.78,5.78,0,0,1,.37-2.14q1.9-6.81,3.82-13.64c.5-1.73.4-1.86-1.42-1.87h-36a2.41,2.41,0,0,0-2.68,2.08Q35.54,131.6,28.68,155.6,22.83,176.32,17,197C12,214.37,7.21,231.76,2.2,249.09c-.25.86-.36,1.79-1.31,2.22-.58-.25-.38-.74-.39-1.12V245.1Q.5,135,.43,24.86A25.66,25.66,0,0,1,16.67,1.06C18.6.28,20.71.41,22.81,0Z" transform="translate(0 0.05)"/><path class="cls-2" d="M184.41,143.5a15.81,15.81,0,0,0,2.85-2.37c.64-.87,1.58-.78,2.49-.78h12.72c2.81,0,3.33.72,2.55,3.46q-4.28,15.21-8.54,30.43Q188.41,203.1,180.29,232c-1.51,5.42-3,10.86-4.58,16.26-.75,2.56-.61,2.72,2,2.72h38.36c2.59,0,2.6,0,3.33-2.59q12.53-44.58,25-89.18c1.47-5.25,2.95-10.49,4.39-15.75.72-2.6,1.35-3.06,4.14-3.06h20.36a4.75,4.75,0,0,0,3.7-1.53c4.2-4.28,8.41-8.56,12.9-12.54a3.23,3.23,0,0,0,1-3.88c-1.64-4.94-3.13-9.93-4.62-14.92a2.54,2.54,0,0,0-2.87-2.07c-6.79.06-13.58,0-20.37,0-2.5,0-3.23-.81-2.55-3.09,2.76-9.22,4.82-18.65,8.24-27.67A29.7,29.7,0,0,1,275,64.08a22.39,22.39,0,0,1,12.76-6.43,40.56,40.56,0,0,1,15.87.15,4.39,4.39,0,0,1,2.66,1.44V283.69a22,22,0,0,1-6.39,14.06,23.77,23.77,0,0,1-18,7.94q-124.76-.06-249.49,0c-2,0-2.31-.45-1.71-2.63,2-7.18,4.08-14.33,6.1-21.49q6.07-21.49,12.21-43c.31-1.09.45-2.49,1.8-2.68s1.81,1.19,2.35,2.17c4,7.21,10.37,11.15,18,13.38a76.54,76.54,0,0,0,16.6,2.8c17.22,1.15,32.59-4,46.78-13.33a97.08,97.08,0,0,0,17.91-15,122.05,122.05,0,0,0,22.38-33.54,111.91,111.91,0,0,0,8.28-27c1.1-6.57,1.75-13.2.84-19.88C183.79,144.75,183.71,144,184.41,143.5Z" transform="translate(0 0.05)"/><path class="cls-3" d="M279.71,305.51" transform="translate(0 0.05)"/><path class="cls-3" d="M.45,251,41.71,106.75a1.9,1.9,0,0,1,2.12-1.67h.1q19.09.09,38.19,0c1.48,0,1.69.35,1.29,1.71-1.7,5.79-3.3,11.61-4.94,17.43.85.33,1.06-.34,1.41-.66,12.29-11.54,26.59-19.26,43.37-21.51,12.4-1.66,24.58-.1,35.94,5.52,14.14,7,22.09,18.59,24.79,34,.13.77.3,1.54.45,2.31,2.48,29.58-8.37,54.65-26.41,77.13-10.92,13.61-24.44,24-40.93,30.1a71.11,71.11,0,0,1-49.79.22,26.65,26.65,0,0,1-15.59-13.89c-.21-.42-.29-1.1-.81-1.09-.7,0-.62.79-.75,1.26Q40.5,271.46,30.91,305.3a32,32,0,0,1-10.08-.56c-2.67-.59-13.94-3.44-18.95-12.68-1.76-3.25-2-5.87-1.85-19C.11,264.43.27,257,.45,251Z" transform="translate(0 0.05)"/><path class="cls-3" d="M.22,305.33" transform="translate(0 0.05)"/><path class="cls-3" d="M251.07,305.88" transform="translate(0 0.05)"/><path class="cls-3" d="M306.19,59.24A38.1,38.1,0,0,0,289,58.15c-7.86,1.18-13.87,5-17.54,12.25-3,6-4.61,12.45-6.43,18.84-1.34,4.71-2.63,9.43-4,14.12-.37,1.21-.12,1.42,1.06,1.42,7.52,0,15,0,22.55-.06a1.8,1.8,0,0,1,2.1,1.44.36.36,0,0,1,0,.11c1.69,5.74,3.49,11.45,5.31,17.15a2,2,0,0,1-.58,2.35q-7.31,7.1-14.49,14.3a3.28,3.28,0,0,1-2.56,1c-7.51,0-15,0-22.54-.06a1.69,1.69,0,0,0-2,1.32s0,.11,0,.16Q234.93,195.85,220,249.2c-.55,2-1.35,2.45-3.3,2.44-13.51-.09-27,0-40.55,0-2.19,0-2.19,0-1.6-2.11Q189.5,196.23,204.45,143c.16-.58.31-1.16.49-1.85H187.26c-.36-.61,0-1.17.14-1.73,3.1-11,6.23-22,9.3-33a1.88,1.88,0,0,1,2.07-1.67l.14,0c4.9.09,9.81,0,14.72.06a1.79,1.79,0,0,0,2.1-1.57C219,92.16,221.58,80.89,225.42,70c3.23-9.14,6.87-18.09,12.84-25.9,9.55-12.47,22.34-19.59,37.54-22.62a107.47,107.47,0,0,1,27.85-1.61h1.79" transform="translate(0 0.05)"/><path class="cls-3" d="M304.91-.08" transform="translate(0 0.05)"/><path class="cls-4" d="M89.38,215.32c-5.59,0-10.57-.54-15.26-2.6-7.79-3.42-11.78-9.73-12.68-17.91-1.83-16.85,8.91-44,33.92-51.69a45.09,45.09,0,0,1,26.5-.45c9.68,2.86,15.52,10.63,15.78,21.36.48,19.89-13.39,46.72-41.36,50.8A37.08,37.08,0,0,1,89.38,215.32Z" transform="translate(0 0.05)"/></svg>