<svg width="756" height="260" viewBox="0 0 756 260" fill="none" xmlns="http://www.w3.org/2000/svg">
<path d="M0 25C0 11.1929 11.1929 0 25 0H731C744.807 0 756 11.1929 756 25V235C756 248.807 744.807 260 731 260H25C11.1929 260 0 248.807 0 235V25Z" fill="white"/>
<path fill-rule="evenodd" clip-rule="evenodd" d="M78.418 156.305C76.5001 159.432 76.5298 163.376 78.4945 166.474L114.054 222.534C116.362 226.173 120.811 227.832 124.94 226.594L227.557 195.828C233.158 194.148 235.975 187.905 233.528 182.599L167.56 39.5875C164.343 32.6132 154.644 32.0407 150.628 38.588L78.418 156.305ZM165.807 72.2812C164.405 69.039 159.657 69.5384 158.961 73.0014L133.564 199.381C133.028 202.045 135.525 204.321 138.131 203.544L209.032 182.393C211.101 181.775 212.167 179.491 211.31 177.509L165.807 72.2812Z" fill="#4A5568"/>
<path fill-rule="evenodd" clip-rule="evenodd" d="M295.893 130.131H302.144C307.984 130.131 312.352 128.979 315.255 126.672C318.155 124.365 319.605 121.007 319.605 116.599C319.605 112.151 318.389 108.865 315.959 106.742C313.527 104.619 309.72 103.557 304.532 103.557H295.893V130.131ZM338.781 115.926C338.781 125.561 335.771 132.927 329.742 138.029C323.72 143.134 315.153 145.683 304.043 145.683H295.894V177.525H276.902V88.0049H305.513C316.38 88.0049 324.64 90.3422 330.296 95.0144C335.954 99.6889 338.781 106.66 338.781 115.926Z" fill="#4A5568"/>
<path fill-rule="evenodd" clip-rule="evenodd" d="M389.128 107.782C391.661 107.782 393.764 107.966 395.439 108.333L394.031 125.844C392.518 125.437 390.682 125.232 388.516 125.232C382.551 125.232 377.907 126.763 374.575 129.824C371.247 132.886 369.584 137.173 369.584 142.685V177.525H350.896V109.068H365.05L367.808 120.579H368.726C370.85 116.744 373.718 113.65 377.335 111.302C380.948 108.956 384.879 107.782 389.128 107.782Z" fill="#4A5568"/>
<path fill-rule="evenodd" clip-rule="evenodd" d="M405.352 177.525H424.041V109.069H405.352V177.525ZM404.558 91.3718C404.558 85.2898 407.949 82.2499 414.729 82.2499C421.507 82.2499 424.899 85.2898 424.899 91.3718C424.899 94.2711 424.051 96.5261 422.358 98.1392C420.661 99.752 418.118 100.556 414.729 100.556C407.949 100.556 404.558 97.4947 404.558 91.3718Z" fill="#4A5568"/>
<path fill-rule="evenodd" clip-rule="evenodd" d="M489.831 157.196C489.831 164.218 487.39 169.565 482.507 173.239C477.627 176.912 470.325 178.75 460.604 178.75C455.621 178.75 451.376 178.412 447.863 177.738C444.349 177.065 441.06 176.075 437.997 174.769V159.338C441.47 160.973 445.379 162.339 449.732 163.442C454.08 164.542 457.909 165.094 461.217 165.094C467.998 165.094 471.389 163.135 471.389 159.217C471.389 157.747 470.94 156.553 470.042 155.635C469.142 154.716 467.59 153.676 465.384 152.51C463.179 151.347 460.237 149.991 456.561 148.439C451.293 146.236 447.421 144.195 444.952 142.316C442.479 140.439 440.682 138.286 439.561 135.856C438.436 133.428 437.874 130.438 437.874 126.885C437.874 120.803 440.232 116.101 444.952 112.773C449.669 109.446 456.356 107.783 465.017 107.783C473.267 107.783 481.294 109.58 489.095 113.171L483.459 126.641C480.028 125.171 476.82 123.969 473.838 123.028C470.857 122.09 467.814 121.621 464.711 121.621C459.196 121.621 456.438 123.11 456.438 126.09C456.438 127.765 457.329 129.214 459.104 130.438C460.882 131.661 464.771 133.48 470.775 135.888C476.128 138.052 480.05 140.072 482.539 141.948C485.03 143.827 486.868 145.99 488.054 148.439C489.24 150.889 489.831 153.808 489.831 157.196Z" fill="#4A5568"/>
<path fill-rule="evenodd" clip-rule="evenodd" d="M563.86 177.525H545.171V137.541C545.171 132.603 544.344 128.897 542.693 126.428C541.035 123.959 538.432 122.722 534.878 122.722C530.101 122.722 526.629 124.478 524.463 127.989C522.298 131.5 521.217 137.275 521.217 145.318V177.525H502.528V109.068H516.806L519.318 117.825H520.36C522.197 114.681 524.854 112.221 528.323 110.446C531.795 108.671 535.778 107.782 540.272 107.782C550.524 107.782 557.467 111.131 561.104 117.825H562.756C564.595 114.64 567.302 112.171 570.876 110.415C574.449 108.66 578.482 107.782 582.976 107.782C590.735 107.782 596.609 109.773 600.59 113.751C604.573 117.732 606.563 124.11 606.563 132.886V177.525H587.816V137.541C587.816 132.603 586.987 128.897 585.336 126.428C583.678 123.959 581.077 122.722 577.521 122.722C572.948 122.722 569.528 124.356 567.258 127.621C564.993 130.888 563.86 136.071 563.86 143.173V177.525Z" fill="#4A5568"/>
<path fill-rule="evenodd" clip-rule="evenodd" d="M660.945 145.807L653.715 146.051C648.282 146.216 644.238 147.195 641.584 148.992C638.928 150.788 637.601 153.521 637.601 157.197C637.601 162.462 640.623 165.095 646.667 165.095C650.996 165.095 654.46 163.85 657.053 161.359C659.646 158.87 660.945 155.564 660.945 151.439V145.807ZM666.458 177.525L662.844 168.217H662.353C659.207 172.178 655.97 174.922 652.641 176.453C649.313 177.983 644.973 178.748 639.624 178.748C633.044 178.748 627.869 176.872 624.09 173.117C620.313 169.361 618.424 164.014 618.424 157.073C618.424 149.809 620.966 144.451 626.05 141.001C631.139 137.552 638.806 135.643 649.058 135.275L660.943 134.908V131.907C660.943 124.969 657.389 121.498 650.283 121.498C644.808 121.498 638.375 123.15 630.983 126.458L624.795 113.845C632.678 109.722 641.421 107.659 651.018 107.659C660.208 107.659 667.254 109.661 672.157 113.661C677.057 117.661 679.508 123.743 679.508 131.907V177.525H666.458Z" fill="#4A5568"/>
</svg>
