<svg width="163" height="186" viewBox="0 0 163 186" fill="none" xmlns="http://www.w3.org/2000/svg">
<path d="M0 25C0 11.1929 11.1929 0 25 0H138C151.807 0 163 11.1929 163 25V161C163 174.807 151.807 186 138 186H25C11.1929 186 0 174.807 0 161V25Z" fill="white"/>
<path fill-rule="evenodd" clip-rule="evenodd" d="M23.0573 112.254C21.6273 114.586 21.6494 117.53 23.1144 119.841L49.6299 161.668C51.3508 164.383 54.6679 165.621 57.7465 164.697L134.264 141.742C138.44 140.489 140.541 135.831 138.716 131.872L89.5265 25.1689C87.1276 19.9653 79.8961 19.5381 76.9013 24.4232L23.0573 112.254ZM88.2195 49.5622C87.1741 47.1431 83.6338 47.5157 83.1149 50.0995L64.1773 144.393C63.778 146.381 65.6395 148.079 67.5827 147.499L120.45 131.718C121.993 131.257 122.788 129.553 122.149 128.074L88.2195 49.5622Z" fill="#4A5568"/>
</svg>
