<svg id="Calque_1" data-name="Calque 1" xmlns="http://www.w3.org/2000/svg" viewBox="0 0 422.23 662.54"><defs><style>.cls-1{fill:#dcf0fe;}.cls-2{fill:#f7eaae;}.cls-3{fill:#b9824f;}.cls-4{fill:#815225;}.cls-5{fill:#258a13;}.cls-6{fill:#7c7b7b;}.cls-7{fill:#412919;}.cls-8{fill:#ffdec0;}.cls-9{fill:#1b1a11;}.cls-10{fill:#f3ba8e;}.cls-11{fill:#425e2b;}.cls-12{fill:#364926;}.cls-13{fill:#fff5d7;}.cls-14{fill:#fff;}</style></defs><path class="cls-1" d="M158.35,164.17c1.16-2,3.29-3,5.05-4.26a211.7,211.7,0,0,1,28.37-17.67,222.81,222.81,0,0,1,27.16-11.79,216.09,216.09,0,0,1,30.84-8.25c5.46-1,10.94-1.85,16.48-2.38,5.38-.52,10.78-.73,16.18-1a83.72,83.72,0,0,1,10.25-.33c4.44.34,8.89.37,13.32.78q5.58.51,11.14,1.12c3.38.38,6.73,1.07,10.09,1.65a192.07,192.07,0,0,1,21.32,5.08,184.5,184.5,0,0,1,20.28,7.1c5.29,2.24,10.59,4.45,15.67,7.13,6.42,3.37,12.75,6.91,18.85,10.86a217.08,217.08,0,0,1,18.75,13.54c3,2.45,5.95,5,8.85,7.66s5.84,5.43,8.64,8.27c4.15,4.19,8,8.67,11.81,13.14A188,188,0,0,1,465.64,214a197.75,197.75,0,0,1,14,24.75,218.48,218.48,0,0,1,11.15,28.47,191,191,0,0,1,6.26,26.18c.71,4.47,1.44,8.92,1.91,13.43s.62,9,1,13.55a92.17,92.17,0,0,1,.23,14.57c-.27,3.87,0,7.79-.73,11.65-.39,2.09-.23,4.27-.51,6.41-.62,4.8-1.17,9.61-2.07,14.37-1.21,6.4-2.63,12.76-4.37,19-1.92,6.92-4.26,13.69-6.84,20.38a181.43,181.43,0,0,1-8,17.89,201.94,201.94,0,0,1-20.87,33.1c-3.1,3.94-6.25,7.83-9.58,11.59a125.17,125.17,0,0,1-9.2,9.37c0-.63-.11-1.27-.11-1.9q-.17-48.78-.31-97.55-.11-60.16-.1-120.32c0-5-.07-10.07-.07-15.1a2.38,2.38,0,0,0-1-2.27c-2.24-1.53-4.24-3.38-6.57-4.78-.26-1.18-1.21-.82-1.94-.83q-7.17,0-14.34,0c-2.25,0-2.38.14-2.36,2.52,0,2.71.2,5.42.22,8.12,0,5.42,0,10.84,0,16.26a4.43,4.43,0,0,1-2.34-.19l-13.32-3.47-10.09-2.59c-.12-2.9-.42-3.3-3.11-3.85a5.2,5.2,0,0,1-2.61-1.58,3.5,3.5,0,0,0-3.92-1c-.54.2-1.16.43-1.6.06a5.34,5.34,0,0,0-5.4-.8,2.59,2.59,0,0,1-1.65,0,4.14,4.14,0,0,0-4.95,1.19,19.46,19.46,0,0,1-4.18-1c-15.13-3.89-30.28-7.74-45.41-11.67-5.16-1.35-10.39-2.43-15.47-4.12a3.18,3.18,0,0,0,2.5-3c1.07-.12,1.36-1,1.72-1.79,1-2.25.63-4.51-.06-6.74a15.39,15.39,0,0,1-.41-8,6.44,6.44,0,0,0-1-5.69,32.66,32.66,0,0,0,1.88-3.49c1.11-2.89-2.79-5.06-4.74-6.18-.05-.28-.27-2-.31-2.24.71-.41,4.77,1.33,4.07.56a5.18,5.18,0,0,1-1.15-1.8,1.49,1.49,0,0,1,.61-1.88,1.68,1.68,0,0,1,2-.11,1.47,1.47,0,0,1,.52,1.71c-.08.31-.25.59-.35.89-.16.49-.17,1,.33,1.26s1.09,0,1.43-.49a3.52,3.52,0,0,0,.37-3.84,12.78,12.78,0,0,0-1.24-1.82,7.32,7.32,0,0,0,1.72-5.31c0-.57,0-1.19-.7-1.36s-.92.44-1.14,1a3.57,3.57,0,0,1-1.61,2c-1.52.75-2.69.6-3.95-1.07-2.11-2.81-5-3.51-8.22-3.5a15.18,15.18,0,0,0-1.91.11,6.24,6.24,0,0,1-4.14-.85c-3.29-2-6.89-2.33-10.62-2.2a18,18,0,0,0-9.44,3.06c-.19-.34-.33-.53-.42-.74-.18-.46-.34-1-1-.89s-.75.54-.81,1c-.26,1.86-1.59,2.45-3.19,2.71-.76.13-1.89,0-1.87,1,0,1.29,1.27.81,2.06,1,.12,0,.22.13.38.23-4.22,6.45-6.79,13.3-5.57,21.21.67,4.31,1.56,8.46,4.33,12,.73.94,1.34,2,2,3-.54,1-1.25.32-1.88.16-6.8-1.73-13.59-3.51-20.4-5.19-3.25-.8-6.42-1.93-9.75-2.35-.41-3.36-1.4-4.41-4.24-4a8.64,8.64,0,0,1-3.3-.54,66.86,66.86,0,0,1-7.47-1.87.61.61,0,0,0-.46,0c-.86.46-1.44.06-2.1-.5-1.92-1.64-3.93-1.32-5.61.8L204,210a7.31,7.31,0,0,0-1.09-.44c-10.5-2.72-21-5.47-31.5-8.11-4-1-8-2.32-12.07-3a8.16,8.16,0,0,1-.26-3.07c-.06-9.45-.09-18.9-.16-28.36C159,166.1,159.2,165,158.35,164.17Z" transform="translate(-78.18 -118.42)"/><path class="cls-2" d="M448.78,686.4a56.11,56.11,0,0,1,16.45,3.8,33.86,33.86,0,0,1,9.46,5.53,17.83,17.83,0,0,1,6.5,12.6c.51,5.61-1.84,10-5.45,14-4.65,5.2-10.43,8.85-16.33,12.38-2.46,1.48-4.9,3-6.47,5.55a8.28,8.28,0,0,0-.94,6c.36,2,2.07,2.9,3.86,3.55a36.22,36.22,0,0,0,6.77,1.34c3.76.58,7.58.83,11.27,1.89a13.49,13.49,0,0,1,5.45,2.9c3,2.75,2.18,5.77-.58,7.62a23.28,23.28,0,0,1-5.84,2.74,94.94,94.94,0,0,1-17.43,3.94,54.37,54.37,0,0,1-15.44-.2c-9.05-1.44-17.91-3.65-26.81-5.76a97.32,97.32,0,0,0-10.35-1.64c-3.62-.46-7.22-1.11-10.84-1.62s-7.38-1.09-11.13-1.29a77.53,77.53,0,0,1-9.73-.81,9.55,9.55,0,0,0-1.2-.07c-13.56-.49-27.14-.81-40.71-.42-8.78.24-17.56.16-26.33.51-7.69.3-15.41.69-23,2.28a70.78,70.78,0,0,0-17,5.51c-1.94,1-3.9,1.86-5.79,2.9-5.79,3.21-12.09,4.91-18.46,6.41s-12.86,2.06-19.31,3c-3.46.49-7,.61-10.44,1a135.46,135.46,0,0,1-15.73.88,104.32,104.32,0,0,1-12.61-.85,76,76,0,0,1-9.87-1.59,89.12,89.12,0,0,1-28.6-12.41q-4.44-3-8.8-6.18a39.74,39.74,0,0,0-11.49-5.26c-4.92-1.59-10-2.8-14.82-4.63a27.47,27.47,0,0,1-15.23-13.12c-1.27-2.4-.75-4.88.59-7.08a14.57,14.57,0,0,1,5.88-5.47,57.68,57.68,0,0,1,15.64-5.8,13.56,13.56,0,0,0,1.37-.43c5.09,6.89,8.55,14.35,8.16,23.2-.1,2.26.17,2.42,2.45,2.4,5.11-.06,10.22-.13,15.33-.16q15-.12,29.94-.19c4.26,0,4.2,0,4.39-4.43a56.43,56.43,0,0,1,7.64-26.13,1.89,1.89,0,0,0,1.54.5c6.52.13,13,.68,19.5,1.36,4.35.45,8.68,1,13,1.41,6.09.61,12.09,1.78,18.15,2.59,7.31,1,14.52,2.65,21.89,3.34a121.67,121.67,0,0,0,14.52.86,14.66,14.66,0,0,0,6.64-1.77c1.38-.74,1.5-1.38.65-2.69a6.53,6.53,0,0,0-1.89-1.81A38.73,38.73,0,0,0,266.8,712c-4.78-1.52-9.61-2.86-14.4-4.36a18.26,18.26,0,0,1-7.05-3.88c-3.16-2.88-2.19-6.62.72-8.44a38.68,38.68,0,0,1,12-4.52c2-.47,4.13-.31,6.17-.61a75.82,75.82,0,0,1,9.5-.74c9.26-.2,18.53,0,27.79-.11,13-.08,26,.38,39-.47,1.83-.12,3.67-.3,5.18-1.5.62-.49,1.28-1.06,1-2a2.31,2.31,0,0,0-1.85-1.68c-.62-.14-1.27-.17-1.88-.34a4.18,4.18,0,0,1-3.34-3.86c-.09-2,.87-3.23,3.07-4a27.28,27.28,0,0,1,7.72-1.39c5.33-.3,10.67,0,16-.44a72,72,0,0,1,15,.79c4.53.56,8.2,2.3,10.76,6.22a5.63,5.63,0,0,0,3.47,2.8,26.69,26.69,0,0,0,4.72.66c2.48,0,5,0,7.43,0-.1,2.56-.29,5.11-.27,7.66a31.54,31.54,0,0,0,.75,7.62c.62,2.37,1.3,4.73,2,7.49-9.4-7.48-12.66-9.34-15.48-9-.09.28.08.45.27.6,7.78,6.6,11.26,15.28,12,25.21.18,2.22-.23,2.26,2.48,2.26h.48l30.92-.22c.95,0,1.91-.05,2.87-.1a1.11,1.11,0,0,0,1.19-1.21,13.64,13.64,0,0,0,0-1.43,43.75,43.75,0,0,1,2.43-17.2c.86-2.61,1.83-5.12,3.94-7,.17-.16.24-.41-.21-.76-4.38,1.68-7.56,5.09-10.77,8.7a5.88,5.88,0,0,1,.05-3.2,40.72,40.72,0,0,1,3.56-9.89C445.5,691.1,446.68,688.45,448.78,686.4ZM196.17,732.51a1.06,1.06,0,0,0,.42.94,45.61,45.61,0,0,1,5.69,6.79,30.2,30.2,0,0,1,4.68,8.85,7.62,7.62,0,0,1,.27,4.24c-1.17-1-2.11-1.77-3.11-2.5a7.82,7.82,0,0,0-3.36-1.6c-.18.74.3,1,.62,1.32a12.78,12.78,0,0,1,3.65,8.86,20.4,20.4,0,0,1,.05,4.06c-.14.83.2,1.2,1,1.18,4.87-.11,9.74,0,14.61-.32.78-.05,1.16-.31,1.2-1.12.05-1.35.2-2.7.26-4.06a29.61,29.61,0,0,1,10.24-21.43c.27-.24.67-.45.39-1.08a15.77,15.77,0,0,0-4.71,2.13,22.51,22.51,0,0,0-4.14,2.84,33.6,33.6,0,0,0-3.7,3.75c-1.09,1.29-1.17,3.17-2.59,4.51-1-4,0-7.62,1.06-11.24a12.73,12.73,0,0,0-6.1,8.91,36.14,36.14,0,0,0-6.63-9.46A19.11,19.11,0,0,0,196.17,732.51Zm186-43c-2.5.2-4.28,1.79-6.41,3.45a45.7,45.7,0,0,1,.68-13.69c-2.93,3.21-3.64,7.23-4.22,11.4-2.65-3.91-5.52-7.4-9.73-9.56a36.3,36.3,0,0,1,4.17,7.41,64.81,64.81,0,0,1,3.06,12c.24,1.47-.52,3.44.65,4.29s3.09.25,4.67.22c3.35-.05,3.07.51,3.06-3.06C378.07,697.46,378.73,693.11,382.15,689.54Z" transform="translate(-78.18 -118.42)"/><path class="cls-1" d="M136.14,473.46a2.2,2.2,0,0,1-1.38-.89c-2.42-2.74-4.92-5.43-7.23-8.27-3.57-4.37-7-8.82-10.29-13.45q-5.23-7.44-9.89-15.23a193.73,193.73,0,0,1-9.54-18.23,213.3,213.3,0,0,1-11-29.3c-1.73-5.88-3.15-11.83-4.42-17.82-1-4.65-1.61-9.37-2.27-14.09-.52-3.7-.6-7.44-1.32-11.1a2.58,2.58,0,0,1,0-.48c-.24-7.66-1-15.32-.41-23,.39-5.3.57-10.62,1.23-15.91.9-7.18,2-14.3,3.47-21.38,1-5,2.42-9.88,3.76-14.79a165.92,165.92,0,0,1,6.46-18.75,203.44,203.44,0,0,1,9.93-21.22A240.26,240.26,0,0,1,116.48,208c3.55-5.1,7.43-9.94,11.36-14.74,1.47-1.78,3.26-3.28,4.5-5.26a2.86,2.86,0,0,1,1.82-1.46c.06,1.12.17,2.23.18,3.35.2,17.17.07,34.35.36,51.53.39,23.41,0,46.82.51,70.23.14,6,0,12,.1,18,.17,17.18.1,34.36.34,51.54.38,27.8.39,55.61.54,83.42A81.85,81.85,0,0,1,136.14,473.46Z" transform="translate(-78.18 -118.42)"/><path class="cls-3" d="M136.14,473.46a81.85,81.85,0,0,0,.05-8.86c-.15-27.81-.16-55.62-.54-83.42-.24-17.18-.17-34.36-.34-51.54-.06-6,0-12-.1-18-.52-23.41-.12-46.82-.51-70.23-.29-17.18-.16-34.36-.36-51.53,0-1.12-.12-2.23-.18-3.35.15-5.59.18-11.18,0-16.77-.09-2.64,0-5.27-.08-7.91,0-.87.32-1.29,1.26-1.33,5.1-.22,10.2-.48,15.31-.71.19,0,.4.21.6.31.19,15.42,0,30.83.31,46.25.62,27.64-.09,55.3.51,82.95.6,27.08-.1,54.17.48,81.26.59,27.73-.11,55.46.49,83.19.57,26.76-.1,53.53.47,80.31.59,27.88-.17,55.77.48,83.66.4,17,.09,34.06.12,51.09,0,12.62-.1,25.24.45,37.85,0,.32.05.64.08.95a15.14,15.14,0,0,1-2,3.26c-.68,1.1-.81,2.48-1.77,3.57-1.82-6.6-1.94-6.88-3.44-7.78a11.36,11.36,0,0,1-.41,5.92c-.21.64-.21,1.6-1.17,1.54-.75,0-.84-.84-1-1.46s-.34-1.39-.45-2.09c-.28-1.89-.65-3.77-.77-5.67-.29-4.51-1.14-9-.21-13.55.16-.76.76-1.57.2-2.62-2.48,1.75-4,4.19-5.82,6.33,0-.72-.09-1.43-.09-2.15-.19-27.32-.27-54.64-.58-82-.28-24.12-.19-48.24-.49-72.37-.26-20.84-.26-41.69-.44-62.54C136.26,475.21,136.18,474.33,136.14,473.46Z" transform="translate(-78.18 -118.42)"/><path class="cls-4" d="M154.62,707.65c0-.31-.07-.63-.08-.95-.55-12.61-.43-25.23-.45-37.85,0-17,.28-34.07-.12-51.09-.65-27.89.11-55.78-.48-83.66-.57-26.78.1-53.55-.47-80.31-.6-27.73.1-55.46-.49-83.19-.58-27.09.12-54.18-.48-81.26-.6-27.65.11-55.31-.51-82.95-.34-15.42-.12-30.83-.31-46.25,1.81.42,3.22,1.58,4.74,2.53l2.38,1.5c.85.85.6,1.93.6,2.93.07,9.46.1,18.91.16,28.36a8.16,8.16,0,0,0,.26,3.07c0,3.06,0,6.12,0,9.18,0,.8-.11,1.59-.1,2.39,0,8.55.07,17.11.08,25.66,0,26.3,0,52.6.23,78.9.18,23.34.2,46.68.25,70,0,25.74,0,51.48.23,77.22.11,10.47,0,20.94,0,31.41a8.53,8.53,0,0,0,.15,2.62c0,.56-.11,1.11-.1,1.67,0,12.14.15,24.28.17,36.42,0,25,0,50,.21,75,.18,23.4.14,46.81.21,70.21,0,7.19.09,14.38.14,21.56A57.74,57.74,0,0,1,154.62,707.65Z" transform="translate(-78.18 -118.42)"/><path class="cls-4" d="M429.9,236.8c2.33,1.4,4.33,3.25,6.57,4.78a2.38,2.38,0,0,1,1,2.27c0,5,.06,10.06.07,15.1q0,60.17.1,120.32.09,48.78.31,97.55c0,.63.07,1.27.11,1.9,0,1-.11,2.08-.11,3.11q.07,74.71.17,149.42,0,25.77.1,51.55c0,.72.08,1.44.12,2.15-.06,1.18-.13,2.36-.19,3.53l-6.66,6.68c0-.72-.13-1.44-.13-2.15-.3-33.16.1-66.32-.39-99.48-.64-43.3.12-86.62-.49-129.93-.62-43.62.14-87.26-.48-130.89-.44-31.24-.11-62.5-.13-93.76C429.84,238.23,429.88,237.52,429.9,236.8Z" transform="translate(-78.18 -118.42)"/><path class="cls-5" d="M154.62,707.65a57.74,57.74,0,0,0,6.23-6.85c1.83-1.63,3.31-3.62,5.28-5.1.38-.29.71-.91,1.6-.39-1.4,2.83-3.4,5.33-4.41,8.32a30.62,30.62,0,0,0-2,9.25,33.05,33.05,0,0,0,0,6.89c.14,1.5.46,1.64,1.82,1,3.22-1.48,4.6-4.19,5-7.54.59-1.32-.06-2.84.51-4.4,1.35,1.41,1.67,3.1,2.6,4.44a30.19,30.19,0,0,1,1.17,5.6,19.21,19.21,0,0,0,3.58-5.62c.33-.45.65-.9,1-1.34,3.08-4,6.67-7.45,11.68-9,.49-.15,1-.51,1.69,0-2.86,3-5.57,6-7.22,9.86A56.36,56.36,0,0,0,175.58,739c-.19,4.39-.13,4.4-4.39,4.43q-15,.09-29.94.19c-5.11,0-10.22.1-15.33.16-2.28,0-2.55-.14-2.45-2.4.39-8.85-3.07-16.31-8.16-23.2a26.21,26.21,0,0,0-6.78-7.63c-1.25-1-2.61-1.84-3.9-2.78-.42-.3-1-.52-.79-1.31.65-.19,1.2.2,1.76.41a37,37,0,0,1,13.61,9.1,12.19,12.19,0,0,0,1,1.06c.62.5,1.28.2,1.28-.62a11.07,11.07,0,0,0-.26-2.13c-1.23-6.68-5-12-9.25-17-.4-.47-1-.78-1.24-1.52.92-.71,1.64,0,2.33.38a55,55,0,0,1,12.81,10.69,74.58,74.58,0,0,1,4.68,6.06c.34.49.53,1.14,1.4,1.44a38.24,38.24,0,0,1,5.93-19.15c1.82-2.14,3.34-4.58,5.82-6.33.56,1.05,0,1.86-.2,2.62-.93,4.54-.08,9,.21,13.55.12,1.9.49,3.78.77,5.67.11.7.29,1.39.45,2.09s.22,1.42,1,1.46c1,.06,1-.9,1.17-1.54a11.36,11.36,0,0,0,.41-5.92c1.5.9,1.62,1.18,3.44,7.78,1-1.09,1.09-2.47,1.77-3.57A15.14,15.14,0,0,0,154.62,707.65Z" transform="translate(-78.18 -118.42)"/><path class="cls-5" d="M431.46,695.16l6.66-6.68a26.4,26.4,0,0,0,5.16-3,43.88,43.88,0,0,1,8.52-3.57c.46-.16,1-.36,1.19.25s-.36.63-.65.84a10.78,10.78,0,0,0-3.56,3.42c-2.1,2.05-3.28,4.7-4.61,7.23a40.72,40.72,0,0,0-3.56,9.89,5.88,5.88,0,0,0-.05,3.2c3.21-3.61,6.39-7,10.77-8.7.45.35.38.6.21.76-2.11,1.88-3.08,4.39-3.94,7a43.75,43.75,0,0,0-2.43,17.2,13.64,13.64,0,0,1,0,1.43,1.11,1.11,0,0,1-1.19,1.21c-1,0-1.92.1-2.87.1l-30.92.22h-.48c-2.71,0-2.3,0-2.48-2.26-.78-9.93-4.26-18.61-12-25.21-.19-.15-.36-.32-.27-.6,2.82-.38,6.08,1.48,15.48,9-.75-2.76-1.43-5.12-2-7.49a31.54,31.54,0,0,1-.75-7.62c0-2.55.17-5.1.27-7.66.56-1.73.73-3.58,1.53-5.24.5-1,.84-2.2,2.14-2.78a46.53,46.53,0,0,0,1.55,19.53,19.68,19.68,0,0,0,5.2,9.27c.22-2.32.34-4.19.61-6.05a14.17,14.17,0,0,1,1.47-5.67c1.6,4.3,1.86,8.77,4.3,12.53.32-.26.58-.38.66-.57A65.22,65.22,0,0,1,431.46,695.16Z" transform="translate(-78.18 -118.42)"/><path class="cls-2" d="M443.28,685.46a26.4,26.4,0,0,1-5.16,3c.06-1.17.13-2.35.19-3.53A12.14,12.14,0,0,0,443.28,685.46Z" transform="translate(-78.18 -118.42)"/><path class="cls-3" d="M431.46,695.16a65.22,65.22,0,0,0-6.13,9.92c-.08.19-.34.31-.66.57-2.44-3.76-2.7-8.23-4.3-12.53a14.17,14.17,0,0,0-1.47,5.67c-.27,1.86-.39,3.73-.61,6.05a19.66,19.66,0,0,1-5.2-9.28c.61-.33.54-.92.53-1.47,0-4.46.12-8.93.2-13.39.13-7.1-.13-14.21-.18-21.31-.18-27.87,0-55.74-.46-83.61-.14-9.26-.07-18.53-.1-27.79q-.07-22.53-.16-45a6.18,6.18,0,0,0-.18-2.14,5,5,0,0,0,.16-2.37c-.29-3-.2-6.06-.22-9.09-.19-26.92-.15-53.83-.42-80.75-.32-32.9-.22-65.8-.55-98.71-.13-12.14-.12-24.28-.17-36.42.1-3.55.15-7.09,0-10.64,0-5.42,0-10.84,0-16.26,0-2.7-.18-5.41-.22-8.12,0-2.38.11-2.51,2.36-2.52q7.17,0,14.34,0c.73,0,1.68-.35,1.94.83,0,.72-.06,1.43-.06,2.15,0,31.26-.31,62.52.13,93.76.62,43.63-.14,87.27.48,130.89.61,43.31-.15,86.63.49,129.93.49,33.16.09,66.32.39,99.48C431.33,693.72,431.41,694.44,431.46,695.16Z" transform="translate(-78.18 -118.42)"/><path class="cls-6" d="M227.59,216.1c3.33.42,6.5,1.55,9.75,2.35,6.81,1.68,13.6,3.46,20.4,5.19.63.16,1.34.81,1.88-.16a2.16,2.16,0,0,0,2.33,1c1.42,1.08,3.13,1.24,4.81,1.46v0a.46.46,0,0,0,.5.4c.69.14,1.38.33,2.08.42,1.72.24,3.28,1.2,5.06,1.09,2.87,1.22,5.95,1.67,8.93,2.47,4.68,1.26,9.34,2.64,14.13,3.45,5.08,1.68,10.31,2.76,15.47,4.11,15.13,3.93,30.28,7.78,45.41,11.67a19.46,19.46,0,0,0,4.18,1c0,.39.05.79.08,1.18a3.86,3.86,0,0,0-.39,2.54c0,2.06,0,4.13,0,6.19L357,259.17c-1.22-.38-2.42-.8-3.66-1.12q-20.81-5.45-41.63-10.84c-5.86-1.51-11.73-3-17.6-4.43-5.63-1.48-11.26-3-16.89-4.43-3.94-1-7.83-2.2-11.84-2.93a13.21,13.21,0,0,0-1.32-.5l-31.78-8.36a29.94,29.94,0,0,0-5.22-1.29,34.12,34.12,0,0,0,.41-8Z" transform="translate(-78.18 -118.42)"/><path class="cls-7" d="M262,224.48a2.16,2.16,0,0,1-2.33-1c-.67-1-1.28-2-2-3-2.77-3.53-3.66-7.68-4.33-12-1.22-7.91,1.35-14.76,5.57-21.21-.16-.1-.26-.21-.38-.23-.79-.15-2,.33-2.06-1,0-1,1.11-.89,1.87-1,1.6-.26,2.93-.85,3.19-2.71.06-.5.26-1,.81-1s.77.43,1,.89c.09.21.23.4.42.74a18,18,0,0,1,9.44-3.06c3.73-.13,7.33.22,10.62,2.2a6.24,6.24,0,0,0,4.14.85,15.18,15.18,0,0,1,1.91-.11c3.24,0,6.11.69,8.22,3.5,1.26,1.67,2.43,1.82,3.95,1.07a3.57,3.57,0,0,0,1.61-2c.22-.52.41-1.13,1.14-1s.67.79.7,1.36a7.32,7.32,0,0,1-1.72,5.31A12.78,12.78,0,0,1,304.9,193a3.52,3.52,0,0,1-.37,3.84c-.34.45-.81.84-1.43.49s-.49-.77-.33-1.26c.1-.3.27-.58.35-.89a1.47,1.47,0,0,0-.52-1.71,1.68,1.68,0,0,0-2,.11,1.49,1.49,0,0,0-.61,1.88,5.18,5.18,0,0,0,1.15,1.8c.7.77.29,1.27-.42,1.68-1.32.14-2.5-1.39-3.65-2.24a5.66,5.66,0,0,0-4.45-3.19,45.93,45.93,0,0,0-11.41-.62c-4.37.18-6.8,2.55-7.94,6.59a17,17,0,0,0-.37,2.83,2.75,2.75,0,0,1-1.92.86c0,.17-1-.09-1.61.86-.27.48-1.86.71-2.33.8a49.07,49.07,0,0,0-7.54,2c-2.51.91-3.46,2.65-3,5.12.11,2.62.3,5.21,2.31,7.22l.32.37.06.08a12.62,12.62,0,0,0,1.83,2.89l.37.56Z" transform="translate(-78.18 -118.42)"/><path class="cls-8" d="M258.84,219.15c-2-2-2.2-4.6-2.31-7.22a6.55,6.55,0,0,1,2.22-3.33c1.3-1,2.68-1.4,4.15-.33a38.1,38.1,0,0,1,2.39,5.39,2.37,2.37,0,0,0,2.16,1.89c.74.06,1.35-.35,1-1.14-1-2.51-.78-5.26-.86-7.85,1.92-1,4.11-1.16,6.14-1.78,2.29-.7,2.35-.6,3.52,1.59a6.2,6.2,0,0,0,6.09,3.42c2.65-.08,4.18-1.68,5.24-3.91a8,8,0,0,0,.64-2.29c.09-.6.53-.73,1.06-.7s.63.38.67.8,0,.64.08.95a5,5,0,0,0,3.26,4.33,5.79,5.79,0,0,0,5.9-.41,6.44,6.44,0,0,1,1,5.69,15.39,15.39,0,0,0,.41,8c.69,2.23,1.07,4.49.06,6.74-.36.8-.65,1.67-1.72,1.79a3.45,3.45,0,0,0-.74-2.45,9.53,9.53,0,0,0-4.64-2.81,22.64,22.64,0,0,0-9.2.2c-3.67.64-7.19,2.1-11,2.14-1.78.11-3.34-.85-5.06-1.09-.7-.09-1.39-.28-2.08-.42l-.5-.4v0a1.42,1.42,0,0,0-.07-.22c-1-2.33-2.52-3.75-5.27-2.67,0,0-.33-.48-.37-.56,0-.9.76-.88,1.31-1.11a4.87,4.87,0,0,0,2.77-2.8c.23-.59.48-1.31-.28-1.65s-.9.4-1.19.85c-1.47,2.28-1.74,2.39-4.44,1.82l-.06-.08Zm37.19-5.1a2.66,2.66,0,0,0-3-2.41,7.82,7.82,0,0,0-4.36,2.71c-.34.4-.45.89,0,1.26a.83.83,0,0,0,1.09-.12,7.68,7.68,0,0,1,2.47-1.84c1-.3,2.08-.7,2.37.92.08.43.34.74.82.63C296.09,215.06,296,214.51,296,214.05Zm-4.54,7.56a7.61,7.61,0,0,0,3.24-.47c.48-.21.89-.41.68-1a.73.73,0,0,0-1-.41,6.22,6.22,0,0,1-4.15,0,2.4,2.4,0,0,0-.71,0c-.48,0-1,0-1.11.61a1,1,0,0,0,.91,1.17A16.53,16.53,0,0,0,291.49,221.61Zm-30-7.33c0-.74-.13-1.33-1-1.3-.72,0-.91.51-.91,1.11s.05,1.54,1,1.53C261.4,215.62,261.48,214.88,261.51,214.28Z" transform="translate(-78.18 -118.42)"/><path class="cls-6" d="M159.35,207.71c0-3.06,0-6.12,0-9.18,4.1.64,8,1.95,12.07,3,10.51,2.64,21,5.39,31.5,8.11A7.31,7.31,0,0,1,204,210c.06,3-.87,6-.11,9.06h-1.29a7.81,7.81,0,0,0-2.7-.85Q179.65,213,159.35,207.71Z" transform="translate(-78.18 -118.42)"/><path class="cls-8" d="M227.59,216.1c-.06.38-.11.77-.16,1.16a11.53,11.53,0,0,0-.93,4.6,4.4,4.4,0,0,1-2.13,4c-1.39.87-2.21.62-2.73-.9a12.19,12.19,0,0,1-.17-5.91c.28-1.75.65-3.56-.59-5.19.18,3.28-.61,6.48-.6,9.74a5.89,5.89,0,0,1-.19,2.13,2.34,2.34,0,0,1-2,1.55,2,2,0,0,1-2-1.06,3.13,3.13,0,0,1-.65-1.78c.14-3.34-.42-6.7.34-10a2.48,2.48,0,0,0-.18-2.16c-.61.07-.57.43-.65.72-.8,3.31-.37,6.68-.48,10a15.82,15.82,0,0,1-.1,2.39c-.13.7-.47,1.38-1.37,1.44s-1.78.11-2.31-.83a4.21,4.21,0,0,1-.56-2.06c0-3.59.06-7.19,0-10.79,0-.61.64-1.27.1-1.87-.47.07-.5.32-.53.55a56.41,56.41,0,0,0-.51,9.54,10.48,10.48,0,0,1,0,1.68,2,2,0,0,1-1.86,1.86,1.71,1.71,0,0,1-2.07-1.48,9.48,9.48,0,0,1-.37-2.59c0-2.88,0-5.75,0-8.63,0-.78.2-1.62-.49-2.25,1.68-2.12,3.69-2.44,5.61-.8.66.56,1.24,1,2.1.5a.61.61,0,0,1,.46,0,66.86,66.86,0,0,0,7.47,1.87,8.64,8.64,0,0,0,3.3.54C226.19,211.69,227.18,212.74,227.59,216.1Z" transform="translate(-78.18 -118.42)"/><path class="cls-6" d="M411.5,262.83c.19,3.55.14,7.09,0,10.64a4.81,4.81,0,0,0-2.17-.91q-8.65-2.25-17.32-4.47l-9.21-2.38a1.13,1.13,0,0,0-.39-.17,1.53,1.53,0,0,1,.37-1.48,2.38,2.38,0,0,0,.53-1.7h0a8.08,8.08,0,0,0,1.51-5.25v0l.42-.48.49-.08,10.09,2.59,13.32,3.47A4.43,4.43,0,0,0,411.5,262.83Z" transform="translate(-78.18 -118.42)"/><path class="cls-8" d="M385.75,256.58l-.49.08-.36-.17-.06.65v0a9.57,9.57,0,0,0-1.5,5.25h0c-.86.34-1.33,1.12-2,1.73s-1.1.39-1.54-.21a2.18,2.18,0,0,1-.22-1.83c.44-2.41.88-4.83,1.22-7.26.08-.56.44-1.43-.64-1.79-.41,2.59-.8,5.09-1.22,7.58a4.32,4.32,0,0,1-1.91,2.92,1.31,1.31,0,0,1-2.12-.66,3.35,3.35,0,0,1-.27-1.39c.09-2.3-.27-4.61.36-6.9a2.2,2.2,0,0,0-.27-2.32.78.78,0,0,0-.52.79c0,2.15-.75,4.23-.56,6.4a6.85,6.85,0,0,1-.94,3.42,1.7,1.7,0,0,1-1.76,1,1.52,1.52,0,0,1-1.59-1.17,5.69,5.69,0,0,1-.26-2.79,27.21,27.21,0,0,0,0-8.06c0-.06-.26-.09-.51-.17a10.79,10.79,0,0,0-.2,3.75,29,29,0,0,1-.66,5.19,2.35,2.35,0,0,1-2.15,2.24c-1.26.06-1.85-.86-2.2-1.86a11.8,11.8,0,0,1-.76-4c0-1.75-.08-3.51-.12-5.26,0-.39,0-.79-.08-1.18a4.14,4.14,0,0,1,4.95-1.19,2.59,2.59,0,0,0,1.65,0,5.34,5.34,0,0,1,5.4.8c.44.37,1.06.14,1.6-.06a3.5,3.5,0,0,1,3.92,1,5.2,5.2,0,0,0,2.61,1.58C385.33,253.28,385.63,253.68,385.75,256.58Z" transform="translate(-78.18 -118.42)"/><path class="cls-9" d="M262.9,208.27c-1.47-1.07-2.85-.69-4.15.33a6.55,6.55,0,0,0-2.22,3.33c-.51-2.47.44-4.21,3-5.12a49.07,49.07,0,0,1,7.54-2c.47-.09,1.3-.29,1.3-.29l5.22-1.61s2.82-.38,3.51-2a2.25,2.25,0,0,1,1.29-1,12.61,12.61,0,0,1,7.24-1c1.4.26,2.76.53,3.46,2.15.46,1.06,1.53,1,2.18,0a4.83,4.83,0,0,1,3.3-2.15,12.83,12.83,0,0,1,6.31.83c1.95,1.12,2.38,2.46,1.27,5.35a18.77,18.77,0,0,1-1.4,2.66,3.49,3.49,0,0,1-1.55,1.42,5.92,5.92,0,0,1-4.83-.18,5,5,0,0,1-3.26-4.33c0-.31-.05-.63-.08-.95s-.16-.78-.67-.8-1,.11-1.07.78a5.11,5.11,0,0,1-.33,1.54c-1.06,2.57-2.63,4.49-5.54,4.58a6.2,6.2,0,0,1-6.09-3.42c-1.17-2.19-1.23-2.29-3.52-1.59-2,.62-6.14,1.78-6.14,1.78C266,206.92,264.28,207.1,262.9,208.27Zm35-4.82a1.79,1.79,0,0,1-.28-1.42c1.17-.19,2.41.09,3.88-.38-1.28-1.61-3.82-1.73-4.09-1.73-.34-.19-4-.18-5,1.79a4.76,4.76,0,0,0,.91,5.12,4.22,4.22,0,0,0,6.24.58,4.59,4.59,0,0,0,.72-.6c.67-.81,1.48-1.87,1.14-2.75-.42-1.07-1.82-.53-2.8-.64A5.78,5.78,0,0,0,297.86,203.45ZM283.61,200a8.59,8.59,0,0,0-4.59,1.06,2.79,2.79,0,0,0-1.38,3,4.47,4.47,0,0,0,3.23,4c2.19.65,4.27.49,6-1.25a5.11,5.11,0,0,0,1.12-5.1c-.8-1.61-2.32-1.76-3.88-1.77Z" transform="translate(-78.18 -118.42)"/><path class="cls-10" d="M274.39,227.83c3.79,0,7.31-1.5,11-2.14a22.64,22.64,0,0,1,9.2-.2,9.53,9.53,0,0,1,4.64,2.81,3.45,3.45,0,0,1,.74,2.45,3.18,3.18,0,0,1-2.5,3c-4.79-.8-9.45-2.18-14.13-3.44C280.34,229.5,277.26,229.05,274.39,227.83Z" transform="translate(-78.18 -118.42)"/><path class="cls-10" d="M204.41,210c.69.63.49,1.47.49,2.25,0,2.88,0,5.75,0,8.63a9.48,9.48,0,0,0,.37,2.59,1.71,1.71,0,0,0,2.07,1.48,2,2,0,0,0,1.86-1.86,10.48,10.48,0,0,0,0-1.68,56.41,56.41,0,0,1,.51-9.54c0-.23.06-.48.53-.55.54.6-.1,1.26-.1,1.87.06,3.6,0,7.2,0,10.79a4.21,4.21,0,0,0,.56,2.06c.53.94,1.42.89,2.31.83s1.24-.74,1.37-1.44a15.82,15.82,0,0,0,.1-2.39c.11-3.34-.32-6.71.48-10,.08-.29,0-.65.65-.72a2.48,2.48,0,0,1,.18,2.16c-.76,3.32-.2,6.68-.34,10a3.13,3.13,0,0,0,.65,1.78,2,2,0,0,0,2,1.06,2.34,2.34,0,0,0,2-1.55,5.89,5.89,0,0,0,.19-2.13c0-3.26.78-6.46.6-9.74,1.24,1.63.87,3.44.59,5.19a12.19,12.19,0,0,0,.17,5.91c.52,1.52,1.34,1.77,2.73.9a4.4,4.4,0,0,0,2.13-4,11.53,11.53,0,0,1,.93-4.6,34.12,34.12,0,0,1-.41,8c-1.55,1.46-3.15,2.73-5.5,1.76-.62-.26-1,.33-1.47.61-1.15.7-2.43,1.07-3.59.29a2.19,2.19,0,0,0-2.62-.06c-1.16.65-2.38.72-3.23-.41s-2-1.25-3.31-1.12c-2,.19-2.41-.38-2.92-2.28a22.41,22.41,0,0,1-.46-5c-.76-3,.17-6,.11-9.06Z" transform="translate(-78.18 -118.42)"/><path class="cls-5" d="M196.17,732.51a19.11,19.11,0,0,1,9.83,5.57,36.14,36.14,0,0,1,6.63,9.46,12.73,12.73,0,0,1,6.1-8.91c-1,3.62-2.09,7.2-1.06,11.24,1.42-1.34,1.5-3.22,2.59-4.51a33.6,33.6,0,0,1,3.7-3.75,22.51,22.51,0,0,1,4.14-2.84,15.77,15.77,0,0,1,4.71-2.13c.28.63-.12.84-.39,1.08a29.61,29.61,0,0,0-10.24,21.43c-.06,1.36-.21,2.71-.26,4.06,0,.81-.42,1.07-1.2,1.12-4.87.3-9.74.21-14.61.32-.83,0-1.17-.35-1-1.18a20.4,20.4,0,0,0-.05-4.06,12.78,12.78,0,0,0-3.65-8.86c-.32-.32-.8-.58-.62-1.32a7.82,7.82,0,0,1,3.36,1.6c1,.73,1.94,1.55,3.11,2.5a7.62,7.62,0,0,0-.27-4.24,30.2,30.2,0,0,0-4.68-8.85,45.61,45.61,0,0,0-5.69-6.79A1.06,1.06,0,0,1,196.17,732.51Z" transform="translate(-78.18 -118.42)"/><path class="cls-5" d="M382.15,689.54c-3.42,3.57-4.08,7.92-4.07,12.5,0,3.57.29,3-3.06,3.06-1.58,0-3.48.65-4.67-.22s-.41-2.82-.65-4.29a64.81,64.81,0,0,0-3.06-12,36.3,36.3,0,0,0-4.17-7.41c4.21,2.16,7.08,5.65,9.73,9.56.58-4.17,1.29-8.19,4.22-11.4a45.7,45.7,0,0,0-.68,13.69C377.87,691.33,379.65,689.74,382.15,689.54Z" transform="translate(-78.18 -118.42)"/><path class="cls-1" d="M412.74,500.81c-2.42,1.09-4.38,2.87-6.59,4.28-6.53,4.13-13.13,8.12-20,11.64a214.08,214.08,0,0,1-55.5,19.39c-4.57.93-9.2,1.64-13.87,2.16-5.77.65-11.54,1.07-17.33,1.48a122,122,0,0,1-15.29.24c-3.95-.23-7.94,0-11.89-.75-1.86-.33-3.79-.33-5.69-.5-4.83-.42-9.6-1.22-14.37-2-5.56-1-11.05-2.23-16.51-3.67a207.3,207.3,0,0,1-25.8-8.66,202.85,202.85,0,0,1-44.17-24.61c-1.77-1.35-3.65-2.55-5.48-3.82a8.53,8.53,0,0,1-.15-2.62c0-10.47.08-20.94,0-31.41-.25-25.74-.19-51.48-.23-77.22-.05-23.35-.07-46.69-.25-70-.2-26.3-.21-52.6-.23-78.9,0-8.55-.06-17.11-.08-25.66,0-.8.07-1.59.1-2.39q20.29,5.26,40.58,10.53a7.81,7.81,0,0,1,2.7.85c-.67.4-.58,1.06-.61,1.7a54.16,54.16,0,0,0,.73,7.83,19.15,19.15,0,0,0,1,4.11c.55,1.64,1.59,3.2,1.61,5,0,5.1.17,10.19-.87,15.24a79.64,79.64,0,0,0-1.59,16.6,77.21,77.21,0,0,0,1.24,13.76,132.29,132.29,0,0,0,5.27,18.84,10.11,10.11,0,0,0,1.56,2.94,2.52,2.52,0,0,0,3.13,1,17.81,17.81,0,0,0,4.39-1.87c2.56-1.8,5.49-2.38,8.45-3,3.69-.82,7.18-2.07,9.77-5.12a30.18,30.18,0,0,0,3.16-3.89,3.31,3.31,0,0,1,1.47-1.51c.26.49.5,1,.79,1.48A64.76,64.76,0,0,0,259,310.24a3.42,3.42,0,0,1,1.18,1.15c.67,1.27,1.42,2.49,2.08,3.77a73.13,73.13,0,0,1,5.5,15.52c1.2,4.7,2.47,9.41,2.43,14.33a5.06,5.06,0,0,0-.59,2.29c-.72,5.69-1.75,11.34-2.49,17-1.46,11.14-3.58,22.18-4.82,33.37-1.31,11.81-2.76,23.6-3.32,35.48-.23,4.86-.34,9.73-.54,14.59,0,1.11.2,1.78,1.5,1.89,1.67.13,3.31.49,5,.75a66.93,66.93,0,0,1-1.15,7.31A3.54,3.54,0,0,0,264,460c-1.8,6.51-1.14,12.92.86,19.24A8.68,8.68,0,0,0,268.7,484c.13.3.31.34.54.1l.87,0c0,1,1.14.65,1.49,1.24-.17.44-.36.88-.52,1.33-1.37,4.07-2.3,8.26-3.35,12.42-.59,2.38-1,4.81-1.41,7.23-.7,4.19-.46,8.42-.5,12.64a26.44,26.44,0,0,0,1.11,8.23c1.67,5.35.93,4.89,6.83,6.16a1,1,0,0,0,.24,0,5.51,5.51,0,0,1,.71.06c4.53,1,7.25-.68,8.46-5.15.58-2.12.26-4.24.41-6.36.06-.83-.32-1.76.5-2.44.9.48,1.36,1.51,2.34,1.9a2.48,2.48,0,0,0,1.62.93,9.55,9.55,0,0,0,10.23-5,32.05,32.05,0,0,0,3-15.71l0-.83a3.27,3.27,0,0,1,2-1.05,2.75,2.75,0,0,0,2.29-2.87c.07-1.36.09-2.7-.94-3.79a55.59,55.59,0,0,0,6.79-1.26c3.59-.75,7-2.1,10.56-3,7.19-1.81,14.56-2.45,21.93-3,2.54-.18,5.07-.41,7.61-.61,3.4-.26,6.77-.83,10.15-1.31,4.81-.69,9.64-1.46,14.1-3.41,3.11-1.36,6.12-3,8.14-6.05a29.12,29.12,0,0,0,4.58-10.68,32.08,32.08,0,0,0,.84-8.74c.06-.44.13-.88.19-1.33h0c.28,0,.41-.12.41-.39a7.76,7.76,0,0,0,.15-3.94,17.19,17.19,0,0,1-.55-3.83c1.19-.19,2.37-.36,3.55-.57,2.36-.4,2.29-.39,1.92-2.68-1.49-9.28-4.71-18-8-26.78-3.4-9.08-8.16-17.48-12.8-26-7.62-13.89-17.54-26.06-27.67-38.11-1.83-2.66-3.72-5.28-5.33-8.08a2.65,2.65,0,0,0-.52-.48,105,105,0,0,1-3.43-29.26l.44-.05a2.56,2.56,0,0,1,1.8,1.06,82.93,82.93,0,0,0,12.72,10.07,30.51,30.51,0,0,1,4.25,3.09c2.61,2.55,3.32,2.55,6.05.05a11,11,0,0,0,1.09-1.26c.89-1.12,1.72-2.3,2.68-3.36a33.86,33.86,0,0,0,7.4-14.3,57.39,57.39,0,0,0,1.58-11.31c.25-4.37.79-8.73.76-13.1a33,33,0,0,1,1.67-10.08,15.76,15.76,0,0,1,3.41-6,5.68,5.68,0,0,0,1.69-2.83l9.21,2.38q8.65,2.24,17.32,4.47a4.81,4.81,0,0,1,2.17.91c0,12.14,0,24.28.17,36.42.33,32.91.23,65.81.55,98.71.27,26.92.23,53.83.42,80.75,0,3-.07,6.06.22,9.09A5,5,0,0,1,412.74,500.81Z" transform="translate(-78.18 -118.42)"/><path class="cls-2" d="M161.33,712.88c2.26.86,4.6.28,6.9.36-.43,3.35-1.81,6.06-5,7.54-1.36.63-1.68.49-1.82-1A33.05,33.05,0,0,1,161.33,712.88Z" transform="translate(-78.18 -118.42)"/><path class="cls-2" d="M171.34,713.28l4.75,0a19.21,19.21,0,0,1-3.58,5.62A30.19,30.19,0,0,0,171.34,713.28Z" transform="translate(-78.18 -118.42)"/><path class="cls-8" d="M382.84,265.71a5.68,5.68,0,0,1-1.69,2.83,15.76,15.76,0,0,0-3.41,6,33,33,0,0,0-1.67,10.08c0,4.37-.51,8.73-.76,13.1A57.39,57.39,0,0,1,373.73,309a33.86,33.86,0,0,1-7.4,14.3c-1,1.06-1.79,2.24-2.68,3.36a11,11,0,0,1-1.09,1.26c-2.73,2.5-3.44,2.5-6.05-.05a30.51,30.51,0,0,0-4.25-3.09,82.93,82.93,0,0,1-12.72-10.07,2.56,2.56,0,0,0-1.8-1.06,13.92,13.92,0,0,0-.91-5.38c-1.15-4.07-2.29-8.21-1.83-12.43.34-3.08.38-6.18.72-9.26a42.32,42.32,0,0,0-1.43-15.13c-.19-.77-.25-2.26-1.2-2.06-1.17.25-.63,1.6-.37,2.43a33.6,33.6,0,0,1,1.16,6.8c.49,5.34-.16,10.69-.6,16a34.83,34.83,0,0,0,.5,8.25c.58,3.79,2.1,7.3,3.52,10.84A105,105,0,0,0,340.73,343a9.94,9.94,0,0,1-1.09.44,159.63,159.63,0,0,1-55.58,3.29c-.35.37-2.39.15-2.87.11-1.77-.13-.26-.65-.6-2.47-.5-2.58-.54-5.22-.95-7.8a165.43,165.43,0,0,0-3.48-17,60.16,60.16,0,0,0-6.25-16c-1.23-2-2.69-4-3.79-6.08a2.94,2.94,0,0,0-2.15-1.62c-7.44-1.9-12.33-6.68-15.12-13.74a5.09,5.09,0,0,1,1.06-5.35,2.38,2.38,0,0,1,3-.67,13.46,13.46,0,0,1,4.16,2.77,114.92,114.92,0,0,0,8.9,8.34A31.1,31.1,0,0,0,278.26,294a19.9,19.9,0,0,0,14.18-1.52,13.89,13.89,0,0,1,11.95-.65c4.93,1.95,10.06,3.54,15.58,2.24,3.55-.84,6.6-2.77,9.94-4.06a.89.89,0,0,0,.54-1.18c-.23-.6-.72-.48-1.2-.34a33.27,33.27,0,0,0-5.24,2.35,17.94,17.94,0,0,1-7.35,1.81c-4.52.15-8.61-1.38-12.75-2.82a11.94,11.94,0,0,0-7-.73,31.54,31.54,0,0,0-5.17,1.78c-5.48,2.4-10.9,3.07-16.51,0-4.32-2.33-8.48-4.76-11.74-8.51a14.94,14.94,0,0,0-1.87-1.86c-2.22-1.8-4.18-3.9-6.68-5.39a4.82,4.82,0,0,0-7.34,2.66,46.18,46.18,0,0,1-3.74,8c-.91,1.56-2.19,3-2.52,4.85a3.31,3.31,0,0,0-1.47,1.51,30.18,30.18,0,0,1-3.16,3.89c-2.59,3.05-6.08,4.3-9.77,5.12-3,.66-5.89,1.24-8.45,3a17.81,17.81,0,0,1-4.39,1.87,2.52,2.52,0,0,1-3.13-1,10.11,10.11,0,0,1-1.56-2.94,132.29,132.29,0,0,1-5.27-18.84,77.21,77.21,0,0,1-1.24-13.76,79.64,79.64,0,0,1,1.59-16.6c1-5.05.9-10.14.87-15.24,0-1.76-1.06-3.32-1.61-5a19.15,19.15,0,0,1-1-4.11,54.16,54.16,0,0,1-.73-7.83c0-.64-.06-1.3.61-1.7h1.29a22.41,22.41,0,0,0,.46,5c.51,1.9,1,2.47,2.92,2.28,1.35-.13,2.41-.06,3.31,1.12s2.07,1.06,3.23.41a2.19,2.19,0,0,1,2.62.06c1.16.78,2.44.41,3.59-.29.46-.28.85-.87,1.47-.61,2.35,1,3.95-.3,5.5-1.76a29.94,29.94,0,0,1,5.22,1.29c-1,4.07-2.19,7.95-6.56,9.89-2,.9-3.17,2.81-4,4.89a16.77,16.77,0,0,0-.7,3.74,27.24,27.24,0,0,0,1.73,14.5c.32.78.61,2,1.54,1.95s.91-1.34,1.17-2.09a32.37,32.37,0,0,1,2.6-6.63c2.55-4.26,6.34-7,10.65-9.28a25,25,0,0,1,3.56-1.34c3.4-1.16,6.91-1.1,10.4-.92s7,.78,9.68,3.37a4.88,4.88,0,0,0,1.23.73c.61.29,1.11.15,1.28-.56.45-1.84,1.3-3.67.81-5.6a16.19,16.19,0,0,1-.32-3.79c4,.73,7.9,1.91,11.84,2.93,5.63,1.45,11.26,3,16.89,4.43-.1,3.06,1.27,5.7,2.32,8.46a2.16,2.16,0,0,0,2.32,1.56,33.8,33.8,0,0,0,7.09-.81c3.36-.62,6.75-1.37,10.17-1a31.89,31.89,0,0,1,11.34,3.53,13.94,13.94,0,0,1,2.91,1.62,30.67,30.67,0,0,1,9.27,13.15A67.44,67.44,0,0,1,342,281.61a2.44,2.44,0,0,0,1.57,2.14c1.52.69,3,1.43,4.5,2.24,2.87,1.59,5.58,3.4,7.44,6.22-.09.47-.16.94-.27,1.39a44.69,44.69,0,0,0-1.69,13.17,8.53,8.53,0,0,0,.49,2.79c.12.33.27.61.64.56a.82.82,0,0,0,.65-.62,2.79,2.79,0,0,0,0-1.87,3.68,3.68,0,0,1-.24-2.11c.63-2.72.25-5.56,1-8.25a18.64,18.64,0,0,0,.42-5.2l0,0,.5-.54c0-1.9,1.21-3.27,2.2-4.66a17.87,17.87,0,0,0,3.62-12.27c-.21-2.4-.95-4.33-3-5.6a4.64,4.64,0,0,1-2.23-3.48,24.45,24.45,0,0,1-.55-6.38l5.26,1.28a4.17,4.17,0,0,0,2.39,3.56c1.43.74,2.54-.07,3.55-.93,2.28,2.69,2.63,2.77,5,.8.62-.51.93-.39,1.34.12.89,1.12,1.92,1.67,3.27.74.42-.29.91-.58,1.24-.07.89,1.37,2.14,1.09,3.4.87A1.13,1.13,0,0,1,382.84,265.71Zm-84,40.79c-1.93-.17-3.68.48-5.49.69-.58.07-1.44.37-1.38,1.1.09.91,1,.55,1.57.57a4.52,4.52,0,0,0,1.41-.18c3.46-.91,6.74-.92,9.59,1.69a1.51,1.51,0,0,0,2.17,0c2.13-1.86,4.76-2.42,7.41-3,1-.23,2.05-.28,3.05-.5a.84.84,0,0,0,0-1.67,2.78,2.78,0,0,0-1.18-.07c-3,.66-6.13,1.1-8.88,2.61a3.23,3.23,0,0,1-3.54-.07A7.73,7.73,0,0,0,298.85,306.5Zm3.48,25.89a9.79,9.79,0,0,0-5.16,1.64c-.51.3-.86.81-.44,1.39s.87.27,1.27,0c1.75-1.27,3.76-1.22,5.74-1a10.22,10.22,0,0,1,4.2,1.6,2.7,2.7,0,0,0,2.88.13,15.23,15.23,0,0,1,8.51-1.8,3.37,3.37,0,0,0,.95,0c.6-.11,1.08-.41,1.05-1.08s-.69-.72-1.24-.77a17.11,17.11,0,0,0-9.23,1.76,2.68,2.68,0,0,1-2.88-.09A12,12,0,0,0,302.33,332.39ZM320,319.66c-.08-.46-.42-.66-1.36-.69a17.85,17.85,0,0,0-8.56,1.78,2.69,2.69,0,0,1-2.63.1c-3.7-1.69-7.48-1-11.24-.21-.5.1-1.17.39-1,1.13s.86.54,1.41.44c1.4-.26,2.79-.59,4.2-.81,2.66-.43,5,.53,7.31,1.71.92.48,1.65.76,2.42-.37a4.2,4.2,0,0,1,2.72-1.37,21.7,21.7,0,0,1,5.21-.53C319.26,320.86,319.89,320.57,320,319.66Zm-95.81-57.25a31.77,31.77,0,0,0,1.18,4.86c.93,3.34,2.15,6.63,2.18,10.18,0,1.25.53,2.47.5,3.76a.6.6,0,0,0,.53.67.66.66,0,0,0,.79-.67,11.73,11.73,0,0,0,0-1.19,40.86,40.86,0,0,0-3.49-15.89A2.86,2.86,0,0,0,224.14,262.41Z" transform="translate(-78.18 -118.42)"/><path class="cls-1" d="M357,259.17a24.45,24.45,0,0,0,.55,6.38,4.64,4.64,0,0,0,2.23,3.48c2.07,1.27,2.81,3.2,3,5.6a17.87,17.87,0,0,1-3.62,12.27c-1,1.39-2.21,2.76-2.2,4.66l-.5.54,0,0-.93.14c-1.86-2.82-4.57-4.63-7.44-6.22-1.47-.81-3-1.55-4.5-2.24a2.44,2.44,0,0,1-1.57-2.14,67.44,67.44,0,0,0-2.53-12.36,30.67,30.67,0,0,0-9.27-13.15,13.94,13.94,0,0,0-2.91-1.62A31.89,31.89,0,0,0,316,251c-3.42-.33-6.81.42-10.17,1a33.8,33.8,0,0,1-7.09.81,2.16,2.16,0,0,1-2.32-1.56c-1.05-2.76-2.42-5.4-2.32-8.46,5.87,1.48,11.74,2.92,17.6,4.43q20.82,5.39,41.63,10.84C354.54,258.37,355.74,258.79,357,259.17Z" transform="translate(-78.18 -118.42)"/><path class="cls-1" d="M265.34,235.42a16.19,16.19,0,0,0,.32,3.79c.49,1.93-.36,3.76-.81,5.6-.17.71-.67.85-1.28.56a4.88,4.88,0,0,1-1.23-.73c-2.72-2.59-6.15-3.2-9.68-3.37s-7-.24-10.4.92a25,25,0,0,0-3.56,1.34c-4.31,2.24-8.1,5-10.65,9.28a32.37,32.37,0,0,0-2.6,6.63c-.26.75-.1,2.07-1.17,2.09s-1.22-1.17-1.54-1.95a27.24,27.24,0,0,1-1.73-14.5,16.77,16.77,0,0,1,.7-3.74c.8-2.08,1.95-4,4-4.89,4.37-1.94,5.55-5.82,6.56-9.89L264,234.92A13.21,13.21,0,0,1,265.34,235.42Z" transform="translate(-78.18 -118.42)"/><path class="cls-10" d="M382.45,265.54c-1.26.22-2.51.5-3.4-.87-.33-.51-.82-.22-1.24.07-1.35.93-2.38.38-3.27-.74-.41-.51-.72-.63-1.34-.12-2.41,2-2.76,1.89-5-.8-1,.86-2.12,1.67-3.55.93a4.17,4.17,0,0,1-2.39-3.56c0-2.06-.05-4.13,0-6.19a3.86,3.86,0,0,1,.39-2.54c0,1.75.13,3.51.12,5.26a11.8,11.8,0,0,0,.76,4c.35,1,.94,1.92,2.2,1.86a2.35,2.35,0,0,0,2.15-2.24,29,29,0,0,0,.66-5.19,10.79,10.79,0,0,1,.2-3.75c.25.08.5.11.51.17a27.21,27.21,0,0,1,0,8.06,5.69,5.69,0,0,0,.26,2.79,1.52,1.52,0,0,0,1.59,1.17,1.7,1.7,0,0,0,1.76-1,6.85,6.85,0,0,0,.94-3.42c-.19-2.17.55-4.25.56-6.4a.78.78,0,0,1,.52-.79,2.2,2.2,0,0,1,.27,2.32c-.63,2.29-.27,4.6-.36,6.9a3.35,3.35,0,0,0,.27,1.39,1.31,1.31,0,0,0,2.12.66,4.32,4.32,0,0,0,1.91-2.92c.42-2.49.81-5,1.22-7.58,1.08.36.72,1.23.64,1.79-.34,2.43-.78,4.85-1.22,7.26a2.18,2.18,0,0,0,.22,1.83c.44.6.89.86,1.54.21s1.09-1.39,2-1.73a2.38,2.38,0,0,1-.53,1.7A1.53,1.53,0,0,0,382.45,265.54Z" transform="translate(-78.18 -118.42)"/><path class="cls-10" d="M261.42,223.05c2.75-1.08,4.24.34,5.27,2.67a1.42,1.42,0,0,1,.07.22c-1.68-.22-3.39-.38-4.81-1.46Z" transform="translate(-78.18 -118.42)"/><path class="cls-10" d="M266.75,225.92l.5.4A.46.46,0,0,1,266.75,225.92Z" transform="translate(-78.18 -118.42)"/><path class="cls-8" d="M297.05,196.65l.14.36s.08,1.08.1,1.13l.07.75c-.56.16-3-1-6.14,2.15-.65,1-1.72,1.06-2.18,0-.7-1.62-2.06-1.89-3.46-2.15a12.61,12.61,0,0,0-7.24,1,2.25,2.25,0,0,0-1.29,1c-.69,1.59-3.51,2-3.51,2s-5.29,1.88-5.5,1.67c5.36-3.35,4.95-4.18,5.21-5.12,1.14-4,3.57-6.41,7.94-6.59a45.93,45.93,0,0,1,11.41.62A5.66,5.66,0,0,1,297.05,196.65Zm-20.73,3.42c1.87-.6,3.33-1.57,5-2.08s3.56-.18,5.43-.85C283.69,195.59,278.74,197,276.32,200.07Z" transform="translate(-78.18 -118.42)"/><path class="cls-10" d="M259.22,219.6c2.7.57,3,.46,4.44-1.82.29-.45.48-1.18,1.19-.85s.51,1.06.28,1.65a4.87,4.87,0,0,1-2.77,2.8c-.55.23-1.32.21-1.31,1.11A12.62,12.62,0,0,1,259.22,219.6Z" transform="translate(-78.18 -118.42)"/><path class="cls-7" d="M262.9,208.27c1.38-1.17,3.08-1.35,4.72-1.71.08,2.59-.16,5.34.86,7.85.32.79-.29,1.2-1,1.14a2.37,2.37,0,0,1-2.16-1.89A38.1,38.1,0,0,0,262.9,208.27Z" transform="translate(-78.18 -118.42)"/><path class="cls-10" d="M296,214.05c0,.46,0,1-.58,1.15-.48.11-.74-.2-.82-.63-.29-1.62-1.39-1.22-2.37-.92a7.68,7.68,0,0,0-2.47,1.84.83.83,0,0,1-1.09.12c-.46-.37-.35-.86,0-1.26a7.82,7.82,0,0,1,4.36-2.71A2.68,2.68,0,0,1,296,214.05Z" transform="translate(-78.18 -118.42)"/><path class="cls-10" d="M291.49,221.61a16.53,16.53,0,0,1-2.12-.15,1,1,0,0,1-.91-1.17c.1-.61.63-.6,1.11-.61a2.4,2.4,0,0,1,.71,0,6.22,6.22,0,0,0,4.15,0,.73.73,0,0,1,1,.41c.21.6-.2.8-.68,1A7.61,7.61,0,0,1,291.49,221.61Z" transform="translate(-78.18 -118.42)"/><path class="cls-10" d="M261.51,214.28c0,.6-.11,1.34-.91,1.34-1,0-1-.8-1-1.53s.19-1.09.91-1.11C261.38,213,261.5,213.54,261.51,214.28Z" transform="translate(-78.18 -118.42)"/><path class="cls-10" d="M383.34,262.37a9.57,9.57,0,0,1,1.5-5.25A8,8,0,0,1,383.34,262.37Z" transform="translate(-78.18 -118.42)"/><path class="cls-10" d="M384.84,257.14l.06-.65.36.17Z" transform="translate(-78.18 -118.42)"/><path class="cls-8" d="M283.61,200h.48c1.56,0,3.08.16,3.88,1.77a5.11,5.11,0,0,1-1.12,5.1c-1.71,1.74-3.79,1.9-6,1.25a4.47,4.47,0,0,1-3.23-4,2.79,2.79,0,0,1,1.38-3A8.59,8.59,0,0,1,283.61,200Z" transform="translate(-78.18 -118.42)"/><path class="cls-8" d="M299.52,207.41a4.22,4.22,0,0,1-6.24-.58,4.76,4.76,0,0,1-.91-5.12c1-2,3-2.11,5-1.79.07.67.14,1.44.21,2.11a1.75,1.75,0,0,0,.29,1.42C298,204.93,299,206.09,299.52,207.41Z" transform="translate(-78.18 -118.42)"/><path class="cls-1" d="M299.52,207.41c-.55-1.32-1.5-2.48-1.65-4a5.54,5.54,0,0,1,.71,0c1,.11,2.38-.43,2.8.64.34.88-.47,1.94-1.14,2.75A4.59,4.59,0,0,1,299.52,207.41Z" transform="translate(-78.18 -118.42)"/><path class="cls-1" d="M297.58,202c-.07-.67-.14-1.44-.21-2.11a5.56,5.56,0,0,1,4.09,1.73C300,202.12,298.75,201.84,297.58,202Z" transform="translate(-78.18 -118.42)"/><path class="cls-9" d="M292.73,198.09c.69-1.6,2.09-.78,3.2-.93l1.23.59,0,.31Z" transform="translate(-78.18 -118.42)"/><path class="cls-11" d="M346.58,351.52c10.13,12.05,20.05,24.22,27.67,38.11,4.64,8.48,9.4,16.88,12.8,26,3.28,8.74,6.5,17.5,8,26.78.37,2.29.44,2.28-1.92,2.68-1.18.21-2.36.38-3.55.57-1.61-.13-3.16.4-4.74.43a188.8,188.8,0,0,1-23.43-.53c-2.11-.23-4.32-.06-6.37-.87a1.74,1.74,0,0,0-.57-1.28c-2.32-2.17-4.19-4.77-6.46-7a117.05,117.05,0,0,1-8.59-8.94C335.73,423,332,418.54,329,413.53a36.09,36.09,0,0,1-4.67-11.67c-.09-.43.1-1-.6-1.1a1.57,1.57,0,0,0-.69.95c-.84,2.48-1.84,4.93-2.43,7.48-.49,2.08-1.7,4-1.56,6.2a87.68,87.68,0,0,0-2.93,10.34c-1.78,8.27-2.62,16.69-3.73,25.06-.28,2-.27,2.06-2.28,2.17a3.09,3.09,0,0,1-1.65-.13,2,2,0,0,1-.46.12c-8-.27-16.12.14-24.16-.61-2.14-.2-4.32-.29-6.41-.66s-4,.14-5.89-.76c-.14-4.14-.78-5.55-1.41-9.69a49,49,0,0,1,.46-10.09,33.21,33.21,0,0,0,.56-7.38c-.39-8.61.13-17.22.42-25.82a3.45,3.45,0,0,1,.07-.72c.81-3.11.36-6.32.77-9.48.31-2.34.49-4.75.74-7.11.18-1.64.2-3.32.5-5,.52-2.81.82-5.65,1.27-8.47a63.42,63.42,0,0,1,2.33-10c.35-1,1-1.5,2-1.31,2,.4,4.13.3,6.16.56a88.48,88.48,0,0,0,9.72.82A143.82,143.82,0,0,0,320.57,356c5.71-.92,11.44-1.65,17.12-2.82C340.63,352.56,343.52,351.56,346.58,351.52Z" transform="translate(-78.18 -118.42)"/><path class="cls-8" d="M389.38,455.1a31.68,31.68,0,0,1-.83,8.74A29.12,29.12,0,0,1,384,474.52c-2,3-5,4.69-8.14,6.05-4.46,1.95-9.29,2.72-14.1,3.41-3.38.48-6.75,1-10.15,1.31-2.54.2-5.07.43-7.61.61-7.37.51-14.74,1.15-21.93,3-3.54.9-7,2.25-10.56,3a55.59,55.59,0,0,1-6.79,1.26l-3.46-.07a22.36,22.36,0,0,1-.9-11.43l-6.53,1.94a20,20,0,0,0-6.6.64c-3.6.72-7.25.67-10.85,1.25l-4.75-.08c-.35-.59-1.47-.25-1.49-1.24.23-1.45-.31-2.83-.42-4.24a48.55,48.55,0,0,1,1.88-16.69,1.89,1.89,0,0,1,1.44-1.4c6.1.68,12.21,1.33,18.35,1.67.68.64,1.52.35,2.29.36,2.27,0,4.54,0,6.89,0a3.08,3.08,0,0,1-1,2,26.07,26.07,0,0,0-3.8,5.77c-.18.35-.36.71-.52,1.08a.8.8,0,0,0,.19,1.07.89.89,0,0,0,1.25-.33,7.55,7.55,0,0,0,.59-1,65.54,65.54,0,0,1,4.15-6.41c.6-.81,1.7-1.28,1.78-2.46a4.92,4.92,0,0,0,2.31-1.16,13,13,0,0,1,1.88,7.76c-.22,2.72-2.06,4.93-3,7.51a3.33,3.33,0,0,0,.88.14,37.66,37.66,0,0,0,11-3.77,60.68,60.68,0,0,0,13.84-10.92,60.82,60.82,0,0,1,6-5.13c4.56-3.52,9.81-5.57,15.29-7.12l1.21.75c0,.46.33.66.69.88,5.68,3.54,12,4.73,18.56,5.13A44.57,44.57,0,0,0,389.38,455.1Zm-23.87,5.69c0-.65-.46-.89-1-.67a4.73,4.73,0,0,0-1.29,1c-4,4.11-9.07,6.44-14.51,7.93-3.52,1-7.12,1.65-10.68,2.45-.68.16-1.31.48-1.15,1.25s1,.63,1.56.49c1.86-.42,3.69-1,5.57-1.29a41.93,41.93,0,0,0,17.56-7.1,30.48,30.48,0,0,0,3.34-3.08A1.48,1.48,0,0,0,365.51,460.79Z" transform="translate(-78.18 -118.42)"/><path class="cls-12" d="M346.58,351.52c-3.06,0-5.95,1-8.89,1.65-5.68,1.17-11.41,1.9-17.12,2.82a143.82,143.82,0,0,1-25.47,1.32,88.48,88.48,0,0,1-9.72-.82c-2-.26-4.12-.16-6.16-.56-1-.19-1.6.28-2,1.31a63.42,63.42,0,0,0-2.33,10c-.45,2.82-.75,5.66-1.27,8.47-.3,1.64-.32,3.32-.5,5-.25,2.36-.43,4.77-.74,7.11-.41,3.16,0,6.37-.77,9.48a3.45,3.45,0,0,0-.07.72c-.29,8.6-.81,17.21-.42,25.82.12,2.7.29,8.08.29,8.08-.36,2.24,0,6.48-.28,6.66,0,0,.24,8.28.38,12.41-2.25.23-4.44-.45-6.67-.5-1.66-.26-3.3-.62-5-.75-1.3-.11-1.54-.78-1.5-1.89.2-4.86.31-9.73.54-14.59.56-11.88,2-23.67,3.32-35.48,1.24-11.19,3.36-22.23,4.82-33.37.74-5.69,1.77-11.34,2.49-17a5.06,5.06,0,0,1,.59-2.29l.7.11c4.37.74,8.69,1.86,13.18,1.57a159.63,159.63,0,0,0,55.58-3.29,9.94,9.94,0,0,0,1.09-.44,2.65,2.65,0,0,1,.52.48C342.86,346.24,344.75,348.86,346.58,351.52Z" transform="translate(-78.18 -118.42)"/><path class="cls-10" d="M280.82,346.69c-4.49.29-5.57-.83-9.94-1.57l-.7-.11c0-4.92-1.23-9.63-2.43-14.33a73.13,73.13,0,0,0-5.5-15.52c-.66-1.28-1.41-2.5-2.08-3.77a3.42,3.42,0,0,0-1.18-1.15,64.76,64.76,0,0,1-16.84-18.11c-.29-.48-.53-1-.79-1.48.33-1.88,1.61-3.29,2.52-4.85a46.18,46.18,0,0,0,3.74-8,4.82,4.82,0,0,1,7.34-2.66c2.5,1.49,4.46,3.59,6.68,5.39a14.94,14.94,0,0,1,1.87,1.86c3.26,3.75,7.42,6.18,11.74,8.51,5.61,3,11,2.35,16.51,0a31.54,31.54,0,0,1,5.17-1.78,11.94,11.94,0,0,1,7,.73c4.14,1.44,8.23,3,12.75,2.82a17.94,17.94,0,0,0,7.35-1.81,33.27,33.27,0,0,1,5.24-2.35c.48-.14,1-.26,1.2.34a.89.89,0,0,1-.54,1.18c-3.34,1.29-6.39,3.22-9.94,4.06-5.52,1.3-10.65-.29-15.58-2.24a13.89,13.89,0,0,0-11.95.65A19.9,19.9,0,0,1,278.26,294,31.1,31.1,0,0,1,266,287.18a114.92,114.92,0,0,1-8.9-8.34,13.46,13.46,0,0,0-4.16-2.77,2.38,2.38,0,0,0-3,.67,5.09,5.09,0,0,0-1.06,5.35c2.79,7.06,7.68,11.84,15.12,13.74a2.94,2.94,0,0,1,2.15,1.62c1.1,2.12,2.56,4,3.79,6.08a60.16,60.16,0,0,1,6.25,16,165.43,165.43,0,0,1,3.48,17c.41,2.58.45,5.22.95,7.8l.11,1.73C280.74,346.54,280.79,346.31,280.82,346.69Z" transform="translate(-78.18 -118.42)"/><path class="cls-13" d="M276.35,485.45c3.6-.58,7.25-.53,10.85-1.25a20,20,0,0,1,6.6-.64c-.18,2.8.28,5.56.36,8.34,0,.85.41,1.28,1.35,1.24,1.91-.07,3.82-.07,5.72-.09l3.46.07c1,1.09,1,2.43.94,3.79a2.75,2.75,0,0,1-2.29,2.87,3.27,3.27,0,0,0-2,1.05c-1.46-.1-2.53.8-3.67,1.5-1.64,1-1.65,1-3-.31s-2.69-2.71-4.06-4.06a1.15,1.15,0,0,0-1.86,0c-.56.64-.38,1.42.51,1.88a10,10,0,0,1,2.54,1.75c3.08,3.12,2.91,2.22,0,5.15-.17.17-.33.35-.51.51-1.18,1-1.41,1.07-2.54-.14s-2.54-2.19-3.37-3.69a1.1,1.1,0,0,0-1.42-.57,1.12,1.12,0,0,0-.78,1.09,1.5,1.5,0,0,0,.89,1.34,11.8,11.8,0,0,1,2.89,2.47c1.83,1.87,1.77,2.08.25,4.19a1.32,1.32,0,0,1-2.17.37,8.57,8.57,0,0,1-2.28-1.71,1.59,1.59,0,0,0-1.87-.64.84.84,0,0,0-.64.88,1.32,1.32,0,0,0,1.24,1.47,9.7,9.7,0,0,1,2.5,1.38,1.66,1.66,0,0,1,.71,2.59,4.66,4.66,0,0,0-.6,3.22c-.82.68-.44,1.61-.5,2.44-.15,2.12.17,4.24-.41,6.36-1.21,4.47-3.93,6.2-8.46,5.15a5.51,5.51,0,0,0-.71-.06c-.32-1.59-1.33-2.89-1.92-4.37-1.47-3.69-1.24-7.66-1.92-11.48a1.42,1.42,0,0,1,0-.71c.61-1.62.36-3.31.42-5a22.75,22.75,0,0,1,.16-2.62c.39-2.51,1-5,1.23-7.51a43.29,43.29,0,0,1,3.92-14.43A3.27,3.27,0,0,0,276.35,485.45Z" transform="translate(-78.18 -118.42)"/><path class="cls-9" d="M264.89,450.41c2.23,0,4.42.73,6.67.5,1.87.91,3.93.43,5.89.77s4.27.46,6.41.66c8,.75,16.11.34,24.16.61a2,2,0,0,0,.46-.12,1.71,1.71,0,0,0-1.07,1.16c-.85,2.73-1.82,5.43-1.88,8.34a4.84,4.84,0,0,1-2.3,1.16l-11.87,0c-6.14-.34-12.25-1-18.35-1.67-.47-.39-1.05-.27-1.59-.34A57,57,0,0,1,264,460a3.54,3.54,0,0,1-.27-2.3A66.93,66.93,0,0,0,264.89,450.41Z" transform="translate(-78.18 -118.42)"/><path class="cls-9" d="M352.63,451.55l-1.21-.75c-1.21-1.73-2.76-3.23-3.58-5.23.15-1,.89-.91,1.6-.91l5.59,0c2.05.82,4.26.65,6.37.88a188.8,188.8,0,0,0,23.43.53c1.58,0,3.13-.56,4.74-.43a17.19,17.19,0,0,0,.55,3.83,7.76,7.76,0,0,1-.15,3.94.42.42,0,0,0-.41.39h0a78.68,78.68,0,0,1-11.17.61A137.86,137.86,0,0,1,352.63,451.55Z" transform="translate(-78.18 -118.42)"/><path class="cls-14" d="M276.35,485.45a3.27,3.27,0,0,1-.42,1.83A43.29,43.29,0,0,0,272,501.71c-.25,2.52-.84,5-1.23,7.51a22.75,22.75,0,0,0-.16,2.62c-.06,1.67.19,3.36-.42,5a1.42,1.42,0,0,0,0,.71c.68,3.82.45,7.79,1.92,11.48.59,1.48,1.6,2.78,1.92,4.37a1,1,0,0,1-.24,0c-5.9-1.27-5.16-.81-6.83-6.16a26.44,26.44,0,0,1-1.11-8.23c0-4.22-.2-8.45.5-12.64.41-2.42.82-4.85,1.41-7.23,1-4.16,2-8.35,3.35-12.42.16-.45.35-.89.52-1.33Z" transform="translate(-78.18 -118.42)"/><path class="cls-13" d="M301.26,501.66a32.05,32.05,0,0,1-3,15.71,9.55,9.55,0,0,1-10.23,5,2.48,2.48,0,0,1-1.62-.93c.34-.62.75-1.18,1-1.85A43.11,43.11,0,0,1,301.26,501.66Z" transform="translate(-78.18 -118.42)"/><path class="cls-10" d="M264,460a57,57,0,0,0,7.41,1.44c.54.07,1.12,0,1.59.34a1.89,1.89,0,0,0-1.44,1.4,48.55,48.55,0,0,0-1.88,16.69c.11,1.41.65,2.79.42,4.24l-.87,0-.54-.1a8.68,8.68,0,0,1-3.83-4.74C262.87,472.94,262.21,466.53,264,460Z" transform="translate(-78.18 -118.42)"/><path class="cls-10" d="M301.26,501.66a43.11,43.11,0,0,0-13.8,17.88c-.29.67-.7,1.23-1,1.85-1-.39-1.44-1.42-2.34-1.9a4.66,4.66,0,0,1,.6-3.22,1.66,1.66,0,0,0-.71-2.59,9.7,9.7,0,0,0-2.5-1.38,1.32,1.32,0,0,1-1.24-1.47.84.84,0,0,1,.64-.88,1.59,1.59,0,0,1,1.87.64A8.57,8.57,0,0,0,285,512.3a1.32,1.32,0,0,0,2.17-.37c1.52-2.11,1.58-2.32-.25-4.19a11.8,11.8,0,0,0-2.89-2.47,1.5,1.5,0,0,1-.89-1.34,1.12,1.12,0,0,1,.78-1.09,1.1,1.1,0,0,1,1.42.57c.83,1.5,2.23,2.48,3.37,3.69s1.36,1.17,2.54.14c.18-.16.34-.34.51-.51,2.9-2.93,3.07-2,0-5.15a10,10,0,0,0-2.54-1.75c-.89-.46-1.07-1.24-.51-1.88a1.15,1.15,0,0,1,1.86,0c1.37,1.35,2.7,2.72,4.06,4.06s1.34,1.31,3,.31c1.14-.7,2.21-1.6,3.67-1.5Z" transform="translate(-78.18 -118.42)"/><path class="cls-10" d="M352.63,451.55a137.86,137.86,0,0,0,25.78,2.83,78.68,78.68,0,0,0,11.17-.61c-.06.45-.13.89-.19,1.33a44.65,44.65,0,0,1-17.51,2.46c-6.52-.4-12.88-1.59-18.56-5.13C353,452.21,352.65,452,352.63,451.55Z" transform="translate(-78.18 -118.42)"/><path class="cls-10" d="M337.3,313.7c-1.42-3.54-2.94-7.05-3.52-10.84a34.83,34.83,0,0,1-.5-8.25c.44-5.3,1.09-10.65.6-16a33.6,33.6,0,0,0-1.16-6.8c-.26-.83-.8-2.18.37-2.43,1-.2,1,1.29,1.2,2.06a42.32,42.32,0,0,1,1.43,15.13c-.34,3.08-.38,6.18-.72,9.26-.46,4.22.68,8.36,1.83,12.43a13.92,13.92,0,0,1,.91,5.38Z" transform="translate(-78.18 -118.42)"/><path class="cls-10" d="M389.56,453.78a.42.42,0,0,1,.41-.39C390,453.66,389.84,453.79,389.56,453.78Z" transform="translate(-78.18 -118.42)"/><path class="cls-8" d="M268.7,484l.54.1C269,484.34,268.83,484.3,268.7,484Z" transform="translate(-78.18 -118.42)"/><path class="cls-10" d="M298.85,306.5a7.73,7.73,0,0,1,4.73,1.15,3.23,3.23,0,0,0,3.54.07c2.75-1.51,5.86-2,8.88-2.61a2.78,2.78,0,0,1,1.18.07.84.84,0,0,1,0,1.67c-1,.22-2,.27-3.05.5-2.65.59-5.28,1.15-7.41,3a1.51,1.51,0,0,1-2.17,0c-2.85-2.61-6.13-2.6-9.59-1.69a4.52,4.52,0,0,1-1.41.18c-.58,0-1.48.34-1.57-.57-.06-.73.8-1,1.38-1.1C295.17,307,296.92,306.33,298.85,306.5Z" transform="translate(-78.18 -118.42)"/><path class="cls-10" d="M302.33,332.39a12,12,0,0,1,5.65,1.67,2.68,2.68,0,0,0,2.88.09,17.11,17.11,0,0,1,9.23-1.76c.55.05,1.21,0,1.24.77s-.45,1-1.05,1.08a3.37,3.37,0,0,1-.95,0,15.23,15.23,0,0,0-8.51,1.8,2.7,2.7,0,0,1-2.88-.13,10.22,10.22,0,0,0-4.2-1.6c-2-.17-4-.22-5.74,1-.4.29-.91.5-1.27,0s-.07-1.09.44-1.39A9.79,9.79,0,0,1,302.33,332.39Z" transform="translate(-78.18 -118.42)"/><path class="cls-10" d="M320,319.66c-.06.91-.69,1.2-1.47,1.18a21.7,21.7,0,0,0-5.21.53,4.2,4.2,0,0,0-2.72,1.37c-.77,1.13-1.5.85-2.42.37-2.29-1.18-4.65-2.14-7.31-1.71-1.41.22-2.8.55-4.2.81-.55.1-1.19.28-1.41-.44s.45-1,1-1.13c3.76-.75,7.54-1.48,11.24.21a2.69,2.69,0,0,0,2.63-.1,17.85,17.85,0,0,1,8.56-1.78C319.53,319,319.87,319.2,320,319.66Z" transform="translate(-78.18 -118.42)"/><path class="cls-10" d="M224.14,262.41a2.86,2.86,0,0,1,1.73,1.72A40.86,40.86,0,0,1,229.36,280a11.73,11.73,0,0,1,0,1.19.66.66,0,0,1-.79.67.6.6,0,0,1-.53-.67c0-1.29-.49-2.51-.5-3.76,0-3.55-1.25-6.84-2.18-10.18A31.77,31.77,0,0,1,224.14,262.41Z" transform="translate(-78.18 -118.42)"/><path class="cls-10" d="M355.53,292.21l.93-.14a18.64,18.64,0,0,1-.42,5.2c-.71,2.69-.33,5.53-1,8.25a3.68,3.68,0,0,0,.24,2.11,2.79,2.79,0,0,1,0,1.87.82.82,0,0,1-.65.62c-.37.05-.52-.23-.64-.56a8.53,8.53,0,0,1-.49-2.79,44.69,44.69,0,0,1,1.69-13.17C355.37,293.15,355.44,292.68,355.53,292.21Z" transform="translate(-78.18 -118.42)"/><path class="cls-10" d="M356.44,292.1l.5-.54Z" transform="translate(-78.18 -118.42)"/><path class="cls-9" d="M276.32,200.07c2.42-3.09,7.37-4.48,10.41-2.93-1.87.67-3.71.32-5.43.85S278.19,199.47,276.32,200.07Z" transform="translate(-78.18 -118.42)"/><path class="cls-1" d="M347.84,445.57c.82,2,2.37,3.5,3.58,5.23-5.48,1.55-10.73,3.6-15.29,7.12a60.82,60.82,0,0,0-6,5.13A60.68,60.68,0,0,1,316.31,474a37.66,37.66,0,0,1-11,3.77,3.33,3.33,0,0,1-.88-.14c.95-2.58,2.79-4.79,3-7.51a13,13,0,0,0-1.88-7.76c0-2.91,1-5.61,1.87-8.34a1.71,1.71,0,0,1,1.07-1.16,3.09,3.09,0,0,0,1.65.13c2-.11,2-.12,2.28-2.17,1.11-8.37,1.95-16.79,3.73-25.06a87.68,87.68,0,0,1,2.93-10.34c1.09.55,1.3,1.76,1.86,2.67,5.89,9.55,13.45,17.59,21.88,24.89,1.08.94,2,2.06,3.71,1.74C347.21,444.56,347.39,445.3,347.84,445.57Z" transform="translate(-78.18 -118.42)"/><path class="cls-12" d="M347.84,445.57c-.45-.27-.63-1-1.32-.88-1.67.32-2.63-.8-3.71-1.74-8.43-7.3-16-15.34-21.88-24.89-.56-.91-.77-2.12-1.86-2.67-.14-2.23,1.07-4.12,1.56-6.2.59-2.55,1.59-5,2.43-7.48a1.57,1.57,0,0,1,.69-.95c.7.1.51.67.6,1.1A36.09,36.09,0,0,0,329,413.53c3,5,6.71,9.42,10.39,13.89a117.05,117.05,0,0,0,8.59,8.94c2.27,2.24,4.14,4.84,6.46,7a1.74,1.74,0,0,1,.57,1.28h-5.59C348.73,444.66,348,444.59,347.84,445.57Z" transform="translate(-78.18 -118.42)"/><path class="cls-9" d="M301.23,493.05c-1.9,0-3.81,0-5.72.09-.94,0-1.32-.39-1.35-1.24-.08-2.78-.54-5.54-.36-8.34l6.53-1.94A22.36,22.36,0,0,0,301.23,493.05Z" transform="translate(-78.18 -118.42)"/><path class="cls-10" d="M365.51,460.79a1.48,1.48,0,0,1-.56,1,30.48,30.48,0,0,1-3.34,3.08,41.93,41.93,0,0,1-17.56,7.1c-1.88.32-3.71.87-5.57,1.29-.6.14-1.38.42-1.56-.49s.47-1.09,1.15-1.25c3.56-.8,7.16-1.48,10.68-2.45,5.44-1.49,10.47-3.82,14.51-7.93a4.73,4.73,0,0,1,1.29-1C365.05,459.9,365.49,460.14,365.51,460.79Z" transform="translate(-78.18 -118.42)"/><path class="cls-10" d="M291.36,463.47l11.87,0c-.08,1.18-1.18,1.65-1.78,2.46a65.54,65.54,0,0,0-4.15,6.41,7.55,7.55,0,0,1-.59,1,.89.89,0,0,1-1.25.33.8.8,0,0,1-.19-1.07c.16-.37.34-.73.52-1.08a26.07,26.07,0,0,1,3.8-5.77,3.08,3.08,0,0,0,1-2c-2.35,0-4.62,0-6.89,0C292.88,463.82,292,464.11,291.36,463.47Z" transform="translate(-78.18 -118.42)"/></svg>