<svg xmlns="http://www.w3.org/2000/svg" id="artwork" viewBox="0 0 59.39 59.34"><defs><style>.cls-1{fill:#f05138;}.cls-2{fill:#fff;}</style></defs><path class="cls-1" d="M59.39,16.45c0-.6,0-1.19,0-1.79a25.46,25.46,0,0,0-.34-3.9,13.16,13.16,0,0,0-1.23-3.71A12.28,12.28,0,0,0,55.5,3.89,12.11,12.11,0,0,0,52.34,1.6,13.1,13.1,0,0,0,48.64.37,27,27,0,0,0,44.73,0c-.59,0-1.19,0-1.79,0H16.45L14.66,0l-1,0a21.89,21.89,0,0,0-2.92.3,14.25,14.25,0,0,0-2.82.81c-.3.13-.59.27-.89.42A12.17,12.17,0,0,0,4.61,3.22c-.25.22-.49.44-.72.67A12.52,12.52,0,0,0,1.6,7.05,13.16,13.16,0,0,0,.37,10.76,26.78,26.78,0,0,0,0,14.66c0,.6,0,1.19,0,1.79V42.94c0,.6,0,1.2,0,1.79a26.78,26.78,0,0,0,.34,3.9A13.06,13.06,0,0,0,1.6,52.34,12.34,12.34,0,0,0,3.89,55.5a12.56,12.56,0,0,0,3.16,2.3A13.47,13.47,0,0,0,10.76,59a25.46,25.46,0,0,0,3.9.34l1.79,0H42.94c.6,0,1.2,0,1.79,0a25.46,25.46,0,0,0,3.9-.34,13.36,13.36,0,0,0,3.71-1.22,12.38,12.38,0,0,0,3.16-2.3,12.11,12.11,0,0,0,2.29-3.16A13.06,13.06,0,0,0,59,48.63a25.46,25.46,0,0,0,.34-3.9c0-.59,0-1.19,0-1.79V16.45Z" transform="translate(0 0)"/><path class="cls-2" d="M47.06,36.66h0c.06-.23.13-.45.19-.68,2.46-9.82-3.55-21.43-13.73-27.54C38,14.48,40,21.81,38.2,28.22c-.16.57-.35,1.11-.55,1.65-.23-.15-.51-.32-.9-.53A128.51,128.51,0,0,1,15.65,12,130.7,130.7,0,0,0,28.47,28.17a137.85,137.85,0,0,1-18.22-13.8,26.65,26.65,0,0,0,2.49,3.43c4.83,6.13,11.14,13.7,18.7,19.51-5.31,3.25-12.81,3.51-20.29,0A31.1,31.1,0,0,1,6,34.22a31.08,31.08,0,0,0,14,12c7.07,3,14.1,2.83,19.34.05h0l.08,0c.22-.12.43-.23.64-.36,2.52-1.3,7.49-2.63,10.15,2.56C50.78,49.67,52.16,42.94,47.06,36.66Z" transform="translate(0 0)"/></svg>