<svg xmlns="http://www.w3.org/2000/svg" xmlns:xlink="http://www.w3.org/1999/xlink" viewBox="0 0 234.5 234.5"><defs><style>.cls-1{fill:url(#Dégradé_sans_nom_88);}.cls-2{fill:#fff;}</style><linearGradient id="Dégradé_sans_nom_88" y1="117.24" x2="234.48" y2="117.24" gradientUnits="userSpaceOnUse"><stop offset="0" stop-color="#a00"/><stop offset="0.26" stop-color="#b00000"/><stop offset="0.62" stop-color="#c20000"/><stop offset="1" stop-color="#dc0000"/></linearGradient></defs><g id="Layer_2" data-name="Layer 2"><g id="Calque_4" data-name="Calque 4"><rect class="cls-1" width="234.5" height="234.48" rx="60.5"/><path class="cls-2" d="M104.8,132.9a1.1,1.1,0,0,1,1.1.9,6.9,6.9,0,0,0,1.3,2.9,9.3,9.3,0,0,0,3.2,3,14.7,14.7,0,0,0,4.6,1.8,21.7,21.7,0,0,0,5.9.7,18.6,18.6,0,0,0,5.4-.7,13.3,13.3,0,0,0,4.2-1.8,9.6,9.6,0,0,0,2.8-2.9,6.5,6.5,0,0,0,1-3.6,6,6,0,0,0-.7-3,8.4,8.4,0,0,0-2.2-2.5,17.7,17.7,0,0,0-3.9-1.9,33.4,33.4,0,0,0-5.7-1.5l-9.4-2c-13.1-2.6-19.7-9.3-19.7-20a20.5,20.5,0,0,1,2-9,20.9,20.9,0,0,1,5.6-7,25.5,25.5,0,0,1,8.7-4.4,37,37,0,0,1,11.4-1.6,34.8,34.8,0,0,1,11,1.6,28.3,28.3,0,0,1,8.7,4.3,21.8,21.8,0,0,1,5.8,6.7,18.6,18.6,0,0,1,2.1,7.4,1.1,1.1,0,0,1-1.1,1.2H134.8a1.2,1.2,0,0,1-1.1-.9,8.1,8.1,0,0,0-1.2-2.9,11,11,0,0,0-2.8-2.9,12.9,12.9,0,0,0-4.1-1.9,19.8,19.8,0,0,0-5.1-.6,21.2,21.2,0,0,0-5.2.6,13.9,13.9,0,0,0-3.9,1.7,8.6,8.6,0,0,0-2.6,2.8,7.4,7.4,0,0,0-.9,3.6,6.5,6.5,0,0,0,2.8,5.3c1.9,1.3,4.9,2.4,9.2,3.3l8.7,1.8a47.9,47.9,0,0,1,9.4,2.8,24.3,24.3,0,0,1,6.5,4.2,14.8,14.8,0,0,1,3.7,5.6,21.1,21.1,0,0,1,1.2,7.3,22.6,22.6,0,0,1-2,9.6,20.4,20.4,0,0,1-5.9,7.2,29.3,29.3,0,0,1-9.2,4.5,45.6,45.6,0,0,1-12.2,1.6,43.3,43.3,0,0,1-11.8-1.5,26.9,26.9,0,0,1-9-4.3,19.9,19.9,0,0,1-5.9-6.7,21.1,21.1,0,0,1-2.3-7.6,1.2,1.2,0,0,1,1.2-1.2Z"/><path class="cls-2" d="M36.8,154.3h-1a9.3,9.3,0,0,1-6.4-3.4,9.6,9.6,0,0,1,1.3-13.4,9.5,9.5,0,0,1,13.4,1.4h0a9.5,9.5,0,0,1-1.3,13.3A9.9,9.9,0,0,1,36.8,154.3Zm-.1-15.6a5.7,5.7,0,0,0-3.7,1.4,6,6,0,0,0-.9,8.5,5.7,5.7,0,0,0,4,2.1,5.8,5.8,0,0,0,4.4-1.3,5.9,5.9,0,0,0,.9-8.4,5.4,5.4,0,0,0-4-2.2Z"/><path class="cls-2" d="M194.5,116.8a1,1,0,0,1-.9-.7,10.9,10.9,0,0,0-3.3-5.7,11.1,11.1,0,0,0-7.5-2.4,10.7,10.7,0,0,0-9,4.3c-2.1,2.9-3.2,7.1-3.2,12.6s1.1,9.9,3.2,12.8a10.5,10.5,0,0,0,9,4.4,11.7,11.7,0,0,0,7.3-2.2,9.9,9.9,0,0,0,3.5-5.6,1,1,0,0,1,.9-.7h11.8a.9.9,0,0,1,.9,1.1,22,22,0,0,1-2.2,7.4,19.9,19.9,0,0,1-5,6.5,23.1,23.1,0,0,1-7.4,4.1,30.2,30.2,0,0,1-9.8,1.4,31,31,0,0,1-11.4-1.9,22,22,0,0,1-8.5-5.7,23.9,23.9,0,0,1-5.2-9.1,39.7,39.7,0,0,1-1.8-12.5,38.8,38.8,0,0,1,1.8-12.3,23.9,23.9,0,0,1,5.2-9.1,21.8,21.8,0,0,1,8.5-5.6,35.4,35.4,0,0,1,21.3-.5,21.4,21.4,0,0,1,7.4,4.2,20.6,20.6,0,0,1,5,6.6,23.2,23.2,0,0,1,2.1,7.5.9.9,0,0,1-.9,1.1Z"/><path class="cls-2" d="M65.1,154.3H52.7a2.8,2.8,0,0,1-2.2-1.1,2.8,2.8,0,0,1-.4-2.5L71.7,82.4a3.1,3.1,0,0,1,2.9-2.1H87.5a2.8,2.8,0,0,1,2.6,3.6L68.2,152A3.2,3.2,0,0,1,65.1,154.3Zm-10.7-4H64.6l21.1-66H75.3Z"/></g></g></svg>